<svg xmlns="http://www.w3.org/2000/svg" width="150" height="150" viewBox="0 0 150 150"><rect width="100%" height="100%" fill="#4A5568"/><path fill="#FFFFFF" d="M46.7 81.105h15.87l-6.08-16.59q-.44-1.11-.93-2.62-.48-1.52-.96-3.28-.45 1.76-.93 3.29-.49 1.54-.94 2.68zm12.66-31.05 19.59 49.89h-7.17q-1.21 0-1.97-.6-.76-.61-1.14-1.5l-3.72-10.18H44.28l-3.72 10.18q-.28.79-1.07 1.44-.8.66-1.97.66h-7.25l19.64-49.89zm34.05 25.08h6.93q2.56 0 4.45-.63 1.9-.64 3.16-1.83t1.88-2.9.62-3.81q0-2-.62-3.63-.62-1.62-1.86-2.76-1.24-1.13-3.14-1.74-1.9-.6-4.49-.6h-6.93zm-9.28-25.08h16.21q5.01 0 8.66 1.18 3.66 1.17 6.04 3.27 2.38 2.11 3.54 5.04 1.15 2.93 1.15 6.42 0 3.62-1.2 6.64-1.21 3.02-3.63 5.19-2.41 2.17-6.05 3.38t-8.51 1.21h-6.93v17.56h-9.28z"/></svg>