<svg xmlns="http://www.w3.org/2000/svg" width="1200" height="400" viewBox="0 0 1200 400"><rect width="100%" height="100%" fill="#2D3748"/><path fill="#FFFFFF" d="m284.19 163.74-3.25 6.16q-.58 1.02-1.24 1.48-.65.46-1.62.46-1.02 0-2.21-.75t-2.84-1.67-3.85-1.67q-2.21-.76-5.22-.76-2.71 0-4.75.66-2.04.65-3.42 1.82-1.38 1.16-2.06 2.79-.68 1.62-.68 3.56 0 2.48 1.38 4.12 1.39 1.65 3.67 2.82 2.27 1.16 5.18 2.08t5.97 1.97q3.06 1.04 5.97 2.42t5.19 3.49q2.27 2.11 3.66 5.17 1.38 3.05 1.38 7.42 0 4.75-1.63 8.9-1.62 4.15-4.75 7.23t-7.64 4.85-10.33 1.77q-3.34 0-6.59-.66-3.25-.65-6.24-1.87-2.98-1.21-5.6-2.91-2.62-1.69-4.65-3.78l3.83-6.26q.48-.67 1.26-1.14.77-.46 1.65-.46 1.21 0 2.62 1 1.4.99 3.34 2.2 1.94 1.22 4.54 2.21 2.59 1 6.23 1 5.58 0 8.63-2.65 3.06-2.64 3.06-7.59 0-2.76-1.38-4.51-1.39-1.74-3.67-2.93-2.27-1.19-5.18-2.02-2.91-.82-5.92-1.79t-5.92-2.33-5.19-3.54-3.66-5.45q-1.38-3.28-1.38-8.08 0-3.83 1.53-7.47 1.52-3.64 4.43-6.45t7.18-4.51 9.8-1.7q6.21 0 11.44 1.94 5.24 1.94 8.93 5.43m27.3 64.32q-6.5 0-9.96-3.67-3.47-3.66-3.47-10.11v-27.79h-5.09q-.97 0-1.65-.63t-.68-1.89v-4.75l8-1.31 2.52-13.58q.25-.97.92-1.51.68-.53 1.75-.53h6.21v15.67h13.29v8.53h-13.29v26.97q0 2.33 1.14 3.63 1.14 1.31 3.13 1.31 1.11 0 1.86-.26.76-.27 1.31-.56.56-.29 1-.56.43-.26.87-.26.53 0 .87.26.34.27.73.8l3.59 5.82q-2.62 2.18-6.01 3.3-3.4 1.12-7.04 1.12m28.96-31.38h22.6q0-2.33-.66-4.39-.65-2.06-1.96-3.62-1.31-1.55-3.32-2.45-2.01-.89-4.68-.89-5.19 0-8.17 2.96-2.99 2.95-3.81 8.39M371 203.9h-30.79q.29 3.83 1.35 6.62 1.07 2.79 2.82 4.61 1.74 1.82 4.14 2.72 2.4.89 5.31.89t5.02-.67q2.11-.68 3.69-1.51 1.58-.82 2.76-1.5 1.19-.68 2.31-.68 1.5 0 2.23 1.11l3.44 4.37q-1.99 2.33-4.46 3.9-2.47 1.58-5.16 2.53-2.7.94-5.49 1.33-2.78.39-5.4.39-5.19 0-9.65-1.72-4.47-1.73-7.76-5.1-3.3-3.37-5.19-8.34-1.9-4.97-1.9-11.52 0-5.09 1.65-9.58 1.65-4.48 4.73-7.8 3.08-3.33 7.52-5.27t10.02-1.94q4.7 0 8.68 1.51 3.97 1.5 6.84 4.39 2.86 2.88 4.48 7.08 1.63 4.19 1.63 9.58 0 2.71-.59 3.66-.58.94-2.23.94m11.93-48.69h11.98v72.07h-11.98zm24.11 0h11.98v72.07h-11.98zm50.24 59.22v-8.39q-5.18.24-8.73.89-3.54.66-5.67 1.68t-3.06 2.37q-.92 1.36-.92 2.96 0 3.15 1.87 4.51t4.87 1.36q3.69 0 6.38-1.33 2.69-1.34 5.26-4.05m-25.31-26.14-2.14-3.84q8.59-7.85 20.66-7.85 4.37 0 7.81 1.43 3.45 1.43 5.82 3.98 2.38 2.54 3.62 6.08 1.23 3.54 1.23 7.76v31.43h-5.43q-1.7 0-2.62-.51t-1.45-2.06l-1.07-3.59q-1.89 1.7-3.69 2.98-1.79 1.29-3.73 2.16t-4.15 1.34q-2.2.46-4.87.46-3.15 0-5.82-.85t-4.61-2.55-3.01-4.22q-1.06-2.52-1.06-5.87 0-1.89.63-3.76.63-1.86 2.06-3.56t3.71-3.2 5.6-2.62 7.74-1.82q4.41-.7 10.08-.85v-2.91q0-4.99-2.13-7.39-2.13-2.41-6.16-2.41-2.91 0-4.82.68-1.92.68-3.38 1.53-1.45.85-2.64 1.53t-2.64.68q-1.26 0-2.14-.66-.87-.65-1.4-1.52m58.83-7.76.73 5.62q2.32-4.46 5.52-7.01 3.21-2.54 7.57-2.54 3.44 0 5.53 1.5l-.78 8.97q-.24.88-.7 1.24t-1.24.36q-.72 0-2.15-.24-1.44-.24-2.79-.24-1.99 0-3.54.58-1.56.58-2.79 1.67-1.24 1.1-2.19 2.65-.94 1.55-1.77 3.54v30.65h-11.97v-49.76h7.03q1.84 0 2.57.65.73.66.97 2.36m98.7-23.38h11.49v70.13h-6.69q-1.55 0-2.6-.51-1.04-.51-2.01-1.72l-36.62-46.75q.29 3.2.29 5.91v43.07h-11.49v-70.13h6.84q.82 0 1.43.07.6.07 1.06.29.47.22.9.63.44.42.97 1.09l36.77 46.95q-.15-1.7-.25-3.34-.09-1.65-.09-3.06zm51.5 57.28v-8.39q-5.19.24-8.73.89-3.54.66-5.67 1.68-2.14 1.02-3.06 2.37-.92 1.36-.92 2.96 0 3.15 1.87 4.51t4.87 1.36q3.69 0 6.38-1.33 2.69-1.34 5.26-4.05m-25.31-26.14-2.14-3.84q8.59-7.85 20.66-7.85 4.37 0 7.81 1.43t5.82 3.98q2.38 2.54 3.61 6.08 1.24 3.54 1.24 7.76v31.43h-5.43q-1.7 0-2.62-.51t-1.45-2.06l-1.07-3.59q-1.89 1.7-3.69 2.98-1.79 1.29-3.73 2.16t-4.15 1.34q-2.21.46-4.87.46-3.16 0-5.82-.85-2.67-.85-4.61-2.55t-3.01-4.22q-1.06-2.52-1.06-5.87 0-1.89.63-3.76.63-1.86 2.06-3.56t3.71-3.2 5.6-2.62 7.73-1.82q4.42-.7 10.09-.85v-2.91q0-4.99-2.13-7.39-2.14-2.41-6.16-2.41-2.91 0-4.83.68-1.91.68-3.37 1.53-1.45.85-2.64 1.53t-2.64.68q-1.26 0-2.14-.66-.87-.65-1.4-1.52m83.66-10.77h9.46l-19.74 49.76H678.2l-19.74-49.76h9.9q1.35 0 2.25.63t1.19 1.6l9.6 26.58q.78 2.33 1.36 4.56t1.02 4.46q.48-2.23 1.07-4.46.58-2.23 1.4-4.56l9.8-26.58q.34-.97 1.21-1.6.88-.63 2.09-.63m16.2 0h12.03v49.76h-12.03zm13.67-14.5q0 1.55-.63 2.91t-1.67 2.37q-1.04 1.02-2.45 1.63-1.41.6-3.01.6-1.55 0-2.93-.6-1.38-.61-2.4-1.63-1.02-1.01-1.63-2.37-.6-1.36-.6-2.91 0-1.6.6-3.01.61-1.41 1.63-2.42 1.02-1.02 2.4-1.63t2.93-.61q1.6 0 3.01.61t2.45 1.63q1.04 1.01 1.67 2.42t.63 3.01m28.76 38.17q2.24 0 3.88-.61 1.65-.61 2.74-1.67 1.1-1.07 1.65-2.57.56-1.51.56-3.3 0-3.69-2.21-5.85-2.2-2.15-6.62-2.15-4.41 0-6.62 2.15-2.2 2.16-2.2 5.85 0 1.75.56 3.25.55 1.5 1.64 2.59 1.1 1.09 2.77 1.7t3.85.61m13.54 28.32q0-1.45-.88-2.38-.87-.92-2.37-1.43-1.51-.51-3.52-.75t-4.27-.36q-2.25-.12-4.65-.22t-4.68-.39q-1.99 1.12-3.23 2.62t-1.24 3.49q0 1.31.66 2.45.65 1.14 2.08 1.97 1.44.82 3.71 1.28 2.28.46 5.58.46 3.35 0 5.77-.51 2.43-.51 4-1.4 1.58-.9 2.31-2.14.73-1.23.73-2.69m-2.38-50.29h14.31v4.46q0 2.13-2.57 2.62l-4.47.82q1.02 2.57 1.02 5.63 0 3.68-1.48 6.67-1.48 2.98-4.09 5.06-2.62 2.09-6.19 3.23-3.56 1.14-7.69 1.14-1.45 0-2.81-.15-1.36-.14-2.67-.38-2.32 1.4-2.32 3.15 0 1.5 1.38 2.21 1.38.7 3.66.99t5.19.36q2.91.08 5.97.32 3.05.24 5.96.85 2.91.6 5.19 1.91t3.66 3.57q1.38 2.25 1.38 5.79 0 3.3-1.62 6.41-1.63 3.1-4.71 5.53-3.07 2.42-7.56 3.9t-10.21 1.48q-5.63 0-9.8-1.09t-6.93-2.91q-2.77-1.82-4.13-4.2-1.35-2.37-1.35-4.94 0-3.5 2.11-5.85t5.79-3.76q-1.99-1.02-3.15-2.71-1.16-1.7-1.16-4.47 0-1.11.41-2.3t1.21-2.35q.8-1.17 2.01-2.21 1.22-1.04 2.86-1.87-3.78-2.03-5.94-5.43-2.15-3.39-2.15-7.95 0-3.69 1.47-6.67 1.48-2.98 4.13-5.09 2.64-2.11 6.25-3.23 3.62-1.11 7.88-1.11 3.21 0 6.02.65 2.81.66 5.14 1.92m48.16 35.21v-8.39q-5.19.24-8.73.89-3.54.66-5.67 1.68-2.14 1.02-3.06 2.37-.92 1.36-.92 2.96 0 3.15 1.87 4.51 1.86 1.36 4.87 1.36 3.69 0 6.38-1.33 2.69-1.34 5.26-4.05m-25.32-26.14-2.13-3.84q8.58-7.85 20.66-7.85 4.37 0 7.81 1.43t5.82 3.98q2.38 2.54 3.61 6.08 1.24 3.54 1.24 7.76v31.43h-5.43q-1.7 0-2.62-.51t-1.46-2.06l-1.06-3.59q-1.9 1.7-3.69 2.98-1.79 1.29-3.73 2.16t-4.15 1.34q-2.21.46-4.88.46-3.15 0-5.82-.85-2.66-.85-4.6-2.55t-3.01-4.22-1.07-5.87q0-1.89.63-3.76.63-1.86 2.06-3.56 1.44-1.7 3.71-3.2 2.28-1.5 5.61-2.62 3.32-1.12 7.73-1.82 4.42-.7 10.09-.85v-2.91q0-4.99-2.13-7.39-2.14-2.41-6.16-2.41-2.91 0-4.83.68-1.91.68-3.37 1.53-1.45.85-2.64 1.53t-2.65.68q-1.26 0-2.13-.66-.87-.65-1.41-1.52m64.85 39.77q-6.5 0-9.97-3.67-3.47-3.66-3.47-10.11v-27.79h-5.09q-.97 0-1.65-.63t-.68-1.89v-4.75l8.01-1.31 2.52-13.58q.24-.97.92-1.51.68-.53 1.74-.53h6.21v15.67h13.29v8.53h-13.29v26.97q0 2.33 1.14 3.63 1.14 1.31 3.13 1.31 1.12 0 1.87-.26.75-.27 1.31-.56.55-.29.99-.56.44-.26.87-.26.54 0 .88.26.34.27.73.8l3.58 5.82q-2.61 2.18-6.01 3.3-3.39 1.12-7.03 1.12m41.51-51.32q5.53 0 10.07 1.8 4.53 1.79 7.76 5.09 3.22 3.3 4.97 8.05 1.74 4.75 1.74 10.62 0 5.92-1.74 10.67-1.75 4.76-4.97 8.1-3.23 3.35-7.76 5.14-4.54 1.8-10.07 1.8-5.57 0-10.13-1.8-4.56-1.79-7.79-5.14-3.22-3.34-4.99-8.1-1.77-4.75-1.77-10.67 0-5.87 1.77-10.62t4.99-8.05q3.23-3.3 7.79-5.09 4.56-1.8 10.13-1.8m0 42.05q6.21 0 9.19-4.17 2.99-4.17 2.99-12.22t-2.99-12.27q-2.98-4.22-9.19-4.22-6.3 0-9.33 4.24-3.03 4.25-3.03 12.25t3.03 12.2q3.03 4.19 9.33 4.19m44.28-38.26.73 5.62q2.33-4.46 5.53-7.01 3.2-2.54 7.57-2.54 3.44 0 5.53 1.5l-.78 8.97q-.24.88-.7 1.24t-1.24.36q-.73 0-2.16-.24t-2.79-.24q-1.99 0-3.54.58t-2.79 1.67q-1.23 1.1-2.18 2.65-.94 1.55-1.77 3.54v30.65h-11.98v-49.76h7.03q1.85 0 2.57.65.73.66.97 2.36"/></svg>