<svg xmlns="http://www.w3.org/2000/svg" width="600" height="400" viewBox="0 0 600 400"><rect width="100%" height="100%" fill="#DC2626"/><path fill="#FFFFFF" d="M147.32 205.53q.55 0 .98.43l2.64 2.87q-2.19 2.73-5.41 4.18-3.21 1.45-7.71 1.45-4.03 0-7.24-1.38-3.21-1.37-5.48-3.82-2.28-2.45-3.49-5.85t-1.21-7.42q0-4.08 1.29-7.47 1.31-3.39 3.67-5.84t5.64-3.81q3.27-1.36 7.25-1.36 3.94 0 7.01 1.3 3.06 1.3 5.21 3.4l-2.25 3.12q-.2.3-.51.53-.31.22-.86.22-.38 0-.78-.21t-.88-.52q-.47-.32-1.09-.69-.63-.38-1.45-.69-.83-.31-1.92-.52-1.08-.22-2.51-.22-2.43 0-4.44.87-2.01.86-3.46 2.5-1.45 1.63-2.25 4-.8 2.36-.8 5.39 0 3.04.86 5.42.87 2.37 2.34 4 1.47 1.62 3.47 2.49 2 .86 4.31.86 1.37 0 2.48-.15 1.12-.15 2.05-.48.94-.32 1.78-.83.84-.52 1.66-1.27.25-.22.53-.36.27-.14.57-.14m13.45-28.62v14.25q1.5-1.4 3.3-2.28 1.8-.87 4.23-.87 2.1 0 3.72.71 1.63.71 2.71 2 1.09 1.29 1.65 3.08.57 1.78.57 3.94v16.32h-6.18v-16.32q0-2.36-1.07-3.64-1.08-1.29-3.28-1.29-1.6 0-3 .72-1.4.73-2.65 1.98v18.55h-6.17v-37.15zm35.58 30.52v-4.32q-2.68.12-4.5.46-1.83.34-2.93.86-1.1.53-1.57 1.23-.48.7-.48 1.52 0 1.63.96 2.33.97.7 2.52.7 1.9 0 3.28-.69 1.39-.69 2.72-2.09m-13.05-13.47-1.1-1.98q4.42-4.05 10.65-4.05 2.25 0 4.02.74 1.78.74 3 2.05 1.23 1.31 1.86 3.14.64 1.82.64 4v16.2h-2.8q-.87 0-1.35-.26-.47-.27-.75-1.07l-.55-1.85q-.97.88-1.9 1.54-.92.66-1.92 1.11t-2.14.69-2.51.24q-1.63 0-3-.44-1.38-.44-2.38-1.31-1-.88-1.55-2.18t-.55-3.02q0-.98.33-1.94.32-.96 1.06-1.84.74-.87 1.91-1.65 1.18-.77 2.89-1.35 1.71-.57 3.99-.93 2.27-.37 5.2-.44v-1.5q0-2.58-1.1-3.81-1.1-1.24-3.18-1.24-1.5 0-2.49.35-.98.35-1.73.79-.75.43-1.37.78-.61.35-1.36.35-.65 0-1.1-.33-.45-.34-.72-.79m24.95-17.05h6.17v37.15h-6.17zm12.42 0h6.18v37.15h-6.18zm17.23 21.37h11.65q0-1.2-.34-2.26t-1.01-1.86q-.68-.8-1.72-1.26-1.03-.47-2.41-.47-2.67 0-4.21 1.53t-1.96 4.32m15.75 3.73h-15.88q.15 1.97.7 3.41t1.45 2.38q.9.93 2.14 1.4 1.24.46 2.74.46t2.58-.35q1.09-.35 1.9-.78.82-.42 1.43-.77t1.19-.35q.77 0 1.15.57l1.77 2.25q-1.02 1.2-2.3 2.02-1.27.81-2.66 1.3-1.39.48-2.83.69-1.43.2-2.78.2-2.68 0-4.98-.89t-4-2.63-2.67-4.3q-.98-2.56-.98-5.94 0-2.62.85-4.93.85-2.32 2.44-4.03t3.87-2.71q2.29-1 5.17-1 2.42 0 4.47.77 2.05.78 3.53 2.27 1.47 1.48 2.31 3.65.84 2.16.84 4.93 0 1.4-.3 1.89t-1.15.49m11.42-12.48.43 2.03q.77-.78 1.63-1.44.87-.66 1.83-1.12.96-.47 2.06-.73t2.4-.26q2.1 0 3.73.71 1.62.71 2.71 2t1.65 3.08q.56 1.78.56 3.94v16.32h-6.17v-16.32q0-2.36-1.08-3.64-1.07-1.29-3.27-1.29-1.6 0-3 .72-1.4.73-2.65 1.98v18.55h-6.18v-25.65h3.78q1.2 0 1.57 1.12m32.23 11.08q1.15 0 2-.31.85-.32 1.41-.87t.85-1.32q.29-.78.29-1.7 0-1.9-1.14-3.01-1.14-1.12-3.41-1.12-2.28 0-3.42 1.12-1.13 1.11-1.13 3.01 0 .9.28 1.67.29.78.85 1.34.57.56 1.43.88.86.31 1.99.31m6.97 14.6q0-.75-.45-1.23-.45-.47-1.22-.73-.78-.26-1.82-.39-1.03-.13-2.2-.19-1.16-.06-2.4-.11-1.23-.05-2.41-.2-1.02.57-1.66 1.35t-.64 1.8q0 .68.34 1.26.34.59 1.07 1.02.74.42 1.92.66 1.17.24 2.87.24 1.73 0 2.98-.27 1.25-.26 2.06-.72t1.19-1.1q.37-.64.37-1.39m-1.22-25.93h7.37v2.3q0 1.1-1.32 1.35l-2.3.43q.52 1.32.52 2.9 0 1.9-.76 3.44-.76 1.53-2.11 2.61-1.35 1.07-3.19 1.66t-3.96.59q-.75 0-1.45-.08-.7-.07-1.38-.2-1.2.73-1.2 1.63 0 .77.71 1.14.72.36 1.89.51 1.18.15 2.68.19 1.5.03 3.07.16 1.58.12 3.08.44 1.5.31 2.67.98 1.18.68 1.89 1.84t.71 2.99q0 1.7-.84 3.3-.83 1.6-2.42 2.85t-3.9 2.01q-2.31.77-5.26.77-2.9 0-5.05-.57-2.15-.56-3.58-1.5-1.42-.93-2.12-2.16-.7-1.22-.7-2.55 0-1.8 1.08-3.01 1.09-1.22 2.99-1.94-1.02-.53-1.62-1.4-.6-.88-.6-2.3 0-.58.21-1.19t.62-1.21q.42-.6 1.04-1.14.63-.54 1.48-.96-1.95-1.05-3.07-2.8-1.11-1.75-1.11-4.1 0-1.9.76-3.44.77-1.54 2.13-2.62 1.36-1.09 3.22-1.67 1.87-.57 4.07-.57 1.65 0 3.1.34 1.45.33 2.65.98m16.15 9h11.65q0-1.2-.34-2.26t-1.01-1.86q-.68-.8-1.72-1.26-1.03-.47-2.41-.47-2.67 0-4.21 1.53t-1.96 4.32m15.75 3.73h-15.88q.15 1.97.7 3.41t1.45 2.38q.9.93 2.14 1.4 1.24.46 2.74.46t2.58-.35q1.09-.35 1.9-.78.82-.42 1.43-.77t1.19-.35q.77 0 1.15.57l1.77 2.25q-1.02 1.2-2.3 2.02-1.27.81-2.66 1.3-1.39.48-2.83.69-1.43.2-2.78.2-2.68 0-4.98-.89t-4-2.63-2.67-4.3q-.98-2.56-.98-5.94 0-2.62.85-4.93.85-2.32 2.44-4.03t3.87-2.71q2.29-1 5.17-1 2.42 0 4.47.77 2.05.78 3.53 2.27 1.47 1.48 2.31 3.65.84 2.16.84 4.93 0 1.4-.3 1.89t-1.15.49m53.32-24.1h5.08v36.15h-5.93v-23.35q0-1.4.15-3.03l-10.92 20.53q-.78 1.47-2.38 1.47h-.95q-1.6 0-2.37-1.47l-11.05-20.6q.07.82.12 1.62t.05 1.48v23.35h-5.92v-36.15h5.07q.45 0 .78.02.32.03.58.13.27.1.48.32.21.23.41.6l10.83 20.08q.42.8.78 1.65.37.85.72 1.75.35-.93.72-1.79.38-.86.8-1.66L386 178.98q.2-.37.42-.6.23-.22.49-.32t.59-.13q.32-.02.77-.02m23.5 10.1q2.85 0 5.19.92 2.34.93 4 2.63t2.56 4.15.9 5.47q0 3.05-.9 5.5t-2.56 4.18q-1.66 1.72-4 2.65t-5.19.93q-2.87 0-5.22-.93t-4.02-2.65q-1.66-1.73-2.57-4.18t-.91-5.5q0-3.02.91-5.47t2.57-4.15q1.67-1.7 4.02-2.63 2.35-.92 5.22-.92m0 21.67q3.2 0 4.74-2.15t1.54-6.3-1.54-6.32q-1.54-2.18-4.74-2.18-3.25 0-4.81 2.19t-1.56 6.31q0 4.13 1.56 6.29t4.81 2.16m33.48-3.22v-11.5q-1.05-1.28-2.29-1.8-1.24-.53-2.66-.53-1.4 0-2.53.53-1.12.52-1.92 1.59-.8 1.06-1.23 2.7-.42 1.63-.42 3.86 0 2.25.36 3.81t1.04 2.55q.67.99 1.65 1.43.97.43 2.17.43 1.93 0 3.28-.8t2.55-2.27m0-29.55h6.17v37.15h-3.77q-1.23 0-1.55-1.13l-.53-2.47q-1.55 1.77-3.56 2.87-2.01 1.11-4.69 1.11-2.1 0-3.85-.88t-3.01-2.54-1.95-4.11-.69-5.6q0-2.85.78-5.3.77-2.45 2.22-4.25t3.48-2.81q2.02-1.02 4.55-1.02 2.15 0 3.67.68 1.53.67 2.73 1.82zm17.15 21.37h11.65q0-1.2-.34-2.26t-1.01-1.86q-.68-.8-1.72-1.26-1.03-.47-2.41-.47-2.67 0-4.21 1.53t-1.96 4.32m15.75 3.73h-15.88q.15 1.97.7 3.41t1.45 2.38q.9.93 2.14 1.4 1.24.46 2.74.46t2.58-.35q1.09-.35 1.9-.78.82-.42 1.43-.77t1.19-.35q.77 0 1.15.57l1.77 2.25q-1.02 1.2-2.3 2.02-1.27.81-2.66 1.3-1.39.48-2.83.69-1.43.2-2.78.2-2.68 0-4.98-.89t-4-2.63-2.67-4.3q-.98-2.56-.98-5.94 0-2.62.85-4.93.85-2.32 2.44-4.03t3.87-2.71q2.29-1 5.17-1 2.42 0 4.47.77 2.05.78 3.53 2.27 1.47 1.48 2.31 3.65.84 2.16.84 4.93 0 1.4-.3 1.89t-1.15.49"/></svg>