<svg xmlns="http://www.w3.org/2000/svg" width="600" height="400" viewBox="0 0 600 400"><rect width="100%" height="100%" fill="#4A5568"/><path fill="#FFFFFF" d="M170.58 217.92q1 0 1.77.78l4.83 5.23q-4.01 4.96-9.86 7.6-5.84 2.64-14.03 2.64-7.33 0-13.17-2.5-5.85-2.51-9.99-6.97t-6.35-10.64q-2.21-6.19-2.21-13.52 0-7.41 2.37-13.58 2.37-6.16 6.67-10.62t10.26-6.94 13.19-2.48q7.19 0 12.76 2.36 5.58 2.37 9.49 6.19l-4.09 5.69q-.37.55-.94.96t-1.57.41q-.68 0-1.41-.39t-1.59-.96-2-1.25-2.64-1.25-3.48-.95q-1.98-.39-4.57-.39-4.42 0-8.08 1.57t-6.3 4.55-4.1 7.28q-1.45 4.3-1.45 9.8 0 5.55 1.57 9.88 1.57 4.32 4.25 7.28 2.69 2.95 6.33 4.52t7.82 1.57q2.5 0 4.53-.27 2.02-.27 3.73-.86 1.71-.6 3.23-1.53t3.03-2.3q.45-.4.95-.66.5-.25 1.05-.25m37.9 3.46v-7.87q-4.87.23-8.19.84-3.32.62-5.32 1.57-2.01.96-2.87 2.23-.87 1.28-.87 2.78 0 2.96 1.76 4.23 1.75 1.27 4.57 1.27 3.46 0 5.98-1.25 2.53-1.25 4.94-3.8m-23.75-24.52-2-3.6q8.05-7.37 19.38-7.37 4.09 0 7.32 1.34 3.24 1.35 5.46 3.74 2.23 2.38 3.39 5.71 1.16 3.32 1.16 7.28v29.48h-5.09q-1.59 0-2.46-.48-.86-.48-1.36-1.93l-1-3.37q-1.78 1.59-3.46 2.8-1.69 1.21-3.51 2.02-1.82.82-3.89 1.26-2.07.43-4.57.43-2.96 0-5.46-.8-2.5-.79-4.32-2.39-1.82-1.59-2.82-3.96-1-2.36-1-5.5 0-1.78.59-3.53t1.93-3.34 3.48-3 5.26-2.46q3.11-1.05 7.26-1.71 4.14-.66 9.46-.79v-2.73q0-4.69-2-6.94t-5.78-2.25q-2.73 0-4.53.63-1.8.64-3.16 1.44l-2.48 1.43q-1.12.64-2.48.64-1.18 0-2-.62-.82-.61-1.32-1.43m45.41-31.03h11.24v67.61h-11.24zm31.35 38.9h21.2q0-2.18-.61-4.12-.62-1.93-1.85-3.39-1.23-1.45-3.11-2.3-1.89-.84-4.39-.84-4.87 0-7.67 2.78-2.8 2.77-3.57 7.87m28.66 6.78h-28.89q.27 3.59 1.27 6.21t2.64 4.32q1.64 1.71 3.89 2.55t4.98.84 4.71-.63q1.98-.64 3.46-1.42 1.48-.77 2.6-1.41 1.11-.63 2.16-.63 1.41 0 2.09 1.04l3.23 4.1q-1.87 2.18-4.19 3.66t-4.84 2.37q-2.53.88-5.14 1.25-2.62.36-5.08.36-4.86 0-9.05-1.61-4.19-1.62-7.28-4.78t-4.87-7.83q-1.77-4.66-1.77-10.8 0-4.78 1.54-8.99 1.55-4.21 4.44-7.32 2.89-3.12 7.05-4.94 4.17-1.82 9.4-1.82 4.41 0 8.14 1.41t6.42 4.12q2.68 2.7 4.21 6.64 1.52 3.94 1.52 8.99 0 2.54-.55 3.43-.54.89-2.09.89m20.8-22.71.77 3.69q1.41-1.41 2.98-2.62 1.57-1.2 3.32-2.04 1.75-.85 3.75-1.32 2.01-.48 4.37-.48 3.82 0 6.78 1.3 2.96 1.29 4.94 3.64 1.98 2.34 3 5.59 1.03 3.26 1.03 7.17v29.71h-11.24v-29.71q0-4.28-1.96-6.62t-5.96-2.34q-2.91 0-5.46 1.31-2.55 1.32-4.82 3.6v33.76h-11.24v-46.68h6.87q2.18 0 2.87 2.04m70.88 30.81v-20.93q-1.91-2.32-4.16-3.28-2.25-.95-4.84-.95-2.55 0-4.6.95-2.05.96-3.5 2.89-1.46 1.94-2.23 4.92-.78 2.98-.78 7.03 0 4.09.66 6.93.66 2.85 1.89 4.64 1.23 1.8 3 2.6 1.78.79 3.96.79 3.51 0 5.96-1.45 2.46-1.46 4.64-4.14m0-53.78h11.24v67.61h-6.87q-2.23 0-2.82-2.05l-.95-4.5q-2.83 3.23-6.49 5.23t-8.53 2q-3.82 0-7.01-1.59-3.18-1.59-5.48-4.62-2.3-3.02-3.55-7.48t-1.25-10.19q0-5.19 1.41-9.65t4.05-7.74q2.64-3.27 6.33-5.11 3.68-1.85 8.28-1.85 3.91 0 6.68 1.23 2.78 1.23 4.96 3.32zm47.01 55.55v-7.87q-4.87.23-8.19.84-3.33.62-5.33 1.57-2 .96-2.86 2.23-.87 1.28-.87 2.78 0 2.96 1.75 4.23t4.58 1.27q3.45 0 5.98-1.25 2.52-1.25 4.94-3.8m-23.76-24.52-2-3.6q8.06-7.37 19.39-7.37 4.09 0 7.32 1.34 3.23 1.35 5.46 3.74 2.23 2.38 3.39 5.71 1.16 3.32 1.16 7.28v29.48h-5.09q-1.6 0-2.46-.48-.87-.48-1.37-1.93l-1-3.37q-1.77 1.59-3.46 2.8-1.68 1.21-3.5 2.02-1.82.82-3.89 1.26-2.07.43-4.57.43-2.96 0-5.46-.8-2.5-.79-4.32-2.39-1.82-1.59-2.83-3.96-1-2.36-1-5.5 0-1.78.59-3.53.6-1.75 1.94-3.34t3.48-3 5.25-2.46q3.12-1.05 7.26-1.71t9.47-.79v-2.73q0-4.69-2.01-6.94-2-2.25-5.77-2.25-2.73 0-4.53.63-1.8.64-3.16 1.44l-2.48 1.43q-1.12.64-2.48.64-1.19 0-2.01-.62-.81-.61-1.32-1.43m55.2-7.28.68 5.28q2.18-4.19 5.19-6.58 3-2.39 7.09-2.39 3.23 0 5.19 1.41l-.73 8.42q-.22.82-.66 1.16-.43.34-1.16.34-.68 0-2.02-.23-1.34-.22-2.62-.22-1.86 0-3.32.54-1.46.55-2.62 1.57-1.16 1.03-2.04 2.48-.89 1.46-1.66 3.32v28.76h-11.24v-46.68h6.59q1.73 0 2.42.61.68.62.91 2.21"/></svg>