<svg xmlns="http://www.w3.org/2000/svg" width="150" height="150" viewBox="0 0 150 150"><rect width="100%" height="100%" fill="#DC2626"/><path fill="#FFFFFF" d="M64.03 82.705q.68 0 1.21.53l3.28 3.56q-2.72 3.38-6.71 5.18-3.98 1.8-9.56 1.8-4.99 0-8.97-1.71-3.99-1.7-6.81-4.74t-4.32-7.26q-1.51-4.21-1.51-9.2 0-5.06 1.61-9.26 1.62-4.2 4.55-7.24 2.93-3.03 6.99-4.72t8.99-1.69q4.89 0 8.69 1.61t6.47 4.22l-2.79 3.87q-.25.37-.64.65t-1.07.28q-.46 0-.96-.26-.5-.27-1.09-.65-.58-.39-1.36-.86-.77-.46-1.8-.85-1.02-.39-2.37-.65t-3.11-.26q-3.01 0-5.51 1.07-2.49 1.07-4.29 3.1t-2.79 4.96-.99 6.68q0 3.78 1.07 6.72 1.07 2.95 2.9 4.96 1.82 2.02 4.3 3.09t5.34 1.07q1.7 0 3.08-.19 1.38-.18 2.54-.59 1.17-.4 2.2-1.04 1.04-.63 2.07-1.56.31-.28.65-.45t.71-.17m16.12-11.84q0 3.69.99 6.62.99 2.92 2.84 4.96 1.84 2.03 4.46 3.11 2.62 1.09 5.91 1.09 3.28 0 5.9-1.09 2.62-1.08 4.45-3.11 1.83-2.04 2.82-4.96.99-2.93.99-6.62t-.99-6.62-2.82-4.98q-1.83-2.04-4.45-3.13-2.62-1.08-5.9-1.08-3.29 0-5.91 1.08-2.62 1.09-4.46 3.13-1.85 2.05-2.84 4.98t-.99 6.62m27.84 18.78 11.37 12.4h-6.88q-1.49 0-2.68-.4t-2.18-1.49l-6.58-7.25q-1.58.43-3.24.65-1.65.22-3.45.22-5.09 0-9.27-1.72-4.19-1.72-7.18-4.79t-4.63-7.27q-1.65-4.2-1.65-9.13t1.65-9.13q1.64-4.2 4.63-7.27t7.18-4.79q4.18-1.72 9.27-1.72 3.41 0 6.41.79 3.01.79 5.52 2.23t4.51 3.5q2 2.07 3.4 4.61 1.39 2.54 2.12 5.51.73 2.98.73 6.27 0 3-.62 5.75-.62 2.74-1.78 5.13-1.17 2.39-2.84 4.38-1.67 2-3.81 3.52"/></svg>