<svg xmlns="http://www.w3.org/2000/svg" width="600" height="400" viewBox="0 0 600 400"><rect width="100%" height="100%" fill="#2D3748"/><path fill="#FFFFFF" d="M129.92 200.45h5.62q2.08 0 3.62-.52t2.56-1.48q1.02-.97 1.52-2.36.51-1.38.51-3.09 0-1.62-.51-2.94-.5-1.32-1.51-2.24t-2.55-1.41-3.64-.49h-5.62zm-7.54-20.36h13.16q4.06 0 7.03.95 2.97.96 4.9 2.66 1.93 1.71 2.87 4.09t.94 5.21q0 2.94-.98 5.39t-2.94 4.21q-1.96 1.77-4.91 2.75-2.96.98-6.91.98h-5.62v14.25h-7.54zm33.66-1.12h6.92v41.61h-6.92zm29.01 34.19v-4.84q-3 .14-5.04.51-2.05.38-3.28.97t-1.76 1.37q-.53.79-.53 1.71 0 1.82 1.07 2.6 1.08.79 2.82.79 2.13 0 3.68-.77t3.04-2.34m-14.62-15.09-1.23-2.21q4.96-4.54 11.93-4.54 2.52 0 4.51.83 1.98.82 3.36 2.29 1.37 1.47 2.08 3.52.72 2.04.72 4.48v18.14h-3.14q-.98 0-1.51-.29-.53-.3-.84-1.19l-.62-2.08q-1.09.98-2.13 1.73-1.03.74-2.15 1.24-1.12.51-2.4.77-1.27.27-2.81.27-1.82 0-3.36-.49t-2.66-1.47-1.74-2.44q-.61-1.45-.61-3.39 0-1.09.36-2.17.37-1.07 1.19-2.05.83-.98 2.14-1.85 1.32-.87 3.24-1.51 1.92-.65 4.46-1.05 2.55-.41 5.83-.49v-1.68q0-2.89-1.23-4.27-1.24-1.39-3.56-1.39-1.68 0-2.79.39-1.1.39-1.94.88t-1.53.89q-.68.39-1.52.39-.73 0-1.24-.38-.5-.38-.81-.88m33.85-4.96.48 2.27q.87-.87 1.83-1.61.97-.74 2.05-1.26t2.31-.81q1.23-.3 2.69-.3 2.35 0 4.17.8t3.04 2.24q1.21 1.44 1.84 3.45.63 2 .63 4.41v18.28h-6.91V202.3q0-2.64-1.21-4.08-1.2-1.44-3.66-1.44-1.8 0-3.36.81-1.57.81-2.97 2.21v20.78h-6.92v-28.73h4.23q1.34 0 1.76 1.26m31.06 9.8h13.04q0-1.34-.37-2.53-.38-1.19-1.14-2.09-.75-.89-1.92-1.41-1.16-.52-2.7-.52-2.99 0-4.72 1.71-1.72 1.71-2.19 4.84m17.64 4.17H235.2q.16 2.22.78 3.83t1.62 2.66q1.01 1.05 2.4 1.56 1.38.52 3.06.52t2.9-.39 2.13-.87q.91-.47 1.6-.87.68-.39 1.33-.39.86 0 1.28.65l1.99 2.52q-1.15 1.34-2.57 2.25-1.43.91-2.99 1.46-1.55.54-3.16.77-1.61.22-3.12.22-3 0-5.57-.99-2.58-1-4.48-2.94-1.91-1.95-3-4.82t-1.09-6.65q0-2.94.95-5.53t2.73-4.51 4.34-3.04 5.78-1.12q2.72 0 5.01.87 2.3.87 3.95 2.54 1.65 1.66 2.59 4.08.94 2.43.94 5.53 0 1.57-.34 2.12-.33.54-1.28.54m16.38 13.95q-3.76 0-5.76-2.12-2-2.11-2-5.83v-16.05h-2.94q-.56 0-.95-.36-.39-.37-.39-1.09v-2.75l4.62-.75 1.45-7.84q.14-.56.53-.87.4-.31 1.01-.31h3.59v9.04h7.67v4.93h-7.67v15.57q0 1.34.65 2.1.66.76 1.81.76.64 0 1.08-.16.43-.15.75-.32.33-.17.58-.32.25-.16.5-.16.31 0 .51.16.19.15.42.46l2.07 3.36q-1.51 1.26-3.47 1.9-1.96.65-4.06.65m49.39-37.13-1.88 3.56q-.33.58-.71.85t-.94.27q-.59 0-1.27-.44-.69-.43-1.64-.96-.95-.54-2.23-.97-1.27-.43-3.01-.43-1.57 0-2.74.37-1.18.38-1.98 1.05-.79.68-1.19 1.61-.39.94-.39 2.06 0 1.43.8 2.38t2.11 1.63q1.32.67 3 1.2t3.44 1.13q1.77.61 3.45 1.4 1.68.8 2.99 2.02 1.32 1.22 2.12 2.98.8 1.77.8 4.29 0 2.74-.94 5.13-.94 2.4-2.75 4.18-1.8 1.77-4.41 2.8-2.6 1.02-5.96 1.02-1.93 0-3.81-.38-1.87-.38-3.6-1.08-1.72-.7-3.23-1.68t-2.69-2.18l2.21-3.61q.28-.4.73-.66.45-.27.95-.27.7 0 1.52.58.81.57 1.93 1.27t2.62 1.27q1.49.58 3.59.58 3.22 0 4.99-1.53 1.76-1.52 1.76-4.38 0-1.6-.8-2.6-.79-1.01-2.11-1.7-1.32-.68-3-1.16t-3.41-1.04q-1.74-.56-3.42-1.34t-2.99-2.04q-1.32-1.26-2.12-3.15t-.8-4.67q0-2.21.89-4.31.88-2.1 2.56-3.72 1.68-1.63 4.14-2.61 2.47-.98 5.66-.98 3.58 0 6.61 1.12 3.02 1.12 5.15 3.14m24.02 7.95h6.92v28.73h-4.23q-1.37 0-1.74-1.26l-.47-2.3q-1.77 1.8-3.89 2.9-2.13 1.11-5.02 1.11-2.35 0-4.15-.8-1.81-.8-3.04-2.25-1.23-1.46-1.86-3.46t-.63-4.41v-18.26h6.91v18.26q0 2.63 1.22 4.07t3.65 1.44q1.8 0 3.36-.79 1.57-.8 2.97-2.2zm19.85 1.74.42 3.25q1.35-2.58 3.2-4.05 1.84-1.47 4.36-1.47 1.99 0 3.2.87l-.45 5.18q-.14.5-.41.71-.26.21-.71.21-.42 0-1.25-.14-.82-.14-1.61-.14-1.15 0-2.04.34-.9.33-1.61.96-.72.63-1.26 1.53-.55.9-1.02 2.04v17.7h-6.92v-28.73h4.06q1.06 0 1.48.38t.56 1.36m23.72 26.99h-6.92v-23.52l-2.49-.39q-.81-.17-1.3-.58-.49-.4-.49-1.16v-2.83h4.28v-2.12q0-2.47.75-4.43.74-1.96 2.12-3.33 1.39-1.37 3.38-2.1t4.48-.73q1.99 0 3.69.53l-.14 3.48q-.02.39-.22.63-.2.23-.52.36t-.74.17-.9.04q-1.23 0-2.19.27-.97.26-1.64.92t-1.02 1.74q-.35 1.07-.35 2.67v1.9h7.47v4.93h-7.25zm26.32-7.42v-4.84q-3 .14-5.04.51-2.04.38-3.28.97-1.23.59-1.76 1.37-.53.79-.53 1.71 0 1.82 1.08 2.6 1.07.79 2.81.79 2.13 0 3.68-.77 1.56-.77 3.04-2.34m-14.62-15.09-1.23-2.21q4.96-4.54 11.93-4.54 2.52 0 4.51.83 1.99.82 3.36 2.29t2.08 3.52q.72 2.04.72 4.48v18.14h-3.14q-.98 0-1.51-.29-.53-.3-.84-1.19l-.62-2.08q-1.09.98-2.12 1.73-1.04.74-2.16 1.24-1.12.51-2.39.77-1.28.27-2.82.27-1.82 0-3.36-.49t-2.66-1.47-1.73-2.44q-.62-1.45-.62-3.39 0-1.09.36-2.17.37-1.07 1.19-2.05.83-.98 2.15-1.85 1.31-.87 3.23-1.51 1.92-.65 4.47-1.05 2.54-.41 5.82-.49v-1.68q0-2.89-1.23-4.27-1.23-1.39-3.56-1.39-1.68 0-2.78.39-1.11.39-1.95.88t-1.53.89q-.68.39-1.52.39-.73 0-1.23-.38-.51-.38-.82-.88m50.26-2.66-1.82 2.52q-.3.39-.6.61-.29.23-.85.23-.53 0-1.04-.32-.5-.33-1.2-.73-.7-.41-1.67-.73-.96-.32-2.39-.32-1.82 0-3.19.66-1.38.65-2.29 1.89-.91 1.23-1.35 2.98-.45 1.75-.45 3.96 0 2.3.49 4.09t1.41 3.01q.93 1.22 2.24 1.85 1.32.63 2.97.63t2.67-.41q1.03-.41 1.73-.9t1.21-.89q.52-.41 1.17-.41.84 0 1.26.65l1.98 2.52q-1.14 1.34-2.49 2.25-1.34.91-2.78 1.46-1.45.54-2.97.77-1.53.22-3.04.22-2.66 0-5.01-.99-2.35-1-4.12-2.9-1.76-1.91-2.78-4.66-1.03-2.76-1.03-6.29 0-3.16.91-5.87.91-2.7 2.68-4.67 1.76-1.98 4.37-3.1 2.6-1.12 5.99-1.12 3.22 0 5.64 1.04t4.35 2.97m10.06 7.5h13.04q0-1.34-.37-2.53-.38-1.19-1.14-2.09-.75-.89-1.92-1.41-1.16-.52-2.7-.52-2.99 0-4.72 1.71-1.72 1.71-2.19 4.84m17.64 4.17h-17.78q.16 2.22.78 3.83t1.62 2.66q1.01 1.05 2.4 1.56 1.38.52 3.06.52t2.9-.39 2.13-.87q.91-.47 1.6-.87.68-.39 1.33-.39.86 0 1.28.65l1.99 2.52q-1.15 1.34-2.57 2.25-1.43.91-2.99 1.46-1.55.54-3.16.77-1.61.22-3.12.22-3 0-5.57-.99-2.58-1-4.48-2.94-1.91-1.95-3-4.82t-1.09-6.65q0-2.94.95-5.53t2.73-4.51 4.34-3.04 5.78-1.12q2.72 0 5.01.87 2.3.87 3.95 2.54 1.65 1.66 2.59 4.08.94 2.43.94 5.53 0 1.57-.34 2.12-.33.54-1.28.54"/></svg>