<svg xmlns="http://www.w3.org/2000/svg" width="600" height="400" viewBox="0 0 600 400"><rect width="100%" height="100%" fill="#1A202C"/><path fill="#FFFFFF" d="M207.74 230.535q1.7 0 3.02 1.32l8.22 8.91q-6.82 8.45-16.78 12.95-9.96 4.49-23.91 4.49-12.48 0-22.44-4.26-9.96-4.27-17.01-11.86-7.05-7.6-10.81-18.14-3.76-10.53-3.76-23.01 0-12.64 4.03-23.14t11.35-18.09q7.33-7.6 17.48-11.82t22.48-4.22q12.24 0 21.74 4.02 9.49 4.03 16.15 10.55l-6.97 9.68q-.62.93-1.59 1.63t-2.67.7q-1.17 0-2.41-.66t-2.71-1.63-3.41-2.13-4.49-2.13q-2.56-.97-5.93-1.63t-7.79-.66q-7.52 0-13.76 2.68-6.24 2.67-10.73 7.75-4.5 5.07-6.98 12.4-2.48 7.32-2.48 16.7 0 9.45 2.68 16.82 2.67 7.36 7.24 12.39 4.58 5.04 10.78 7.72 6.2 2.67 13.33 2.67 4.26 0 7.71-.46 3.45-.47 6.35-1.48 2.91-1.01 5.51-2.59 2.59-1.59 5.15-3.92.77-.69 1.63-1.12.85-.43 1.78-.43m57.74-54.32q8.83 0 16.08 2.86 7.24 2.87 12.4 8.14 5.15 5.27 7.94 12.87 2.79 7.59 2.79 16.97 0 9.45-2.79 17.05-2.79 7.59-7.94 12.94-5.16 5.35-12.4 8.21-7.25 2.87-16.08 2.87-8.92 0-16.2-2.87-7.29-2.86-12.44-8.21t-7.98-12.94q-2.83-7.6-2.83-17.05 0-9.38 2.83-16.97 2.83-7.6 7.98-12.87t12.44-8.14q7.28-2.86 16.2-2.86m0 67.19q9.92 0 14.68-6.67 4.77-6.66 4.77-19.53 0-12.86-4.77-19.61-4.76-6.74-14.68-6.74-10.08 0-14.92 6.78-4.85 6.78-4.85 19.57t4.85 19.49q4.84 6.71 14.92 6.71m103.77-10v-35.65q-3.26-3.95-7.09-5.58-3.84-1.63-8.26-1.63-4.34 0-7.82 1.63-3.49 1.63-5.97 4.92t-3.8 8.37-1.32 11.98q0 6.97 1.13 11.81 1.12 4.85 3.21 7.91 2.1 3.06 5.12 4.42 3.02 1.35 6.74 1.35 5.97 0 10.15-2.48 4.19-2.48 7.91-7.05m0-91.61h19.14v115.17h-11.7q-3.8 0-4.81-3.49l-1.62-7.67q-4.81 5.5-11.05 8.91t-14.53 3.41q-6.51 0-11.93-2.71-5.43-2.71-9.34-7.87-3.92-5.15-6.05-12.74-2.13-7.6-2.13-17.36 0-8.84 2.4-16.43 2.41-7.6 6.9-13.18 4.5-5.58 10.77-8.72 6.28-3.14 14.11-3.14 6.66 0 11.39 2.1 4.73 2.09 8.45 5.65zm53.16 66.27h36.12q0-3.72-1.05-7.02-1.04-3.29-3.14-5.77-2.09-2.48-5.31-3.91-3.21-1.44-7.47-1.44-8.3 0-13.06 4.73-4.77 4.73-6.09 13.41m48.83 11.55h-49.21q.46 6.12 2.17 10.57 1.7 4.46 4.49 7.37 2.79 2.9 6.63 4.34 3.83 1.43 8.48 1.43t8.03-1.08q3.37-1.09 5.88-2.41 2.52-1.32 4.42-2.4t3.68-1.08q2.41 0 3.57 1.78l5.5 6.97q-3.18 3.72-7.13 6.24t-8.25 4.03-8.76 2.13-8.64.62q-8.29 0-15.42-2.75t-12.4-8.14q-5.27-5.38-8.3-13.33-3.02-7.94-3.02-18.4 0-8.14 2.64-15.31 2.63-7.17 7.55-12.48 4.92-5.3 12.02-8.41 7.09-3.09 16-3.09 7.52 0 13.87 2.4 6.36 2.4 10.93 7.01t7.17 11.32q2.59 6.7 2.59 15.3 0 4.34-.93 5.85-.93 1.52-3.56 1.52"/></svg>