<svg xmlns="http://www.w3.org/2000/svg" width="150" height="150" viewBox="0 0 150 150"><rect width="100%" height="100%" fill="#C53030"/><path fill="#FFFFFF" d="M42.985 73.85h5.55q2.5 0 4.37-.63 1.86-.63 3.07-1.73 1.2-1.11 1.8-2.63.59-1.52.59-3.33 0-3.63-2.39-5.58-2.39-1.94-7.31-1.94h-5.68zm16.44 7.39 11.94 17.62h-8.02q-2.27 0-3.3-1.78L50.015 81.8q-.56-.86-1.24-1.22-.67-.36-1.99-.36h-3.8v18.64h-8.87V51.14h14.55q4.85 0 8.33 1.01 3.48 1 5.71 2.82 2.23 1.81 3.28 4.34 1.06 2.52 1.06 5.56 0 2.41-.71 4.55-.71 2.15-2.05 3.9-1.33 1.75-3.3 3.07-1.96 1.32-4.47 2.08.86.49 1.59 1.17.72.67 1.32 1.6m40.62-6.31h15.84v19.31q-3.63 2.67-7.74 3.91t-8.79 1.24q-5.84 0-10.58-1.82-4.74-1.81-8.08-5.05-3.35-3.23-5.17-7.72-1.81-4.49-1.81-9.8 0-5.38 1.74-9.87 1.75-4.48 4.97-7.72 3.22-3.23 7.81-5.01 4.58-1.79 10.29-1.79 2.91 0 5.43.47 2.52.46 4.69 1.27 2.16.8 3.94 1.96 1.78 1.15 3.27 2.54l-2.54 4.03q-.6.95-1.56 1.17-.95.21-2.07-.48-1.09-.63-2.18-1.25-1.09-.63-2.43-1.09-1.33-.46-3-.76t-3.85-.3q-3.53 0-6.38 1.19-2.86 1.19-4.87 3.4t-3.1 5.31-1.09 6.93q0 4.09 1.17 7.31t3.3 5.45q2.13 2.22 5.13 3.39 3.01 1.18 6.7 1.18 2.64 0 4.72-.57 2.08-.56 4.06-1.51V81.6h-6.01q-.85 0-1.33-.48t-.48-1.17z"/></svg>