<svg xmlns="http://www.w3.org/2000/svg" width="150" height="150" viewBox="0 0 150 150"><rect width="100%" height="100%" fill="#2D3748"/><path fill="#FFFFFF" d="m65.915 54.745-2.32 4.39q-.41.72-.88 1.05-.46.33-1.15.33-.73 0-1.57-.54-.85-.53-2.02-1.19-1.17-.65-2.74-1.19-1.57-.53-3.71-.53-1.93 0-3.38.46-1.45.47-2.43 1.3-.99.82-1.47 1.98t-.48 2.54q0 1.75.98 2.93.98 1.17 2.6 2 1.63.83 3.7 1.48 2.07.66 4.24 1.4t4.24 1.72q2.07.99 3.69 2.49 1.63 1.5 2.61 3.67.98 2.18.98 5.28 0 3.38-1.15 6.33-1.16 2.95-3.38 5.14-2.23 2.19-5.44 3.45t-7.35 1.26q-2.38 0-4.69-.46-2.31-.47-4.43-1.33t-3.99-2.07q-1.86-1.21-3.31-2.69l2.73-4.45q.34-.49.89-.81.56-.33 1.18-.33.86 0 1.86.71 1 .7 2.38 1.56 1.38.87 3.23 1.57 1.84.71 4.43.71 3.97 0 6.14-1.88t2.17-5.4q0-1.96-.98-3.21-.98-1.24-2.6-2.08-1.63-.85-3.7-1.44-2.07-.58-4.2-1.27-2.14-.69-4.21-1.66-2.07-.96-3.7-2.52-1.62-1.55-2.6-3.88t-.98-5.74q0-2.73 1.08-5.31 1.09-2.59 3.16-4.59t5.11-3.21q3.03-1.21 6.97-1.21 4.41 0 8.14 1.38 3.72 1.38 6.35 3.86m42.84-4.69h8.18v49.89h-4.76q-1.1 0-1.85-.36-.74-.36-1.43-1.23l-26.04-33.26q.2 2.28.2 4.21v30.64h-8.17v-49.89h4.86q.59 0 1.02.05.43.06.76.21.32.16.64.45.31.29.69.78l26.15 33.39q-.11-1.2-.18-2.38-.07-1.17-.07-2.17z"/></svg>