<svg xmlns="http://www.w3.org/2000/svg" width="40" height="40" viewBox="0 0 40 40"><rect width="100%" height="100%" fill="#7C3AED"/><path fill="#FFFFFF" d="m18.9 14.13-.67 1.27q-.13.21-.26.3-.13.1-.33.1-.21 0-.46-.16-.25-.15-.58-.34-.34-.19-.8-.35-.45-.15-1.07-.15-.56 0-.98.14-.42.13-.71.37-.28.24-.42.57-.14.34-.14.74 0 .51.28.85.29.34.76.58t1.07.43 1.23.4q.63.22 1.23.51.6.28 1.07.71.47.44.75 1.07.29.63.29 1.53 0 .98-.34 1.84-.33.85-.98 1.48-.65.64-1.57 1-.93.37-2.13.37-.69 0-1.37-.13-.67-.14-1.28-.39t-1.15-.6-.96-.78l.79-1.29q.1-.14.26-.24.16-.09.34-.09.25 0 .54.2.29.21.69.46t.93.45q.54.21 1.29.21 1.15 0 1.78-.54.63-.55.63-1.57 0-.57-.29-.93-.28-.36-.75-.61-.47-.24-1.07-.41t-1.22-.37-1.22-.48-1.07-.73-.76-1.12q-.28-.68-.28-1.67 0-.79.31-1.54.32-.75.92-1.33.59-.58 1.48-.93.88-.35 2.02-.35 1.28 0 2.36.4t1.84 1.12m11.72.78H24.2v4.28h5.42v2.15H24.2v5.89h-2.7V12.77h9.12z"/></svg>