<svg xmlns="http://www.w3.org/2000/svg" width="600" height="400" viewBox="0 0 600 400"><rect width="100%" height="100%" fill="#2D3748"/><path fill="#FFFFFF" d="M156.625 171.73v7.07h-13.95V218h-8.61v-39.2h-13.95v-7.07zm11.81 15.42.48 3.71q1.53-2.94 3.64-4.62 2.12-1.68 5-1.68 2.27 0 3.64.99l-.51 5.92q-.16.58-.46.82-.31.24-.82.24-.48 0-1.42-.16-.95-.16-1.84-.16-1.31 0-2.34.38-1.02.39-1.84 1.11-.81.72-1.44 1.74-.62 1.02-1.17 2.34V218h-7.9v-32.83h4.64q1.22 0 1.7.43t.64 1.55m34.24 22.37v-5.54q-3.43.16-5.76.6-2.34.43-3.75 1.1t-2.01 1.57q-.61.89-.61 1.95 0 2.08 1.23 2.98 1.23.89 3.22.89 2.43 0 4.2-.88 1.78-.88 3.48-2.67m-16.71-17.25-1.41-2.53q5.67-5.18 13.64-5.18 2.88 0 5.15.94 2.27.95 3.84 2.63t2.38 4.01q.82 2.34.82 5.12V218h-3.59q-1.12 0-1.72-.34-.61-.33-.96-1.36l-.71-2.36q-1.25 1.12-2.43 1.96-1.18.85-2.46 1.43-1.28.57-2.74.88-1.46.3-3.22.3-2.08 0-3.84-.56t-3.04-1.68-1.98-2.78q-.7-1.67-.7-3.87 0-1.25.41-2.48.42-1.24 1.36-2.36.95-1.12 2.45-2.11t3.7-1.73q2.19-.73 5.1-1.2 2.91-.46 6.66-.56v-1.92q0-3.29-1.41-4.88-1.41-1.58-4.07-1.58-1.92 0-3.18.45t-2.22 1.01-1.75 1q-.78.45-1.74.45-.83 0-1.41-.43t-.93-1.01m52.45 16v-14.72q-1.34-1.63-2.93-2.3-1.58-.67-3.41-.67-1.79 0-3.23.67t-2.46 2.03q-1.03 1.36-1.57 3.46-.54 2.09-.54 4.94 0 2.88.46 4.88t1.33 3.26q.86 1.27 2.11 1.83t2.78.56q2.47 0 4.2-1.03 1.72-1.02 3.26-2.91m0-37.82h7.9V218h-4.83q-1.57 0-1.98-1.44l-.67-3.17q-1.99 2.27-4.56 3.68-2.58 1.41-6 1.41-2.69 0-4.93-1.12t-3.86-3.25q-1.61-2.13-2.49-5.26-.88-3.14-.88-7.17 0-3.65.99-6.78.99-3.14 2.85-5.44 1.85-2.31 4.44-3.6 2.6-1.3 5.83-1.3 2.75 0 4.7.86 1.95.87 3.49 2.34zm15.97 14.72h7.93V218h-7.93zm9.02-9.57q0 1.02-.41 1.92-.42.9-1.11 1.57t-1.61 1.07q-.93.4-1.99.4-1.02 0-1.93-.4-.92-.4-1.59-1.07t-1.07-1.57-.4-1.92q0-1.06.4-1.98.4-.93 1.07-1.6.67-.68 1.59-1.08.91-.4 1.93-.4 1.06 0 1.99.4.92.4 1.61 1.08.69.67 1.11 1.6.41.92.41 1.98m13.83 11.01.54 2.59q.99-.99 2.1-1.84 1.1-.85 2.33-1.44t2.64-.93q1.41-.33 3.07-.33 2.69 0 4.77.91t3.47 2.56q1.4 1.65 2.12 3.93.72 2.29.72 5.04V218h-7.91v-20.9q0-3-1.37-4.65-1.38-1.65-4.2-1.65-2.04 0-3.84.93-1.79.93-3.39 2.53V218h-7.9v-32.83h4.83q1.54 0 2.02 1.44m41.24 14.17q1.48 0 2.56-.4 1.09-.4 1.81-1.1t1.09-1.7q.37-.99.37-2.17 0-2.43-1.46-3.86-1.45-1.42-4.37-1.42-2.91 0-4.36 1.42-1.46 1.43-1.46 3.86 0 1.15.37 2.14t1.09 1.71 1.82 1.12 2.54.4m8.93 18.69q0-.96-.57-1.57-.58-.6-1.57-.94t-2.32-.5-2.82-.24-3.07-.14-3.09-.26q-1.31.74-2.13 1.73-.81.99-.81 2.31 0 .86.43 1.61t1.38 1.3q.94.54 2.44.85 1.51.3 3.68.3 2.21 0 3.81-.34 1.6-.33 2.64-.92 1.04-.6 1.52-1.41.48-.82.48-1.78m-1.57-33.18h9.44v2.94q0 1.41-1.69 1.73l-2.95.54q.68 1.7.68 3.72 0 2.43-.98 4.4-.98 1.96-2.7 3.34-1.73 1.38-4.08 2.13-2.36.75-5.08.75-.96 0-1.85-.1-.9-.09-1.76-.25-1.54.93-1.54 2.08 0 .99.91 1.45.92.47 2.42.66t3.42.24 3.94.21 3.94.56 3.42 1.26q1.5.87 2.42 2.35.91 1.49.91 3.83 0 2.17-1.07 4.22-1.08 2.05-3.11 3.65t-4.99 2.58q-2.96.97-6.74.97-3.71 0-6.46-.72t-4.58-1.92q-1.82-1.2-2.72-2.77-.89-1.56-.89-3.26 0-2.3 1.39-3.86 1.39-1.55 3.82-2.48-1.31-.67-2.08-1.79-.76-1.12-.76-2.94 0-.74.27-1.52.27-.79.8-1.55.53-.77 1.33-1.46t1.88-1.23q-2.49-1.35-3.92-3.59-1.42-2.24-1.42-5.24 0-2.44.98-4.4.97-1.97 2.72-3.36 1.74-1.4 4.12-2.13 2.39-.74 5.2-.74 2.12 0 3.97.43 1.86.44 3.39 1.27m39.84 8.7h6.44q2.36 0 4.12-.59t2.93-1.7q1.17-1.1 1.75-2.68.57-1.59.57-3.54 0-1.86-.57-3.36-.58-1.5-1.73-2.56t-2.91-1.62-4.16-.56h-6.44zm-8.6-23.26h15.04q4.64 0 8.03 1.09 3.39 1.08 5.6 3.04 2.21 1.95 3.28 4.67t1.07 5.95q0 3.36-1.12 6.16t-3.36 4.82q-2.24 2.01-5.62 3.13-3.37 1.12-7.88 1.12h-6.44V218h-8.6zm52.89 12.93q3.65 0 6.64 1.18t5.12 3.36 3.28 5.31q1.15 3.14 1.15 7.01 0 3.9-1.15 7.04t-3.28 5.34q-2.13 2.21-5.12 3.4-2.99 1.18-6.64 1.18-3.68 0-6.69-1.18-3-1.19-5.13-3.4-2.13-2.2-3.3-5.34t-1.17-7.04q0-3.87 1.17-7.01 1.17-3.13 3.3-5.31t5.13-3.36q3.01-1.18 6.69-1.18m0 27.74q4.1 0 6.07-2.75 1.96-2.75 1.96-8.07 0-5.31-1.96-8.09-1.97-2.79-6.07-2.79-4.16 0-6.16 2.8t-2 8.08 2 8.05 6.16 2.77m44.07-23.68-1.8 2.85q-.32.51-.67.72t-.89.21q-.58 0-1.24-.32-.65-.32-1.52-.72-.86-.4-1.96-.72-1.11-.32-2.61-.32-2.34 0-3.67.99-1.32.99-1.32 2.59 0 1.06.68 1.78.69.72 1.83 1.26 1.13.54 2.57.98 1.44.43 2.93.94t2.93 1.17q1.44.65 2.58 1.66 1.13 1.01 1.82 2.42t.69 3.39q0 2.37-.85 4.37t-2.51 3.45q-1.67 1.46-4.11 2.28-2.45.81-5.65.81-1.7 0-3.31-.3-1.62-.31-3.11-.85t-2.75-1.28-2.22-1.6l1.82-3.01q.35-.54.83-.83t1.22-.29q.73 0 1.39.42.66.41 1.52.89t2.03.9 2.96.42q1.41 0 2.42-.34t1.66-.88q.66-.54.96-1.26.31-.72.31-1.49 0-1.15-.69-1.89t-1.83-1.28q-1.13-.54-2.59-.98-1.45-.43-2.97-.94t-2.98-1.2-2.59-1.74q-1.14-1.06-1.83-2.6-.68-1.53-.68-3.71 0-2.01.8-3.84.8-1.82 2.35-3.18t3.87-2.18q2.32-.81 5.36-.81 3.39 0 6.18 1.12 2.78 1.12 4.64 2.94m17.24 29.79q-4.28 0-6.57-2.41-2.29-2.42-2.29-6.68v-18.33h-3.36q-.64 0-1.09-.42-.45-.41-.45-1.25v-3.13l5.28-.87 1.67-8.96q.16-.64.61-.99.44-.35 1.15-.35h4.09v10.34h8.77v5.63h-8.77v17.79q0 1.54.76 2.4.75.86 2.06.86.74 0 1.23-.17.5-.18.87-.37.36-.19.65-.37.29-.17.58-.17.35 0 .57.17.23.18.48.53l2.37 3.84q-1.73 1.44-3.97 2.18-2.24.73-4.64.73"/></svg>