<svg xmlns="http://www.w3.org/2000/svg" width="1200" height="400" viewBox="0 0 1200 400"><rect width="100%" height="100%" fill="#DC2626"/><path fill="#FFFFFF" d="M315.965 217.715q1.49 0 2.65 1.16l7.21 7.82q-5.99 7.41-14.72 11.35-8.74 3.95-20.98 3.95-10.95 0-19.69-3.74t-14.92-10.41q-6.19-6.66-9.49-15.91t-3.3-20.19q0-11.09 3.54-20.3 3.53-9.22 9.96-15.88t15.33-10.37q8.91-3.71 19.72-3.71 10.75 0 19.08 3.54t14.18 9.25l-6.12 8.5q-.55.81-1.4 1.43-.85.61-2.34.61-1.02 0-2.11-.58t-2.38-1.43-2.99-1.87-3.95-1.87q-2.24-.85-5.2-1.43-2.96-.57-6.83-.57-6.6 0-12.07 2.34-5.48 2.35-9.42 6.8-3.95 4.46-6.12 10.88-2.18 6.43-2.18 14.66 0 8.29 2.35 14.75 2.34 6.46 6.36 10.88 4.01 4.42 9.45 6.77 5.44 2.34 11.69 2.34 3.74 0 6.77-.4 3.03-.41 5.58-1.3 2.55-.88 4.82-2.27 2.28-1.4 4.53-3.44.68-.61 1.42-.98.75-.38 1.57-.38m50.66-47.67q7.75 0 14.11 2.52t10.88 7.14 6.97 11.29q2.45 6.66 2.45 14.89 0 8.3-2.45 14.96t-6.97 11.36q-4.52 4.69-10.88 7.2-6.36 2.52-14.11 2.52-7.82 0-14.21-2.52-6.4-2.51-10.92-7.2-4.52-4.7-7-11.36t-2.48-14.96q0-8.23 2.48-14.89 2.48-6.67 7-11.29t10.92-7.14q6.39-2.52 14.21-2.52m0 58.96q8.7 0 12.88-5.85 4.19-5.85 4.19-17.13 0-11.29-4.19-17.21-4.18-5.91-12.88-5.91-8.84 0-13.09 5.95t-4.25 17.17 4.25 17.1 13.09 5.88m91.05-8.77v-31.28q-2.86-3.47-6.22-4.9-3.37-1.43-7.24-1.43-3.81 0-6.87 1.43t-5.24 4.32q-2.17 2.89-3.33 7.34-1.16 4.46-1.16 10.51 0 6.12.99 10.37t2.82 6.94q1.84 2.68 4.49 3.87t5.92 1.19q5.23 0 8.9-2.17 3.68-2.18 6.94-6.19m0-80.38h16.8v101.05h-10.27q-3.33 0-4.22-3.06l-1.43-6.73q-4.21 4.83-9.69 7.82-5.47 2.99-12.75 2.99-5.71 0-10.47-2.38t-8.19-6.9q-3.44-4.52-5.31-11.19-1.87-6.66-1.87-15.23 0-7.75 2.11-14.42 2.11-6.66 6.05-11.56 3.95-4.89 9.46-7.65 5.5-2.75 12.37-2.75 5.85 0 10 1.84 4.15 1.83 7.41 4.96zm46.65 58.14h31.69q0-3.26-.92-6.15t-2.76-5.07q-1.83-2.17-4.65-3.43-2.83-1.26-6.57-1.26-7.27 0-11.45 4.15-4.19 4.15-5.34 11.76m42.84 10.13h-43.18q.41 5.38 1.9 9.29 1.5 3.91 3.95 6.46 2.44 2.55 5.81 3.8 3.37 1.26 7.45 1.26t7.03-.95q2.96-.95 5.17-2.11 2.21-1.15 3.88-2.11 1.66-.95 3.23-.95 2.11 0 3.13 1.57l4.82 6.12q-2.78 3.26-6.25 5.47t-7.24 3.54q-3.78 1.32-7.69 1.87-3.91.54-7.58.54-7.28 0-13.53-2.41-6.26-2.42-10.88-7.14-4.63-4.73-7.28-11.7t-2.65-16.15q0-7.14 2.31-13.43t6.63-10.95 10.54-7.38 14.04-2.72q6.6 0 12.18 2.11 5.57 2.11 9.58 6.16 4.02 4.04 6.29 9.92 2.28 5.89 2.28 13.43 0 3.81-.81 5.14-.82 1.32-3.13 1.32m65.14-16.38q0 8.09 2.18 14.51 2.17 6.43 6.22 10.88 4.05 4.46 9.79 6.84 5.75 2.38 12.96 2.38 7.2 0 12.95-2.38t9.76-6.84q4.01-4.45 6.19-10.88 2.17-6.42 2.17-14.51 0-8.1-2.17-14.52-2.18-6.43-6.19-10.92-4.01-4.48-9.76-6.86t-12.95-2.38q-7.21 0-12.96 2.38-5.74 2.38-9.79 6.86-4.05 4.49-6.22 10.92-2.18 6.42-2.18 14.52m61.07 41.2 24.95 27.2h-15.09q-3.27 0-5.89-.88-2.61-.88-4.79-3.26l-14.42-15.92q-3.46.96-7.1 1.43-3.64.48-7.58.48-11.16 0-20.34-3.78-9.18-3.77-15.74-10.5t-10.16-15.95q-3.61-9.21-3.61-20.02 0-10.82 3.61-20.03 3.6-9.21 10.16-15.95 6.56-6.73 15.74-10.5 9.18-3.78 20.34-3.78 7.48 0 14.07 1.74 6.6 1.73 12.11 4.89 5.5 3.17 9.89 7.69t7.45 10.1q3.06 5.57 4.65 12.1 1.6 6.53 1.6 13.74 0 6.59-1.36 12.61t-3.91 11.25q-2.55 5.24-6.22 9.63-3.67 4.38-8.36 7.71m76.56-61.81h16.8v69.77h-10.27q-3.33 0-4.21-3.06l-1.16-5.58q-4.28 4.36-9.45 7.04-5.17 2.69-12.17 2.69-5.72 0-10.1-1.94-4.39-1.94-7.38-5.47-2.99-3.54-4.52-8.4t-1.53-10.71v-44.34h16.79v44.34q0 6.39 2.96 9.89t8.88 3.5q4.35 0 8.16-1.93 3.8-1.94 7.2-5.34zm46.65 26.86h31.69q0-3.26-.92-6.15t-2.75-5.07q-1.84-2.17-4.66-3.43t-6.56-1.26q-7.28 0-11.46 4.15t-5.34 11.76m42.84 10.13h-43.18q.41 5.38 1.91 9.29 1.49 3.91 3.94 6.46t5.81 3.8q3.37 1.26 7.45 1.26t7.04-.95 5.17-2.11q2.21-1.15 3.87-2.11 1.67-.95 3.23-.95 2.11 0 3.13 1.57l4.83 6.12q-2.79 3.26-6.26 5.47t-7.24 3.54q-3.77 1.32-7.68 1.87-3.91.54-7.59.54-7.27 0-13.53-2.41-6.25-2.42-10.88-7.14-4.62-4.73-7.27-11.7-2.66-6.97-2.66-16.15 0-7.14 2.32-13.43 2.31-6.29 6.63-10.95 4.31-4.66 10.54-7.38 6.22-2.72 14.04-2.72 6.59 0 12.17 2.11t9.59 6.16q4.01 4.04 6.29 9.92 2.28 5.89 2.28 13.43 0 3.81-.82 5.14-.82 1.32-3.13 1.32m62.9-29.44-3.81 6.05q-.68 1.09-1.42 1.53-.75.44-1.91.44-1.22 0-2.62-.68-1.39-.68-3.23-1.53-1.83-.85-4.18-1.53-2.34-.68-5.54-.68-4.96 0-7.79 2.11-2.82 2.11-2.82 5.51 0 2.24 1.46 3.77 1.47 1.53 3.88 2.69t5.47 2.07q3.06.92 6.23 2.01 3.16 1.09 6.22 2.48 3.06 1.4 5.47 3.54 2.42 2.14 3.88 5.13t1.46 7.21q0 5.03-1.8 9.28t-5.34 7.35q-3.54 3.09-8.74 4.82-5.2 1.74-12 1.74-3.6 0-7.04-.65-3.43-.64-6.59-1.8-3.17-1.16-5.85-2.72-2.69-1.56-4.73-3.4l3.88-6.39q.75-1.16 1.77-1.77t2.58-.61 2.96.88q1.39.89 3.23 1.91 1.83 1.02 4.32 1.9 2.48.88 6.29.88 2.99 0 5.13-.71t3.54-1.87q1.39-1.16 2.04-2.69.64-1.53.64-3.16 0-2.45-1.46-4.01t-3.88-2.72q-2.41-1.16-5.5-2.07-3.1-.92-6.33-2.01t-6.32-2.55q-3.1-1.46-5.51-3.71-2.41-2.24-3.88-5.5-1.46-3.27-1.46-7.89 0-4.29 1.7-8.16 1.7-3.88 5-6.77t8.23-4.62q4.93-1.74 11.39-1.74 7.21 0 13.12 2.38 5.92 2.38 9.86 6.26m36.65 63.31q-9.11 0-13.97-5.14-4.86-5.13-4.86-14.17v-38.97h-7.14q-1.36 0-2.31-.88-.96-.89-.96-2.65v-6.67l11.22-1.83 3.54-19.04q.34-1.36 1.29-2.11t2.45-.75h8.7v21.96h18.64v11.97h-18.64v37.81q0 3.26 1.6 5.1t4.39 1.84q1.56 0 2.62-.38 1.05-.37 1.83-.78t1.4-.78q.61-.38 1.22-.38.75 0 1.22.38.48.37 1.02 1.12l5.04 8.16q-3.68 3.06-8.44 4.62-4.76 1.57-9.86 1.57"/></svg>