<svg xmlns="http://www.w3.org/2000/svg" width="40" height="40" viewBox="0 0 40 40"><rect width="100%" height="100%" fill="#F59E0B"/><path fill="#FFFFFF" d="M11.51 24.355h2.31q.64 0 1.07-.15t.69-.41q.26-.25.38-.59.11-.34.11-.72 0-.4-.12-.72-.13-.32-.4-.55-.28-.22-.71-.34-.42-.12-1.03-.12h-2.3zm1.94-8.73h-1.94v3.55h1.82q1.17 0 1.77-.43.6-.42.6-1.35 0-.96-.55-1.37-.54-.4-1.7-.4m-4.23-1.77h4.23q1.21 0 2.07.23t1.41.65q.55.43.8 1.03.26.6.26 1.36 0 .43-.13.83t-.4.74-.68.62-.98.48q2.53.57 2.53 2.74 0 .78-.29 1.44-.3.67-.87 1.15t-1.4.75q-.84.27-1.91.27H9.22zm19.26 0h2.3v12.29h-2.3v-5.37h-5.77v5.37h-2.29v-12.29h2.29v5.29h5.77z"/></svg>