<svg xmlns="http://www.w3.org/2000/svg" width="600" height="400" viewBox="0 0 600 400"><rect width="100%" height="100%" fill="#7C3AED"/><path fill="#FFFFFF" d="M159.245 167.31h8.77v53.5h-5.1q-1.19 0-1.98-.39-.8-.39-1.54-1.31l-27.93-35.67q.22 2.44.22 4.51v32.86h-8.77v-53.5h5.22q.63 0 1.09.05.46.06.81.23.36.16.69.48.33.31.74.83l28.04 35.82q-.11-1.3-.18-2.56-.08-1.26-.08-2.33zm19.54 15.54h9.18v37.96h-9.18zm10.43-11.06q0 1.18-.48 2.22-.48 1.03-1.27 1.81-.8.78-1.87 1.24t-2.3.46q-1.18 0-2.23-.46-1.06-.46-1.83-1.24-.78-.78-1.24-1.81-.47-1.04-.47-2.22 0-1.23.47-2.3.46-1.07 1.24-1.85.77-.78 1.83-1.24 1.05-.46 2.23-.46 1.23 0 2.3.46t1.87 1.24q.79.78 1.27 1.85t.48 2.3m21.95 29.11q1.7 0 2.96-.46 1.25-.46 2.09-1.27.83-.82 1.25-1.97.43-1.14.43-2.51 0-2.81-1.68-4.46-1.69-1.65-5.05-1.65-3.37 0-5.05 1.65-1.69 1.65-1.69 4.46 0 1.33.43 2.48.42 1.14 1.26 1.98.83.83 2.1 1.29 1.28.46 2.95.46m10.32 21.61q0-1.11-.67-1.81-.66-.7-1.81-1.09t-2.68-.58q-1.54-.18-3.26-.27-1.72-.1-3.55-.17t-3.57-.3q-1.52.86-2.46 2-.95 1.15-.95 2.67 0 1 .5 1.86.5.87 1.6 1.5 1.09.63 2.83.98 1.73.35 4.25.35 2.55 0 4.4-.38 1.85-.39 3.06-1.08 1.2-.68 1.75-1.62.56-.95.56-2.06m-1.81-38.37h10.91v3.41q0 1.63-1.96 2l-3.4.62q.77 1.97.77 4.3 0 2.81-1.13 5.08-1.12 2.28-3.12 3.87t-4.72 2.46-5.86.87q-1.11 0-2.15-.11t-2.04-.3q-1.77 1.08-1.77 2.41 0 1.15 1.05 1.68 1.06.54 2.8.76t3.96.28q2.22.05 4.55.24 2.33.18 4.55.65 2.22.46 3.96 1.46t2.79 2.72 1.05 4.42q0 2.51-1.23 4.88-1.24 2.37-3.59 4.22t-5.78 2.98q-3.42 1.13-7.78 1.13-4.3 0-7.48-.84-3.18-.83-5.29-2.22-2.11-1.38-3.14-3.2-1.04-1.81-1.04-3.77 0-2.66 1.61-4.46 1.61-1.79 4.42-2.87-1.52-.77-2.4-2.07-.89-1.29-.89-3.4 0-.85.31-1.76.32-.91.93-1.79.61-.89 1.53-1.69.93-.79 2.19-1.42-2.89-1.56-4.54-4.15-1.64-2.59-1.64-6.06 0-2.82 1.13-5.09 1.12-2.28 3.14-3.89t4.77-2.46q2.76-.85 6.02-.85 2.44 0 4.58.5 2.15.5 3.93 1.46m25.82-18.31v21.09q2.22-2.07 4.89-3.37 2.66-1.29 6.25-1.29 3.11 0 5.51 1.05 2.41 1.05 4.02 2.96t2.44 4.55q.83 2.65.83 5.83v24.16h-9.14v-24.16q0-3.48-1.59-5.38-1.59-1.91-4.85-1.91-2.36 0-4.44 1.07-2.07 1.08-3.92 2.93v27.45h-9.14v-54.98zm45.25 55.57q-4.96 0-7.6-2.79-2.65-2.8-2.65-7.72v-21.2h-3.88q-.74 0-1.26-.48t-.52-1.44v-3.63l6.11-1 1.92-10.36q.19-.74.7-1.14.52-.41 1.34-.41h4.73v11.95h10.14v6.51h-10.14v20.58q0 1.77.87 2.77t2.39 1q.85 0 1.42-.2.58-.21 1-.43.43-.22.76-.43.33-.2.67-.2.4 0 .66.2.26.21.56.62l2.74 4.44q-2 1.66-4.59 2.51t-5.37.85m44.25-28.64h6.22q2.81 0 4.9-.7t3.44-1.94 2.02-2.94q.67-1.71.67-3.74 0-4.07-2.69-6.25-2.68-2.19-8.19-2.19h-6.37zm18.43 8.29 13.39 19.76h-8.99q-2.55 0-3.7-2l-11.24-17.13q-.63-.96-1.39-1.37-.76-.4-2.24-.4h-4.26v20.9h-9.95v-53.5h16.32q5.44 0 9.34 1.13t6.4 3.16q2.5 2.04 3.68 4.87 1.19 2.83 1.19 6.23 0 2.7-.8 5.11-.79 2.4-2.29 4.36t-3.7 3.44-5.02 2.33q.97.56 1.78 1.32t1.48 1.79m37.81 9.96v-6.41q-3.95.19-6.66.69-2.7.5-4.32 1.28-1.63.77-2.34 1.81-.7 1.03-.7 2.26 0 2.4 1.43 3.44 1.42 1.03 3.71 1.03 2.82 0 4.87-1.02 2.05-1.01 4.01-3.08m-19.31-19.95-1.63-2.92q6.55-5.99 15.77-5.99 3.32 0 5.95 1.09t4.44 3.03 2.76 4.64q.94 2.7.94 5.92v23.98h-4.14q-1.3 0-2-.39t-1.11-1.57l-.81-2.74q-1.45 1.3-2.82 2.28t-2.85 1.64q-1.48.67-3.16 1.02t-3.72.35q-2.4 0-4.44-.65-2.03-.64-3.51-1.94-1.48-1.29-2.3-3.22-.81-1.92-.81-4.47 0-1.45.48-2.87.48-1.43 1.57-2.72 1.09-1.3 2.83-2.44 1.74-1.15 4.28-2 2.53-.85 5.9-1.39 3.37-.53 7.69-.65v-2.22q0-3.81-1.62-5.64-1.63-1.83-4.7-1.83-2.22 0-3.68.52-1.47.52-2.58 1.16-1.11.65-2.01 1.17-.91.52-2.02.52-.96 0-1.63-.5-.66-.5-1.07-1.17m66.42-3.51-2.41 3.33q-.41.52-.79.81-.39.3-1.13.3-.71 0-1.37-.43-.67-.42-1.59-.96-.93-.54-2.2-.96-1.28-.43-3.17-.43-2.4 0-4.22.87-1.81.87-3.01 2.5t-1.8 3.94q-.59 2.31-.59 5.24 0 3.03.65 5.4.65 2.36 1.87 3.97t2.96 2.45q1.74.83 3.92.83t3.53-.54q1.35-.53 2.28-1.18.92-.65 1.61-1.19.68-.53 1.53-.53 1.11 0 1.67.85l2.63 3.33q-1.52 1.78-3.3 2.98-1.77 1.2-3.68 1.92-1.9.72-3.92 1.02-2.02.29-4.01.29-3.52 0-6.63-1.31t-5.44-3.83q-2.33-2.51-3.68-6.16-1.35-3.64-1.35-8.3 0-4.19 1.2-7.76 1.21-3.57 3.54-6.18 2.33-2.6 5.77-4.08t7.92-1.48q4.25 0 7.45 1.37 3.2 1.36 5.76 3.92m13.28 9.91h17.24q0-1.77-.5-3.35-.5-1.57-1.5-2.75-1-1.19-2.53-1.87-1.54-.68-3.57-.68-3.96 0-6.24 2.25-2.27 2.26-2.9 6.4m23.31 5.52h-23.5q.23 2.92 1.04 5.05.81 2.12 2.15 3.51 1.33 1.39 3.16 2.07 1.83.69 4.05.69t3.83-.52 2.81-1.15q1.21-.63 2.11-1.14.91-.52 1.76-.52 1.15 0 1.7.85l2.63 3.33q-1.52 1.78-3.41 2.98-1.88 1.2-3.94 1.92-2.05.72-4.18 1.02-2.12.29-4.12.29-3.96 0-7.37-1.31-3.4-1.31-5.92-3.88-2.51-2.57-3.96-6.37-1.44-3.79-1.44-8.78 0-3.89 1.26-7.31t3.61-5.96q2.35-2.53 5.73-4.01 3.39-1.48 7.64-1.48 3.59 0 6.63 1.14 3.03 1.15 5.21 3.35 2.19 2.2 3.43 5.4t1.24 7.31q0 2.07-.45 2.79-.44.73-1.7.73"/></svg>