<svg xmlns="http://www.w3.org/2000/svg" width="40" height="40" viewBox="0 0 40 40"><rect width="100%" height="100%" fill="#4A5568"/><path fill="#FFFFFF" d="M27.325 20q0 1.59-.53 2.94-.52 1.36-1.48 2.35t-2.31 1.54q-1.35.56-3 .56-1.64 0-2.99-.56-1.35-.55-2.31-1.54-.97-.99-1.5-2.35-.53-1.35-.53-2.94t.53-2.95q.53-1.35 1.5-2.34.96-.99 2.31-1.54 1.35-.56 2.99-.56 1.1 0 2.07.25.97.26 1.78.73.81.46 1.45 1.12.65.67 1.1 1.49t.69 1.78q.23.96.23 2.02m-2.75 0q0-1.19-.32-2.14-.32-.94-.91-1.6t-1.44-1.01q-.84-.35-1.9-.35t-1.91.35q-.84.35-1.43 1.01-.6.66-.92 1.6-.32.95-.32 2.14t.32 2.14q.32.94.92 1.59.59.66 1.43 1.01.85.35 1.91.35t1.9-.35q.85-.35 1.44-1.01.59-.65.91-1.59.32-.95.32-2.14"/></svg>