<svg xmlns="http://www.w3.org/2000/svg" width="600" height="400" viewBox="0 0 600 400"><rect width="100%" height="100%" fill="#4A5568"/><path fill="#FFFFFF" d="M159.88 200.74h35.65l-13.64-37.28q-1.01-2.48-2.09-5.89-1.09-3.41-2.17-7.36-1.01 3.95-2.09 7.4-1.09 3.44-2.1 6zm28.44-69.75 44.02 112.06h-16.12q-2.71 0-4.41-1.36-1.71-1.35-2.56-3.37l-8.37-22.86h-46.42l-8.37 22.86q-.62 1.79-2.41 3.26-1.78 1.47-4.41 1.47h-16.28l44.1-112.06zm102.54 88.5v-35.65q-3.18-3.95-7.06-5.58-3.87-1.63-8.29-1.63-4.34 0-7.83 1.63-3.48 1.63-5.96 4.92t-3.8 8.37-1.32 11.98q0 6.97 1.12 11.81 1.13 4.85 3.22 7.91t5.12 4.42q3.02 1.35 6.74 1.35 5.97 0 10.15-2.48 4.19-2.48 7.91-7.05m7.44-55.96H310v105.48h-19.14v-36.03q-4.73 5.03-10.7 8.13t-13.87 3.1q-6.51 0-11.94-2.71-5.42-2.71-9.34-7.87-3.91-5.15-6.04-12.74-2.13-7.6-2.13-17.36 0-8.84 2.4-16.43 2.4-7.6 6.9-13.18 4.49-5.58 10.77-8.72t14.11-3.14q7.44 0 12.47 2.56 5.04 2.56 8.99 6.9l1.01-4.5q1.01-3.49 4.81-3.49m79.98 0h19.14v79.52h-11.7q-3.8 0-4.81-3.49l-1.32-6.35q-4.88 4.96-10.77 8.02t-13.87 3.06q-6.51 0-11.51-2.21t-8.41-6.24-5.15-9.57q-1.75-5.54-1.75-12.2v-50.54h19.15v50.54q0 7.28 3.37 11.27t10.11 3.99q4.96 0 9.3-2.21t8.22-6.08zm80.05 58.98V209.1q-8.29.39-13.95 1.44-5.65 1.05-9.06 2.67-3.41 1.63-4.89 3.8-1.47 2.17-1.47 4.73 0 5.04 2.98 7.2 2.99 2.17 7.79 2.17 5.89 0 10.2-2.13 4.3-2.13 8.4-6.47m-40.45-41.77-3.41-6.12q13.72-12.56 33.01-12.56 6.98 0 12.48 2.29 5.5 2.28 9.3 6.35t5.77 9.73q1.98 5.66 1.98 12.4v50.22h-8.68q-2.71 0-4.18-.81-1.48-.82-2.33-3.3l-1.7-5.73q-3.03 2.71-5.89 4.76-2.87 2.06-5.97 3.45-3.1 1.4-6.63 2.13-3.52.74-7.79.74-5.03 0-9.3-1.36-4.26-1.35-7.36-4.06-3.1-2.72-4.8-6.75-1.71-4.03-1.71-9.37 0-3.03 1.01-6.01t3.29-5.7q2.29-2.71 5.93-5.11t8.95-4.19q5.31-1.78 12.36-2.9 7.06-1.13 16.12-1.36v-4.65q0-7.98-3.41-11.82t-9.84-3.84q-4.65 0-7.71 1.09t-5.39 2.44q-2.32 1.36-4.22 2.44-1.9 1.09-4.22 1.09-2.02 0-3.41-1.05-1.4-1.04-2.25-2.44"/></svg>