<svg xmlns="http://www.w3.org/2000/svg" width="40" height="40" viewBox="0 0 40 40"><rect width="100%" height="100%" fill="#2D3748"/><path fill="#FFFFFF" d="M24.665 23.82q.21 0 .38.17l1.07 1.15q-.89 1.09-2.17 1.67t-3.08.58q-1.62 0-2.9-.55-1.29-.55-2.2-1.53t-1.39-2.34q-.49-1.36-.49-2.97 0-1.63.52-2.98.53-1.36 1.47-2.34t2.25-1.53q1.32-.54 2.9-.54 1.59 0 2.81.52t2.09 1.36l-.9 1.25q-.08.12-.21.21-.12.09-.35.09-.14 0-.3-.09-.16-.08-.36-.2-.19-.13-.44-.28t-.58-.28q-.33-.12-.76-.21-.43-.08-1-.08-.98 0-1.78.35-.8.34-1.39 1-.58.65-.9 1.6-.32.94-.32 2.15 0 1.22.35 2.17.34.95.93 1.6t1.4 1q.8.34 1.71.34.56 0 1-.06t.82-.19q.37-.13.71-.34.33-.2.66-.5.11-.09.22-.14.1-.06.23-.06"/></svg>