<svg xmlns="http://www.w3.org/2000/svg" width="600" height="400" viewBox="0 0 600 400"><rect width="100%" height="100%" fill="#DC2626"/><path fill="#FFFFFF" d="M157.97 213.4q.74 0 1.32.57l3.61 3.91q-3 3.71-7.37 5.68-4.36 1.97-10.48 1.97-5.48 0-9.85-1.87t-7.46-5.2-4.74-7.95q-1.65-4.63-1.65-10.1 0-5.54 1.77-10.15 1.76-4.61 4.98-7.94 3.21-3.33 7.66-5.19 4.46-1.85 9.86-1.85 5.38 0 9.54 1.77 4.17 1.77 7.09 4.62l-3.06 4.25q-.27.41-.7.72-.42.3-1.17.3-.51 0-1.05-.29-.55-.28-1.19-.71-.65-.42-1.5-.93t-1.97-.94q-1.12-.42-2.6-.71t-3.42-.29q-3.3 0-6.04 1.17-2.73 1.17-4.7 3.4-1.98 2.23-3.06 5.44-1.09 3.21-1.09 7.33 0 4.15 1.17 7.38t3.18 5.44 4.73 3.38 5.84 1.17q1.87 0 3.39-.2 1.51-.21 2.78-.65 1.28-.44 2.42-1.14 1.14-.69 2.26-1.71.34-.31.71-.5.38-.18.79-.18m25.33-23.84q3.87 0 7.05 1.26t5.44 3.57 3.49 5.64q1.22 3.34 1.22 7.45 0 4.15-1.22 7.48-1.23 3.33-3.49 5.68-2.26 2.34-5.44 3.6t-7.05 1.26q-3.91 0-7.11-1.26t-5.46-3.6q-2.26-2.35-3.5-5.68t-1.24-7.48q0-4.11 1.24-7.45 1.24-3.33 3.5-5.64t5.46-3.57 7.11-1.26m0 29.48q4.35 0 6.44-2.92 2.09-2.93 2.09-8.57 0-5.65-2.09-8.6-2.09-2.96-6.44-2.96-4.42 0-6.55 2.97-2.12 2.98-2.12 8.59t2.12 8.55q2.13 2.94 6.55 2.94m45.52-4.39v-15.64q-1.43-1.73-3.11-2.44-1.68-.72-3.62-.72-1.9 0-3.43.72-1.53.71-2.62 2.15-1.09 1.45-1.67 3.68-.58 2.22-.58 5.25 0 3.06.5 5.18.49 2.13 1.41 3.47.92 1.35 2.24 1.94 1.33.6 2.96.6 2.62 0 4.45-1.09 1.84-1.09 3.47-3.1m0-40.18h8.4v50.52h-5.13q-1.67 0-2.11-1.53l-.72-3.37q-2.1 2.42-4.84 3.91-2.74 1.5-6.38 1.5-2.85 0-5.23-1.19t-4.1-3.45-2.65-5.59q-.94-3.34-.94-7.62 0-3.88 1.06-7.21 1.05-3.33 3.02-5.78 1.98-2.45 4.73-3.82 2.75-1.38 6.19-1.38 2.92 0 5 .92 2.07.92 3.7 2.48zm23.33 29.07h15.84q0-1.64-.46-3.08-.46-1.45-1.38-2.53-.91-1.09-2.33-1.72-1.41-.63-3.28-.63-3.63 0-5.73 2.07-2.09 2.08-2.66 5.89m21.42 5.06h-21.59q.2 2.69.95 4.64.75 1.96 1.97 3.23 1.22 1.28 2.91 1.91 1.68.63 3.72.63t3.52-.48 2.58-1.05q1.11-.58 1.94-1.06.83-.47 1.62-.47 1.05 0 1.56.78l2.41 3.06q-1.39 1.63-3.12 2.73-1.74 1.11-3.63 1.77-1.88.67-3.84.94-1.95.27-3.79.27-3.64 0-6.76-1.21-3.13-1.2-5.44-3.57-2.32-2.36-3.64-5.85-1.33-3.48-1.33-8.07 0-3.57 1.16-6.72 1.15-3.14 3.31-5.47t5.27-3.69 7.02-1.36q3.3 0 6.09 1.06 2.79 1.05 4.79 3.07 2.01 2.03 3.15 4.97t1.14 6.71q0 1.91-.41 2.57t-1.56.66m57.12-25.5h-21.83v13.64h17.2v7.03h-17.2v13.91h21.83v7.31h-31.01v-49.16h31.01zm28.66 31.55v-15.64q-1.43-1.73-3.11-2.44-1.69-.72-3.62-.72-1.91 0-3.44.72-1.53.71-2.62 2.15-1.08 1.45-1.66 3.68-.58 2.22-.58 5.25 0 3.06.49 5.18.5 2.13 1.41 3.47.92 1.35 2.25 1.94 1.32.6 2.96.6 2.61 0 4.45-1.09t3.47-3.1m0-40.18h8.4v50.52h-5.14q-1.66 0-2.11-1.53l-.71-3.37q-2.11 2.42-4.85 3.91-2.73 1.5-6.37 1.5-2.86 0-5.24-1.19t-4.09-3.45q-1.72-2.26-2.66-5.59-.93-3.34-.93-7.62 0-3.88 1.05-7.21 1.06-3.33 3.03-5.78t4.73-3.82q2.75-1.38 6.18-1.38 2.93 0 5 .92 2.08.92 3.71 2.48zm16.96 15.64h8.44v34.88h-8.44zm9.59-10.17q0 1.09-.44 2.04t-1.17 1.67q-.73.71-1.72 1.13-.99.43-2.11.43-1.09 0-2.06-.43-.96-.42-1.68-1.13-.71-.72-1.14-1.67-.42-.95-.42-2.04 0-1.12.42-2.11.43-.98 1.14-1.7.72-.71 1.68-1.14.97-.42 2.06-.42 1.12 0 2.11.42.99.43 1.72 1.14.73.72 1.17 1.7.44.99.44 2.11m19.04 45.59q-4.55 0-6.99-2.56-2.43-2.57-2.43-7.09V196.4h-3.57q-.68 0-1.15-.45-.48-.44-.48-1.32v-3.33l5.61-.92 1.77-9.52q.17-.68.65-1.06.47-.37 1.22-.37h4.35v10.98h9.32v5.99h-9.32v18.9q0 1.63.8 2.55t2.19.92q.79 0 1.31-.19.53-.19.92-.39t.7-.39q.3-.19.61-.19.37 0 .61.19t.51.56l2.52 4.08q-1.84 1.53-4.22 2.31t-4.93.78m29.11-35.97q3.87 0 7.05 1.26t5.44 3.57 3.49 5.64q1.22 3.34 1.22 7.45 0 4.15-1.22 7.48-1.23 3.33-3.49 5.68-2.26 2.34-5.44 3.6t-7.05 1.26q-3.91 0-7.11-1.26t-5.46-3.6q-2.26-2.35-3.5-5.68t-1.24-7.48q0-4.11 1.24-7.45 1.24-3.33 3.5-5.64t5.46-3.57 7.11-1.26m0 29.48q4.35 0 6.44-2.92 2.09-2.93 2.09-8.57 0-5.65-2.09-8.6-2.09-2.96-6.44-2.96-4.42 0-6.55 2.97-2.12 2.98-2.12 8.59t2.12 8.55q2.13 2.94 6.55 2.94m31.04-26.83.51 3.95q1.63-3.13 3.87-4.92 2.25-1.78 5.31-1.78 2.41 0 3.87 1.05l-.54 6.29q-.17.62-.49.87-.33.26-.87.26-.51 0-1.51-.17-1.01-.17-1.96-.17-1.39 0-2.48.4-1.09.41-1.96 1.18-.86.76-1.53 1.85-.66 1.09-1.24 2.48v21.49h-8.39v-34.88h4.93q1.29 0 1.8.45.51.46.68 1.65"/></svg>