<svg xmlns="http://www.w3.org/2000/svg" width="150" height="150" viewBox="0 0 150 150"><rect width="100%" height="100%" fill="#EA580C"/><path fill="#FFFFFF" d="M66.955 87.8q.74 0 1.31.57l3.55 3.85q-2.95 3.65-7.25 5.59-4.31 1.95-10.34 1.95-5.39 0-9.69-1.85-4.31-1.84-7.36-5.12t-4.67-7.84-1.62-9.95q0-5.46 1.74-10t4.9-7.82q3.17-3.29 7.56-5.11 4.39-1.83 9.71-1.83 5.3 0 9.4 1.75 4.1 1.74 6.99 4.55l-3.02 4.19q-.27.4-.69.7-.41.3-1.15.3-.5 0-1.04-.28-.54-.29-1.17-.7-.64-.42-1.48-.93-.83-.5-1.94-.92t-2.56-.7q-1.46-.29-3.37-.29-3.25 0-5.95 1.16-2.69 1.16-4.64 3.35-1.94 2.19-3.01 5.36T40.095 75q0 4.09 1.15 7.27 1.16 3.18 3.14 5.36 1.97 2.18 4.65 3.33 2.68 1.16 5.76 1.16 1.85 0 3.34-.2t2.74-.64q1.26-.44 2.38-1.12 1.13-.69 2.23-1.69.34-.31.7-.49.37-.18.77-.18m20.07-37.02v20.3h2.11q1.27 0 2.11-.35t1.44-1.12l13.37-16.92q.84-1.07 1.76-1.49t2.33-.42h7.77l-16.32 20.13q-1.44 1.85-2.98 2.62 1.11.4 2 1.12.88.72 1.69 1.89l16.81 22.68h-7.94q-1.6 0-2.39-.45t-1.32-1.33l-13.71-17.88q-.63-.91-1.47-1.28t-2.41-.37h-2.85v21.31h-9.01V50.78z"/></svg>