<svg xmlns="http://www.w3.org/2000/svg" width="600" height="400" viewBox="0 0 600 400"><rect width="100%" height="100%" fill="#DC2626"/><path fill="#FFFFFF" d="M130.1 194.795h5.93q2.18 0 3.8-.55 1.62-.54 2.7-1.56t1.61-2.48.53-3.26q0-1.71-.53-3.1-.53-1.38-1.59-2.36-1.07-.97-2.69-1.48-1.62-.52-3.83-.52h-5.93zm-7.94-21.45h13.87q4.27 0 7.4 1.01 3.13 1 5.16 2.8 2.04 1.8 3.03 4.31.99 2.5.99 5.48 0 3.1-1.04 5.68-1.03 2.58-3.09 4.44-2.07 1.86-5.18 2.89t-7.27 1.03h-5.93v15.02h-7.94zm41.8 14.22.45 3.42q1.41-2.71 3.36-4.26t4.6-1.55q2.1 0 3.36.92l-.47 5.45q-.15.54-.43.76t-.75.22q-.44 0-1.31-.15t-1.7-.15q-1.21 0-2.15.36-.94.35-1.7 1.01-.75.67-1.32 1.61-.58.95-1.08 2.16v18.64h-7.29v-30.27h4.28q1.12 0 1.56.4.45.4.59 1.43m28.97-2.3q3.37 0 6.12 1.09 2.76 1.09 4.72 3.1 1.97 2.01 3.03 4.9t1.06 6.46q0 3.6-1.06 6.49t-3.03 4.92q-1.96 2.04-4.72 3.13-2.75 1.09-6.12 1.09-3.39 0-6.16-1.09-2.78-1.09-4.74-3.13-1.96-2.03-3.04-4.92-1.07-2.89-1.07-6.49 0-3.57 1.07-6.46 1.08-2.89 3.04-4.9t4.74-3.1q2.77-1.09 6.16-1.09m0 25.58q3.78 0 5.59-2.54 1.82-2.54 1.82-7.43 0-4.9-1.82-7.47-1.81-2.56-5.59-2.56-3.83 0-5.68 2.58-1.84 2.58-1.84 7.45 0 4.86 1.84 7.42 1.85 2.55 5.68 2.55m31.57-10.71q1.35 0 2.36-.37 1-.37 1.66-1.02.67-.65 1.01-1.56.34-.92.34-2.01 0-2.24-1.35-3.55-1.34-1.31-4.02-1.31-2.69 0-4.03 1.31t-1.34 3.55q0 1.06.34 1.98.34.91 1 1.58.66.66 1.68 1.03t2.35.37m8.23 17.23q0-.89-.53-1.45t-1.45-.87q-.91-.31-2.14-.46-1.22-.14-2.59-.22-1.38-.07-2.84-.13t-2.84-.24q-1.21.68-1.96 1.6-.76.91-.76 2.12 0 .8.4 1.49t1.27 1.2q.87.5 2.26.78 1.38.28 3.39.28 2.04 0 3.51-.31 1.48-.31 2.43-.86.96-.54 1.41-1.3.44-.75.44-1.63m-1.45-30.59h8.7v2.71q0 1.3-1.56 1.59l-2.71.5q.62 1.57.62 3.43 0 2.24-.9 4.05-.9 1.82-2.5 3.08-1.59 1.27-3.76 1.97-2.17.69-4.67.69-.89 0-1.71-.09-.83-.09-1.63-.23-1.41.85-1.41 1.91 0 .92.84 1.35.84.42 2.23.6 1.38.18 3.15.22 1.77.05 3.63.19 1.86.15 3.63.52t3.16 1.16q1.38.8 2.22 2.17t.84 3.53q0 2-.98 3.89-.99 1.89-2.87 3.37-1.87 1.47-4.6 2.37t-6.21.9q-3.42 0-5.96-.66-2.53-.67-4.22-1.77-1.68-1.11-2.5-2.56-.83-1.44-.83-3 0-2.13 1.28-3.56 1.29-1.43 3.53-2.29-1.21-.62-1.92-1.65t-.71-2.71q0-.68.25-1.4.26-.73.74-1.43.49-.71 1.23-1.35.73-.63 1.74-1.13-2.3-1.24-3.62-3.31-1.31-2.06-1.31-4.83 0-2.25.9-4.06t2.51-3.1q1.61-1.28 3.8-1.96 2.2-.68 4.8-.68 1.94 0 3.66.4 1.71.4 3.12 1.17m19.74.79.44 3.42q1.42-2.71 3.36-4.26 1.95-1.55 4.61-1.55 2.09 0 3.36.92l-.47 5.45q-.15.54-.43.76t-.75.22q-.45 0-1.32-.15t-1.69-.15q-1.21 0-2.16.36-.94.35-1.69 1.01-.75.67-1.33 1.61-.58.95-1.08 2.16v18.64h-7.28v-30.27h4.27q1.13 0 1.57.4t.59 1.43m21.33 9.83h13.74q0-1.42-.4-2.67-.39-1.26-1.19-2.2-.8-.95-2.02-1.49-1.22-.55-2.85-.55-3.15 0-4.97 1.8-1.81 1.8-2.31 5.11m18.58 4.39H272.2q.18 2.33.82 4.03.65 1.69 1.72 2.8 1.06 1.11 2.52 1.65 1.46.55 3.23.55t3.05-.42q1.28-.41 2.24-.91t1.68-.91q.73-.42 1.41-.42.91 0 1.35.68l2.1 2.66q-1.21 1.41-2.72 2.37-1.5.96-3.14 1.54-1.64.57-3.33.81-1.7.23-3.29.23-3.16 0-5.87-1.04-2.72-1.05-4.72-3.1-2.01-2.05-3.16-5.08-1.15-3.02-1.15-7 0-3.1 1-5.83 1.01-2.73 2.88-4.75t4.57-3.2 6.1-1.18q2.86 0 5.28.92 2.41.91 4.16 2.67 1.74 1.75 2.72 4.3.99 2.55.99 5.83 0 1.65-.35 2.23-.36.57-1.36.57m27.29-12.77-1.65 2.62q-.3.47-.62.67-.33.19-.83.19-.53 0-1.13-.3-.61-.29-1.41-.66-.79-.37-1.81-.66-1.02-.3-2.4-.3-2.16 0-3.38.92-1.23.91-1.23 2.38 0 .98.64 1.64.63.67 1.68 1.17t2.37.9q1.33.4 2.7.87 1.38.47 2.7 1.07 1.33.61 2.38 1.54 1.04.93 1.68 2.23.63 1.29.63 3.12 0 2.19-.78 4.03t-2.31 3.19q-1.54 1.34-3.8 2.09-2.25.75-5.2.75-1.57 0-3.06-.28-1.48-.28-2.86-.78-1.37-.5-2.53-1.18-1.17-.68-2.05-1.48l1.68-2.77q.32-.5.76-.77.45-.26 1.13-.26.67 0 1.28.38.6.39 1.4.83t1.87.82q1.08.39 2.73.39 1.3 0 2.23-.31t1.53-.81q.61-.5.89-1.17.28-.66.28-1.37 0-1.06-.64-1.74-.63-.68-1.68-1.18-1.04-.5-2.39-.9-1.34-.4-2.74-.87t-2.74-1.11q-1.35-.63-2.39-1.6-1.05-.98-1.68-2.39-.64-1.42-.64-3.43 0-1.85.74-3.54.74-1.68 2.17-2.93t3.57-2.01q2.14-.75 4.94-.75 3.12 0 5.69 1.03 2.57 1.04 4.28 2.72m25.93 0-1.65 2.62q-.3.47-.62.67-.33.19-.83.19-.53 0-1.13-.3-.61-.29-1.41-.66-.79-.37-1.81-.66-1.02-.3-2.4-.3-2.16 0-3.38.92-1.23.91-1.23 2.38 0 .98.64 1.64.63.67 1.68 1.17t2.37.9q1.33.4 2.7.87 1.38.47 2.7 1.07 1.33.61 2.38 1.54t1.68 2.23q.63 1.29.63 3.12 0 2.19-.78 4.03t-2.31 3.19q-1.54 1.34-3.79 2.09-2.26.75-5.21.75-1.56 0-3.05-.28t-2.87-.78q-1.37-.5-2.53-1.18-1.17-.68-2.05-1.48l1.68-2.77q.32-.5.77-.77.44-.26 1.12-.26.67 0 1.28.38.6.39 1.4.83t1.87.82q1.08.39 2.73.39 1.3 0 2.23-.31t1.53-.81q.61-.5.89-1.17.28-.66.28-1.37 0-1.06-.64-1.74-.63-.68-1.68-1.18-1.04-.5-2.39-.9-1.34-.4-2.74-.87t-2.74-1.11q-1.35-.63-2.39-1.6-1.05-.98-1.68-2.39-.64-1.42-.64-3.43 0-1.85.74-3.54.74-1.68 2.17-2.93t3.57-2.01q2.14-.75 4.94-.75 3.13 0 5.69 1.03 2.57 1.04 4.28 2.72m61.57-15.67h5.98v42.66h-6.99v-27.55q0-1.66.18-3.57L392 209.105q-.92 1.74-2.8 1.74h-1.13q-1.88 0-2.8-1.74l-13.04-24.31q.09.97.15 1.92.06.94.06 1.74v27.55h-6.99v-42.66h5.99q.53 0 .91.03t.69.15.56.38q.26.27.49.71l12.78 23.69q.5.94.92 1.95.43 1 .85 2.06.41-1.09.85-2.11t.94-1.96l12.6-23.63q.24-.44.5-.71.27-.26.58-.38t.69-.15.92-.03m30.32 34.84v-5.1q-3.15.15-5.31.54-2.15.4-3.45 1.02t-1.86 1.45q-.56.82-.56 1.8 0 1.91 1.14 2.74 1.13.83 2.96.83 2.24 0 3.88-.81 1.64-.82 3.2-2.47m-15.4-15.9-1.3-2.33q5.23-4.78 12.57-4.78 2.66 0 4.75.87 2.1.87 3.54 2.42 1.45 1.55 2.2 3.7.75 2.16.75 4.72v19.12h-3.3q-1.04 0-1.6-.31t-.88-1.25l-.65-2.19q-1.15 1.04-2.24 1.82t-2.27 1.31-2.53.81q-1.34.28-2.96.28-1.92 0-3.54-.51-1.62-.52-2.8-1.55-1.18-1.04-1.83-2.57t-.65-3.57q0-1.15.38-2.29.39-1.13 1.26-2.16.87-1.04 2.25-1.95 1.39-.92 3.41-1.59 2.02-.68 4.71-1.11 2.68-.43 6.13-.52v-1.77q0-3.03-1.3-4.49-1.29-1.47-3.74-1.47-1.77 0-2.94.42-1.16.41-2.05.93-.88.51-1.61.93-.72.41-1.6.41-.77 0-1.3-.4t-.86-.93m36.64 2.3v13.57q1.24 1.51 2.7 2.13t3.17.62q1.65 0 2.98-.62t2.26-1.89 1.43-3.2.5-4.56q0-2.65-.43-4.5-.42-1.84-1.22-2.99t-1.93-1.68q-1.14-.54-2.58-.54-2.28 0-3.87.96t-3.01 2.7m-.97-7.52.59 2.8q1.86-2.09 4.22-3.39t5.54-1.3q2.48 0 4.53 1.03 2.05 1.04 3.54 3t2.3 4.84q.81 2.87.81 6.59 0 3.39-.91 6.28-.92 2.89-2.61 5.02-1.7 2.12-4.1 3.32-2.41 1.19-5.39 1.19-2.53 0-4.33-.78t-3.22-2.17v12.39H450v-40.15h4.45q1.42 0 1.86 1.33"/></svg>