<svg xmlns="http://www.w3.org/2000/svg" width="600" height="400" viewBox="0 0 600 400"><rect width="100%" height="100%" fill="#4A5568"/><path fill="#FFFFFF" d="M163.945 171.915v8.73h-17.22v48.39h-10.63v-48.39h-17.22v-8.73zm27.37 46.65v-6.83q-4.22.2-7.11.73-2.88.53-4.62 1.36t-2.49 1.94q-.75 1.1-.75 2.41 0 2.57 1.52 3.67 1.52 1.11 3.97 1.11 3 0 5.2-1.09 2.19-1.09 4.28-3.3m-20.62-21.29-1.73-3.12q6.99-6.4 16.82-6.4 3.56 0 6.36 1.17 2.81 1.16 4.74 3.24 1.94 2.07 2.95 4.95 1 2.89 1 6.32v25.6h-4.42q-1.38 0-2.13-.41-.76-.42-1.19-1.68l-.87-2.93q-1.54 1.39-3 2.43-1.46 1.05-3.04 1.76t-3.38 1.09q-1.8.37-3.97.37-2.57 0-4.74-.69t-3.75-2.07q-1.58-1.39-2.45-3.44t-.87-4.78q0-1.54.51-3.06.52-1.52 1.68-2.9 1.17-1.39 3.02-2.61 1.86-1.22 4.57-2.13 2.7-.91 6.3-1.48 3.59-.58 8.21-.7v-2.37q0-4.06-1.74-6.02-1.73-1.96-5.01-1.96-2.37 0-3.93.56-1.56.55-2.75 1.24-1.18.69-2.15 1.25-.97.55-2.15.55-1.03 0-1.74-.53-.71-.54-1.15-1.25m66.25-4.38-2.22 3.51q-.39.63-.83.89-.43.26-1.1.26-.71 0-1.52-.4-.81-.39-1.88-.89-1.07-.49-2.43-.88-1.36-.4-3.22-.4-2.88 0-4.52 1.23-1.64 1.22-1.64 3.19 0 1.31.85 2.2t2.25 1.56 3.18 1.2q1.78.54 3.62 1.17 1.83.63 3.61 1.44t3.18 2.05q1.4 1.25 2.25 2.99.85 1.73.85 4.18 0 2.93-1.05 5.39-1.04 2.47-3.1 4.27-2.05 1.8-5.07 2.8-3.03 1.01-6.98 1.01-2.09 0-4.08-.37-2-.38-3.83-1.05-1.84-.67-3.4-1.58t-2.75-1.97l2.25-3.72q.44-.67 1.03-1.03.59-.35 1.5-.35t1.72.51q.81.52 1.88 1.11 1.06.59 2.51 1.11 1.44.51 3.65.51 1.74 0 2.98-.42 1.25-.41 2.06-1.08.8-.67 1.18-1.56t.38-1.84q0-1.42-.85-2.33t-2.26-1.58q-1.4-.67-3.19-1.2-1.8-.54-3.68-1.17-1.87-.63-3.67-1.48t-3.2-2.15q-1.4-1.31-2.25-3.2-.85-1.9-.85-4.59 0-2.48.99-4.74.98-2.25 2.9-3.93 1.91-1.67 4.78-2.68 2.86-1.01 6.61-1.01 4.19 0 7.63 1.38 3.43 1.39 5.73 3.64m7.78-22.56h9.75v33.62h1.82q.99 0 1.56-.26t1.17-1.05l10.07-12.44q.63-.83 1.4-1.26.77-.44 2-.44h8.92l-12.6 15.05q-1.34 1.78-2.92 2.73.83.59 1.48 1.38t1.24 1.7l13.51 19.67h-8.81q-1.14 0-1.97-.38-.83-.37-1.38-1.36l-10.35-15.36q-.55-.91-1.15-1.19-.59-.28-1.77-.28h-2.22v18.57h-9.75zm103.33 1.58h8.57l-23.07 57.12h-9.6l-23.06-57.12h8.53q1.38 0 2.25.67.87.68 1.3 1.74l13.47 34.84q.67 1.7 1.29 3.73.61 2.04 1.16 4.25.48-2.21 1.03-4.25.55-2.03 1.22-3.73l13.39-34.84q.32-.91 1.25-1.66t2.27-.75m13.27 16.59h9.8v40.53h-9.8zm11.14-11.81q0 1.27-.51 2.37-.52 1.11-1.37 1.94t-1.99 1.32q-1.15.49-2.45.49-1.26 0-2.39-.49t-1.96-1.32q-.82-.83-1.32-1.94-.49-1.1-.49-2.37 0-1.3.49-2.45.5-1.14 1.32-1.97.83-.83 1.96-1.32 1.13-.5 2.39-.5 1.3 0 2.45.5 1.14.49 1.99 1.32t1.37 1.97q.51 1.15.51 2.45m16.31 27.42h18.41q0-1.9-.53-3.58-.54-1.68-1.6-2.94-1.07-1.27-2.71-2t-3.81-.73q-4.23 0-6.66 2.41t-3.1 6.84m24.89 5.88h-25.08q.23 3.12 1.1 5.39t2.29 3.76q1.42 1.48 3.38 2.21t4.33.73 4.08-.55q1.72-.56 3.01-1.23 1.28-.67 2.25-1.22.96-.56 1.87-.56 1.23 0 1.82.91l2.8 3.56q-1.61 1.89-3.63 3.18-2.01 1.28-4.21 2.05-2.19.77-4.46 1.09-2.27.31-4.4.31-4.23 0-7.86-1.4-3.64-1.4-6.32-4.15-2.69-2.74-4.23-6.79t-1.54-9.38q0-4.15 1.34-7.8 1.34-3.66 3.85-6.36 2.51-2.71 6.13-4.29 3.61-1.58 8.15-1.58 3.83 0 7.07 1.23 3.24 1.22 5.57 3.57t3.66 5.77q1.32 3.41 1.32 7.8 0 2.21-.47 2.98-.48.77-1.82.77m60.04-21.49h7.42l-12.87 40.53h-7.82q-1.35 0-1.86-1.74l-7.27-23.42q-.35-1.19-.65-2.35-.3-1.17-.49-2.35-.24 1.18-.54 2.39-.29 1.2-.65 2.39l-7.39 23.34q-.47 1.74-2.09 1.74h-7.5l-12.84-40.53h7.78q1.07 0 1.82.52.75.51.98 1.3l5.81 21.65q.44 1.77.77 3.47.34 1.7.57 3.4.44-1.7.93-3.4.5-1.7 1.05-3.47l6.71-21.73q.24-.79.93-1.3.69-.52 1.68-.52h4.31q1.02 0 1.75.52.74.51.97 1.3l6.52 21.73q.51 1.77.97 3.49.45 1.72.89 3.42.51-3.36 1.46-6.91l5.96-21.65q.28-.79.99-1.3.71-.52 1.7-.52"/></svg>