<svg xmlns="http://www.w3.org/2000/svg" width="600" height="400" viewBox="0 0 600 400"><rect width="100%" height="100%" fill="#2D3748"/><path fill="#FFFFFF" d="M146.515 195.145h15.6v19.01q-3.57 2.63-7.62 3.85-4.04 1.22-8.66 1.22-5.75 0-10.41-1.79-4.67-1.79-7.97-4.97-3.3-3.19-5.08-7.61-1.79-4.42-1.79-9.65 0-5.3 1.72-9.72 1.72-4.41 4.89-7.6t7.69-4.94q4.52-1.76 10.14-1.76 2.86 0 5.35.46 2.48.45 4.61 1.25t3.88 1.93q1.76 1.14 3.22 2.51l-2.5 3.96q-.59.94-1.53 1.16-.94.21-2.04-.48-1.08-.61-2.15-1.23t-2.39-1.07q-1.32-.46-2.96-.75t-3.78-.29q-3.48 0-6.29 1.17t-4.8 3.35q-1.98 2.17-3.05 5.23-1.07 3.05-1.07 6.82 0 4.03 1.15 7.2t3.25 5.36q2.1 2.2 5.06 3.35 2.95 1.15 6.59 1.15 2.6 0 4.65-.55t4-1.49v-8.52h-5.92q-.84 0-1.31-.47-.48-.47-.48-1.15zm40.4 14.95v-5.63q-3.48.17-5.85.61-2.37.43-3.8 1.12-1.43.68-2.05 1.59t-.62 1.98q0 2.11 1.26 3.02 1.25.92 3.26.92 2.47 0 4.28-.9 1.8-.89 3.52-2.71m-16.96-17.52-1.43-2.57q5.75-5.26 13.84-5.26 2.93 0 5.23.96 2.31.95 3.9 2.66 1.6 1.71 2.43 4.08.82 2.37.82 5.2v21.06h-3.64q-1.13 0-1.75-.34t-.98-1.38l-.71-2.41q-1.27 1.14-2.47 2t-2.5 1.45q-1.3.58-2.78.89t-3.27.31q-2.11 0-3.9-.57t-3.09-1.71q-1.3-1.13-2.01-2.82-.72-1.69-.72-3.94 0-1.26.43-2.51.42-1.26 1.38-2.39.96-1.14 2.48-2.15 1.53-1 3.76-1.75 2.22-.75 5.18-1.22t6.76-.57v-1.95q0-3.35-1.43-4.96t-4.13-1.61q-1.95 0-3.23.46t-2.26 1.02q-.97.57-1.77 1.03-.8.45-1.77.45-.85 0-1.43-.44-.59-.44-.94-1.02m32.43-22.17h8.03v48.3h-8.03zm33.67 39.69v-5.63q-3.48.17-5.85.61-2.37.43-3.8 1.12-1.43.68-2.05 1.59-.61.91-.61 1.98 0 2.11 1.25 3.02 1.25.92 3.26.92 2.47 0 4.28-.9 1.8-.89 3.52-2.71m-16.96-17.52-1.43-2.57q5.75-5.26 13.84-5.26 2.93 0 5.24.96 2.3.95 3.9 2.66 1.59 1.71 2.42 4.08t.83 5.2v21.06h-3.64q-1.14 0-1.76-.34t-.97-1.38l-.72-2.41q-1.27 1.14-2.47 2t-2.5 1.45q-1.3.58-2.78.89t-3.27.31q-2.11 0-3.9-.57-1.78-.57-3.08-1.71-1.31-1.13-2.02-2.82t-.71-3.94q0-1.26.42-2.51.42-1.26 1.38-2.39.96-1.14 2.48-2.15 1.53-1 3.76-1.75t5.18-1.22q2.96-.47 6.76-.57v-1.95q0-3.35-1.43-4.96t-4.12-1.61q-1.95 0-3.24.46-1.28.46-2.26 1.02-.97.57-1.77 1.03-.79.45-1.77.45-.84 0-1.43-.44t-.94-1.02m50.7 8.58 11.41 17.55h-7.74q-.88 0-1.41-.46-.54-.45-.9-1.04l-7.05-11.6q-.16.56-.37 1.04-.21.49-.47.91l-6.24 9.65q-.36.56-.88 1.03t-1.3.47h-7.18l11.44-17.19-10.99-16.15h7.74q.87 0 1.3.24.42.24.74.8l6.99 11.11q.36-1.11 1.01-2.18l5.62-8.77q.72-1.2 1.85-1.2h7.38zm39.42-15.79h6.44l-18.17 42.51q-.36.84-.93 1.28t-1.74.44h-5.98l6.24-13.39-13.48-30.84h7.05q.94 0 1.48.45.53.45.79 1.04l7.09 17.29q.36.88.6 1.76.24.87.47 1.78.29-.91.59-1.8.29-.89.65-1.77l6.69-17.26q.26-.65.86-1.07t1.35-.42m60.71-13.66h7.05l-18.98 47h-7.89l-18.98-47h7.02q1.13 0 1.85.56.71.55 1.07 1.43l11.08 28.66q.56 1.4 1.06 3.07.5 1.68.96 3.5.39-1.82.84-3.5.46-1.67 1.01-3.07l11.02-28.66q.26-.75 1.02-1.37.77-.62 1.87-.62m10.92 13.66h8.06v33.34h-8.06zm9.17-9.72q0 1.04-.43 1.95-.42.91-1.12 1.59t-1.64 1.09-2.01.41q-1.04 0-1.97-.41t-1.61-1.09-1.09-1.59q-.4-.91-.4-1.95 0-1.07.4-2.02.41-.94 1.09-1.62.68-.69 1.61-1.09.93-.41 1.97-.41 1.07 0 2.01.41.94.4 1.64 1.09.7.68 1.12 1.62.43.95.43 2.02m13.42 22.55h15.14q0-1.56-.44-2.94-.43-1.38-1.31-2.42t-2.23-1.64-3.13-.6q-3.48 0-5.48 1.98t-2.55 5.62m20.47 4.84h-20.63q.19 2.57.91 4.44.71 1.87 1.88 3.09t2.78 1.82 3.56.6 3.36-.45q1.42-.46 2.47-1.01 1.06-.56 1.85-1.01.8-.45 1.55-.45 1.01 0 1.49.74l2.31 2.93q-1.33 1.56-2.99 2.61-1.66 1.06-3.46 1.69-1.8.64-3.67.9t-3.63.26q-3.47 0-6.46-1.16-2.99-1.15-5.2-3.41t-3.48-5.59-1.27-7.72q0-3.41 1.11-6.42 1.1-3 3.16-5.23 2.07-2.23 5.04-3.52 2.98-1.31 6.71-1.31 3.16 0 5.82 1.01 2.67 1.01 4.58 2.94 1.92 1.94 3.01 4.75t1.09 6.42q0 1.82-.39 2.45t-1.5.63m49.4-17.67h6.11l-10.59 33.34h-6.44q-1.1 0-1.52-1.43l-5.98-19.27q-.3-.98-.54-1.94t-.41-1.93q-.19.97-.44 1.97-.24.99-.53 1.96l-6.08 19.21q-.39 1.43-1.72 1.43h-6.18l-10.56-33.34h6.4q.88 0 1.5.42t.81 1.07l4.78 17.81q.36 1.46.63 2.86.28 1.4.47 2.8.36-1.4.77-2.8.4-1.4.86-2.86l5.52-17.88q.2-.64.77-1.07.57-.42 1.38-.42h3.54q.85 0 1.45.42.6.43.79 1.07l5.37 17.88q.42 1.46.79 2.88.38 1.41.73 2.81.43-2.77 1.21-5.69l4.9-17.81q.23-.65.82-1.07.58-.42 1.39-.42"/></svg>