<svg xmlns="http://www.w3.org/2000/svg" width="1200" height="400" viewBox="0 0 1200 400"><rect width="100%" height="100%" fill="#059669"/><path fill="#FFFFFF" d="M301.72 170.495h8.42v60.01h-9.84v-38.76q0-2.33.25-5.02l-18.13 34.07q-1.29 2.45-3.94 2.45h-1.58q-2.66 0-3.94-2.45l-18.35-34.2q.13 1.37.21 2.7t.08 2.45v38.76h-9.83v-60.01h8.42q.75 0 1.29.04t.97.21q.44.17.79.54.36.37.69 1l17.97 33.32q.7 1.33 1.3 2.74.61 1.41 1.19 2.9.58-1.53 1.2-2.96.62-1.44 1.33-2.76l17.72-33.24q.33-.63.7-1 .38-.37.81-.54.44-.17.98-.21t1.29-.04m20.5 17.43h10.29v42.58h-10.29zm11.7-12.41q0 1.33-.54 2.49t-1.43 2.04q-.89.87-2.1 1.39-1.2.52-2.57.52-1.33 0-2.51-.52t-2.06-1.39q-.87-.88-1.39-2.04-.51-1.16-.51-2.49 0-1.37.51-2.57.52-1.2 1.39-2.08.88-.87 2.06-1.39 1.18-.51 2.51-.51 1.37 0 2.57.51 1.21.52 2.1 1.39.89.88 1.43 2.08t.54 2.57m17.93 14.28.7 3.36q1.29-1.29 2.72-2.39t3.03-1.86q1.6-.77 3.42-1.21 1.83-.43 3.99-.43 3.48 0 6.18 1.18t4.5 3.32q1.81 2.14 2.74 5.1.94 2.97.94 6.54v27.1h-10.25v-27.1q0-3.9-1.79-6.04-1.78-2.13-5.43-2.13-2.66 0-4.98 1.2-2.33 1.2-4.4 3.28v30.79h-10.25v-42.58h6.26q2 0 2.62 1.87m64.65 28.09v-19.09q-1.74-2.11-3.79-2.98-2.06-.88-4.42-.88-2.33 0-4.19.88-1.87.87-3.2 2.63t-2.03 4.48q-.71 2.72-.71 6.41 0 3.74.6 6.33.6 2.6 1.73 4.24 1.12 1.64 2.73 2.36 1.62.73 3.62.73 3.19 0 5.43-1.33t4.23-3.78m0-49.05h10.26v61.67h-6.27q-2.04 0-2.57-1.87l-.88-4.11q-2.57 2.95-5.91 4.78-3.34 1.82-7.78 1.82-3.49 0-6.39-1.45-2.91-1.45-5-4.21-2.1-2.76-3.24-6.83t-1.14-9.3q0-4.73 1.29-8.79 1.28-4.07 3.69-7.06t5.77-4.67 7.55-1.68q3.57 0 6.1 1.12t4.52 3.03zm33.62 61.67h-10.25v-34.86l-3.69-.58q-1.21-.25-1.93-.85-.73-.6-.73-1.72v-4.2h6.35v-3.15q0-3.65 1.1-6.56 1.1-2.9 3.15-4.94 2.06-2.03 5-3.11 2.95-1.08 6.64-1.08 2.95 0 5.48.79l-.21 5.15q-.04.58-.33.93t-.77.54q-.47.19-1.1.25-.62.06-1.32.06-1.83 0-3.26.4-1.43.39-2.43 1.37-1 .97-1.51 2.57-.52 1.6-.52 3.96v2.82h11.08v7.31h-10.75zm42.95-42.58h10.25v42.58h-6.26q-2.04 0-2.58-1.87l-.7-3.4q-2.62 2.66-5.77 4.29-3.16 1.64-7.43 1.64-3.49 0-6.16-1.18-2.68-1.18-4.5-3.34-1.83-2.16-2.76-5.12-.94-2.97-.94-6.54v-27.06h10.25v27.06q0 3.9 1.81 6.04 1.8 2.13 5.41 2.13 2.66 0 4.98-1.18 2.33-1.18 4.4-3.26zm20.5-19.09h10.25v61.67h-10.25zm98.94 1.66h8.42v60.01h-9.83v-38.76q0-2.33.25-5.02l-18.14 34.07q-1.28 2.45-3.94 2.45h-1.58q-2.65 0-3.94-2.45l-18.34-34.2q.12 1.37.2 2.7.09 1.33.09 2.45v38.76h-9.84v-60.01h8.43q.74 0 1.28.04t.98.21q.43.17.79.54.35.37.68 1l17.97 33.32q.71 1.33 1.31 2.74t1.18 2.9q.58-1.53 1.2-2.96.63-1.44 1.33-2.76l17.72-33.24q.33-.63.71-1 .37-.37.81-.54.43-.17.97-.21t1.29-.04m28.26 33.82h19.34q0-1.99-.56-3.75-.56-1.77-1.68-3.09-1.12-1.33-2.84-2.1-1.73-.77-4.01-.77-4.44 0-6.99 2.53-2.55 2.54-3.26 7.18m26.15 6.19h-26.36q.25 3.28 1.17 5.66.91 2.39 2.4 3.94 1.5 1.56 3.55 2.33t4.54.77 4.3-.59q1.81-.58 3.15-1.28 1.35-.71 2.37-1.29t1.97-.58q1.29 0 1.91.96l2.95 3.73q-1.71 1.99-3.82 3.34-2.12 1.35-4.42 2.16t-4.69 1.14-4.63.33q-4.44 0-8.26-1.47-3.81-1.47-6.64-4.36-2.82-2.88-4.44-7.14-1.62-4.25-1.62-9.85 0-4.36 1.42-8.2 1.41-3.84 4.04-6.68 2.64-2.84 6.43-4.5 3.8-1.66 8.57-1.66 4.03 0 7.43 1.28 3.41 1.29 5.85 3.76 2.45 2.47 3.84 6.06t1.39 8.19q0 2.33-.5 3.14-.49.81-1.9.81m36.81 7.38v-19.09q-1.75-2.11-3.8-2.98-2.06-.88-4.42-.88-2.32 0-4.19.88-1.87.87-3.2 2.63t-2.03 4.48q-.71 2.72-.71 6.41 0 3.74.6 6.33.61 2.6 1.73 4.24t2.74 2.36q1.61.73 3.61.73 3.19 0 5.43-1.33t4.24-3.78m0-49.05h10.25v61.67h-6.27q-2.03 0-2.57-1.87l-.87-4.11q-2.58 2.95-5.92 4.78-3.34 1.82-7.78 1.82-3.49 0-6.39-1.45-2.91-1.45-5-4.21-2.1-2.76-3.24-6.83t-1.14-9.3q0-4.73 1.29-8.79 1.28-4.07 3.69-7.06t5.77-4.67 7.55-1.68q3.57 0 6.1 1.12t4.53 3.03zm20.7 19.09h10.3v42.58h-10.3zm11.71-12.41q0 1.33-.54 2.49t-1.43 2.04q-.9.87-2.1 1.39t-2.57.52q-1.33 0-2.51-.52-1.19-.52-2.06-1.39-.87-.88-1.39-2.04t-.52-2.49q0-1.37.52-2.57t1.39-2.08q.87-.87 2.06-1.39 1.18-.51 2.51-.51 1.37 0 2.57.51 1.2.52 2.1 1.39.89.88 1.43 2.08t.54 2.57m23.24 55.65q-5.56 0-8.53-3.13t-2.97-8.65v-23.78h-4.36q-.83 0-1.41-.54t-.58-1.62v-4.07l6.85-1.12 2.16-11.62q.21-.83.79-1.28.58-.46 1.49-.46h5.31v13.4h11.37v7.31h-11.37v23.07q0 1.99.98 3.12.97 1.12 2.67 1.12.96 0 1.6-.23.65-.23 1.12-.48.48-.25.85-.48.38-.23.75-.23.46 0 .75.23t.62.69l3.07 4.98q-2.24 1.86-5.14 2.82-2.91.95-6.02.95m39.17-11.66v-7.18q-4.44.21-7.47.77t-4.85 1.43q-1.83.87-2.62 2.04-.78 1.16-.78 2.53 0 2.7 1.59 3.86 1.6 1.16 4.17 1.16 3.16 0 5.46-1.14t4.5-3.47m-21.66-22.37-1.83-3.27q7.35-6.73 17.68-6.73 3.74 0 6.69 1.23 2.94 1.22 4.98 3.4 2.03 2.18 3.09 5.21t1.06 6.64v26.89h-4.65q-1.46 0-2.24-.44-.79-.43-1.25-1.76l-.91-3.07q-1.62 1.45-3.16 2.55-1.53 1.1-3.19 1.85t-3.55 1.14-4.17.39q-2.7 0-4.98-.72-2.28-.73-3.94-2.18t-2.58-3.61q-.91-2.16-.91-5.02 0-1.62.54-3.22t1.76-3.05q1.23-1.45 3.18-2.74t4.79-2.24q2.85-.95 6.62-1.56 3.78-.6 8.63-.72v-2.49q0-4.28-1.82-6.33-1.83-2.05-5.27-2.05-2.49 0-4.13.58t-2.89 1.3q-1.24.73-2.26 1.31-1.01.58-2.26.58-1.08 0-1.83-.56-.74-.56-1.2-1.31m55.49 34.03q-5.56 0-8.53-3.13t-2.97-8.65v-23.78h-4.36q-.83 0-1.41-.54t-.58-1.62v-4.07l6.85-1.12 2.16-11.62q.2-.83.79-1.28.58-.46 1.49-.46h5.31v13.4h11.37v7.31h-11.37v23.07q0 1.99.98 3.12.97 1.12 2.67 1.12.96 0 1.6-.23t1.12-.48.85-.48q.38-.23.75-.23.46 0 .75.23t.62.69l3.07 4.98q-2.24 1.86-5.15 2.82-2.9.95-6.01.95m17.01-43.24h10.29v42.58h-10.29zm11.7-12.41q0 1.33-.54 2.49-.53 1.16-1.43 2.04-.89.87-2.09 1.39-1.21.52-2.58.52-1.32 0-2.51-.52-1.18-.52-2.05-1.39-.87-.88-1.39-2.04t-.52-2.49q0-1.37.52-2.57t1.39-2.08q.87-.87 2.05-1.39 1.19-.51 2.51-.51 1.37 0 2.58.51 1.2.52 2.09 1.39.9.88 1.43 2.08.54 1.2.54 2.57m27.89 11.75q4.73 0 8.61 1.53 3.88 1.54 6.64 4.36t4.26 6.89q1.49 4.07 1.49 9.09 0 5.06-1.49 9.13-1.5 4.06-4.26 6.93-2.76 2.86-6.64 4.4-3.88 1.53-8.61 1.53-4.77 0-8.67-1.53-3.9-1.54-6.66-4.4-2.76-2.87-4.28-6.93-1.51-4.07-1.51-9.13 0-5.02 1.51-9.09 1.52-4.07 4.28-6.89t6.66-4.36q3.9-1.53 8.67-1.53m0 35.98q5.31 0 7.87-3.57 2.55-3.57 2.55-10.46t-2.55-10.5q-2.56-3.61-7.87-3.61-5.39 0-7.99 3.63-2.59 3.63-2.59 10.48t2.59 10.44q2.6 3.59 7.99 3.59m37.73-33.45.7 3.36q1.29-1.29 2.72-2.39t3.03-1.86q1.6-.77 3.42-1.21 1.83-.43 3.99-.43 3.48 0 6.18 1.18t4.5 3.32q1.81 2.14 2.74 5.1.94 2.97.94 6.54v27.1h-10.26v-27.1q0-3.9-1.78-6.04-1.78-2.13-5.44-2.13-2.65 0-4.98 1.2-2.32 1.2-4.4 3.28v30.79h-10.25v-42.58h6.27q1.99 0 2.62 1.87"/></svg>