<svg xmlns="http://www.w3.org/2000/svg" width="600" height="400" viewBox="0 0 600 400"><rect width="100%" height="100%" fill="#2D3748"/><path fill="#FFFFFF" d="m149.09 176.125-2.18 4.13q-.39.68-.83.99t-1.09.31q-.68 0-1.48-.5-.8-.51-1.9-1.12-1.11-.62-2.58-1.12-1.48-.51-3.5-.51-1.82 0-3.18.44-1.37.44-2.29 1.22-.93.78-1.38 1.87-.46 1.09-.46 2.39 0 1.65.93 2.76.92 1.1 2.45 1.88 1.53.79 3.48 1.4 1.95.62 4 1.32 2.04.7 3.99 1.62 1.95.93 3.48 2.34 1.53 1.42 2.45 3.46.93 2.05.93 4.98 0 3.18-1.09 5.96t-3.18 4.84q-2.1 2.07-5.12 3.25-3.02 1.19-6.92 1.19-2.25 0-4.43-.44-2.17-.44-4.17-1.25t-3.75-1.95q-1.76-1.14-3.12-2.54l2.56-4.19q.33-.45.85-.76t1.1-.31q.81 0 1.76.67.94.66 2.24 1.47 1.3.82 3.04 1.48 1.74.67 4.17.67 3.74 0 5.79-1.77t2.05-5.09q0-1.85-.93-3.02-.92-1.17-2.45-1.97-1.53-.79-3.48-1.34-1.95-.56-3.96-1.21-2.02-.65-3.97-1.56t-3.48-2.37q-1.52-1.46-2.45-3.66-.93-2.19-.93-5.41 0-2.56 1.03-5 1.02-2.44 2.97-4.33 1.95-1.88 4.81-3.02t6.56-1.14q4.16 0 7.68 1.3 3.51 1.31 5.98 3.64m15.21-5.72v18.53q1.94-1.82 4.29-2.96 2.34-1.14 5.49-1.14 2.73 0 4.84.93t3.53 2.6q1.41 1.67 2.14 4 .73 2.32.73 5.12v21.22h-8.02v-21.22q0-3.06-1.4-4.73-1.4-1.68-4.26-1.68-2.08 0-3.9.95-1.82.94-3.44 2.56v24.12h-8.03v-48.3zm28.89 14.96h8.06v33.34h-8.06zm9.16-9.72q0 1.04-.42 1.95t-1.12 1.59-1.64 1.09-2.02.41q-1.04 0-1.96-.41-.93-.41-1.61-1.09t-1.09-1.59-.41-1.95q0-1.07.41-2.02.41-.94 1.09-1.62.68-.69 1.61-1.09.92-.41 1.96-.41 1.08 0 2.02.41.94.4 1.64 1.09.7.68 1.12 1.62.42.95.42 2.02m15.11 19.46v14.96q1.37 1.65 2.98 2.33 1.61.69 3.49.69 1.82 0 3.28-.69 1.47-.68 2.49-2.07 1.03-1.4 1.58-3.53t.55-5.02q0-2.93-.47-4.96t-1.35-3.3-2.13-1.85q-1.25-.59-2.84-.59-2.5 0-4.26 1.06t-3.32 2.97m-1.07-8.28.65 3.08q2.05-2.3 4.65-3.73t6.11-1.43q2.73 0 4.99 1.13 2.26 1.14 3.9 3.3t2.53 5.33q.9 3.17.9 7.27 0 3.73-1.01 6.92-1.01 3.18-2.88 5.52-1.86 2.34-4.51 3.66t-5.93 1.32q-2.8 0-4.78-.86-1.99-.87-3.55-2.39v13.65h-8.02v-44.23h4.91q1.56 0 2.04 1.46m79.3 20.8q.72 0 1.27.55l3.45 3.74q-2.86 3.54-7.04 5.43-4.18 1.88-10.03 1.88-5.23 0-9.41-1.79-4.17-1.79-7.13-4.97-2.96-3.19-4.53-7.61-1.58-4.42-1.58-9.65 0-5.3 1.69-9.7t4.76-7.59q3.07-3.18 7.33-4.95 4.26-1.78 9.43-1.78 5.13 0 9.11 1.69 3.98 1.7 6.78 4.42l-2.93 4.07q-.26.39-.66.68-.41.29-1.12.29-.49 0-1.01-.27-.52-.28-1.14-.69-.62-.4-1.43-.89t-1.88-.89q-1.08-.41-2.49-.69-1.41-.27-3.27-.27-3.15 0-5.77 1.12-2.61 1.12-4.5 3.25-1.88 2.13-2.92 5.2t-1.04 7q0 3.97 1.12 7.05 1.12 3.09 3.04 5.2 1.92 2.12 4.52 3.24t5.59 1.12q1.78 0 3.23-.19 1.45-.2 2.66-.62 1.22-.43 2.31-1.09 1.09-.67 2.16-1.64.33-.29.69-.47.35-.18.74-.18m24.22-22.79q3.7 0 6.74 1.21 3.04 1.2 5.2 3.41t3.33 5.39q1.17 3.19 1.17 7.12 0 3.97-1.17 7.15-1.17 3.19-3.33 5.43t-5.2 3.44q-3.04 1.21-6.74 1.21-3.74 0-6.8-1.21-3.05-1.2-5.21-3.44t-3.35-5.43q-1.19-3.18-1.19-7.15 0-3.93 1.19-7.12 1.19-3.18 3.35-5.39t5.21-3.41q3.06-1.21 6.8-1.21m0 28.18q4.16 0 6.15-2.79 2-2.8 2-8.19 0-5.4-2-8.22-1.99-2.83-6.15-2.83-4.23 0-6.26 2.84t-2.03 8.21q0 5.36 2.03 8.17t6.26 2.81m48.58-23.53-2.11 2.93q-.36.45-.7.71t-.99.26q-.62 0-1.2-.37-.59-.38-1.4-.85t-1.93-.84q-1.12-.38-2.78-.38-2.11 0-3.71.77-1.59.76-2.65 2.19-1.05 1.43-1.57 3.46-.52 2.04-.52 4.6 0 2.67.57 4.75t1.64 3.49q1.07 1.42 2.6 2.15t3.44.73q1.92 0 3.11-.47 1.18-.48 2-1.04.81-.57 1.41-1.04t1.35-.47q.97 0 1.46.74l2.31 2.93q-1.33 1.56-2.89 2.61-1.56 1.06-3.24 1.69-1.67.64-3.44.9t-3.53.26q-3.09 0-5.82-1.16-2.73-1.15-4.77-3.36-2.05-2.21-3.24-5.41-1.18-3.2-1.18-7.3 0-3.67 1.05-6.81 1.06-3.13 3.11-5.42 2.04-2.3 5.07-3.59 3.02-1.31 6.95-1.31 3.74 0 6.55 1.21 2.81 1.2 5.05 3.44m5.33-19.08h8.03v27.66h1.5q.81 0 1.28-.21t.96-.86l8.29-10.24q.52-.68 1.15-1.04.63-.35 1.64-.35h7.35l-10.37 12.38q-1.11 1.46-2.41 2.24.69.49 1.22 1.14.54.65 1.03 1.39l11.11 16.19h-7.25q-.94 0-1.62-.31t-1.14-1.12l-8.51-12.64q-.46-.75-.95-.98-.48-.23-1.46-.23h-1.82v15.28h-8.03zm42.77 24.7v14.96q1.37 1.65 2.98 2.33 1.61.69 3.49.69 1.82 0 3.28-.69 1.47-.68 2.49-2.07 1.02-1.4 1.58-3.53.55-2.13.55-5.02 0-2.93-.47-4.96t-1.35-3.3-2.13-1.85q-1.25-.59-2.84-.59-2.51 0-4.26 1.06-1.76 1.06-3.32 2.97m-1.07-8.28.65 3.08q2.05-2.3 4.65-3.73t6.11-1.43q2.73 0 4.99 1.13 2.26 1.14 3.9 3.3t2.53 5.33q.9 3.17.9 7.27 0 3.73-1.01 6.92-1.01 3.18-2.88 5.52t-4.52 3.66q-2.64 1.32-5.93 1.32-2.79 0-4.77-.86-1.99-.87-3.55-2.39v13.65h-8.02v-44.23h4.9q1.56 0 2.05 1.46m30.23-1.46h8.06v33.34h-8.06zm9.16-9.72q0 1.04-.42 1.95t-1.12 1.59-1.64 1.09q-.95.41-2.02.41-1.04 0-1.97-.41-.92-.41-1.6-1.09-.69-.68-1.09-1.59-.41-.91-.41-1.95 0-1.07.41-2.02.4-.94 1.09-1.62.68-.69 1.6-1.09.93-.41 1.97-.41 1.07 0 2.02.41.94.4 1.64 1.09.7.68 1.12 1.62.42.95.42 2.02m18.2 43.58q-4.35 0-6.68-2.45-2.32-2.46-2.32-6.78v-18.62h-3.41q-.65 0-1.11-.43-.45-.42-.45-1.26v-3.19l5.36-.88 1.69-9.1q.16-.65.62-1 .45-.36 1.17-.36h4.16v10.5h8.9v5.72h-8.9v18.07q0 1.56.76 2.43.76.88 2.1.88.74 0 1.25-.18.5-.18.87-.37.38-.2.67-.37.29-.18.59-.18.35 0 .58.18.23.17.49.53l2.4 3.9q-1.75 1.46-4.03 2.21-2.27.75-4.71.75"/></svg>