<svg xmlns="http://www.w3.org/2000/svg" width="40" height="40" viewBox="0 0 40 40"><rect width="100%" height="100%" fill="#F59E0B"/><path fill="#FFFFFF" d="M11.68 21.595h4.14l-1.58-4.33q-.12-.29-.24-.69-.13-.39-.26-.85-.11.46-.24.86-.12.4-.24.69zm3.31-8.1 5.11 13.01h-1.87q-.32 0-.52-.16-.19-.16-.29-.39l-.97-2.65h-5.4l-.97 2.65q-.07.21-.28.38-.2.17-.51.17H7.4l5.12-13.01zm9.2 8.1h4.14l-1.59-4.33q-.12-.29-.24-.69-.13-.39-.25-.85-.12.46-.25.86-.12.4-.24.69zm3.3-8.1 5.11 13.01h-1.87q-.32 0-.51-.16-.2-.16-.3-.39l-.97-2.65h-5.39l-.98 2.65q-.07.21-.28.38-.2.17-.51.17H19.9l5.12-13.01z"/></svg>