<svg xmlns="http://www.w3.org/2000/svg" width="40" height="40" viewBox="0 0 40 40"><rect width="100%" height="100%" fill="#EC4899"/><path fill="#FFFFFF" d="M11.09 19.67h1.59q.73 0 1.26-.18.54-.18.89-.5.34-.32.51-.76.17-.43.17-.96 0-1.04-.68-1.6-.69-.56-2.11-.56h-1.63zm4.73 2.13 3.44 5.07h-2.31q-.66 0-.95-.51l-2.89-4.4q-.16-.25-.35-.35-.2-.11-.58-.11h-1.09v5.37H8.53V13.13h4.19q1.4 0 2.4.29t1.64.82q.65.52.95 1.24.3.73.3 1.6 0 .7-.2 1.32-.21.61-.59 1.12-.38.5-.95.88t-1.29.6q.25.14.46.34.21.19.38.46m7.48-2.13h1.6q.72 0 1.26-.18t.88-.5q.35-.32.52-.76.17-.43.17-.96 0-1.04-.69-1.6t-2.1-.56H23.3zm4.74 2.13 3.43 5.07h-2.3q-.66 0-.95-.51l-2.89-4.4q-.16-.25-.36-.35-.19-.11-.57-.11h-1.1v5.37h-2.55V13.13h4.19q1.4 0 2.4.29t1.64.82q.64.52.95 1.24.3.73.3 1.6 0 .7-.2 1.32-.21.61-.59 1.12-.39.5-.95.88-.57.38-1.29.6.25.14.46.34.2.19.38.46"/></svg>