<svg xmlns="http://www.w3.org/2000/svg" width="40" height="40" viewBox="0 0 40 40"><rect width="100%" height="100%" fill="#F59E0B"/><path fill="#FFFFFF" d="M16.925 22.86q.16 0 .29.13l.79.86q-.66.82-1.62 1.25-.96.44-2.31.44-1.21 0-2.17-.41-.97-.41-1.65-1.15-.68-.73-1.05-1.75-.36-1.02-.36-2.23 0-1.22.39-2.24t1.1-1.75q.71-.74 1.69-1.15.98-.4 2.17-.4t2.11.39q.92.38 1.56 1.02l-.67.93q-.06.09-.16.16-.09.07-.26.07-.11 0-.23-.07-.12-.06-.26-.15-.14-.1-.33-.21t-.44-.21q-.24-.09-.57-.15-.33-.07-.75-.07-.73 0-1.33.26-.61.26-1.04.75-.44.49-.68 1.2t-.24 1.62.26 1.63q.26.71.7 1.2.44.48 1.04.74t1.29.26q.42 0 .75-.05.33-.04.62-.14.28-.1.53-.25t.5-.38q.07-.07.15-.11.09-.04.18-.04m12.71-8.28h1.52v10.84h-1.78v-7q0-.42.05-.91l-3.28 6.16q-.23.44-.71.44h-.29q-.48 0-.71-.44l-3.31-6.18q.02.24.03.48.02.24.02.45v7h-1.78V14.58h1.76q.09.01.17.04t.15.1q.06.07.12.18l3.25 6.02q.12.24.23.5.11.25.22.52.1-.28.21-.54.12-.25.24-.49l3.21-6.01q.06-.11.12-.18.07-.07.15-.1t.18-.04z"/></svg>