<svg xmlns="http://www.w3.org/2000/svg" width="600" height="400" viewBox="0 0 600 400"><rect width="100%" height="100%" fill="#7C3AED"/><path fill="#FFFFFF" d="M157.15 175.875v7.29h-14.39v40.43h-8.88v-40.43h-14.39v-7.29zm19.96 13.33q3.76 0 6.85 1.23 3.08 1.22 5.28 3.46 2.19 2.24 3.38 5.48 1.19 3.23 1.19 7.22 0 4.03-1.19 7.26-1.19 3.24-3.38 5.52-2.2 2.27-5.28 3.49-3.09 1.22-6.85 1.22-3.79 0-6.9-1.22-3.1-1.22-5.29-3.49-2.2-2.28-3.4-5.52-1.21-3.23-1.21-7.26 0-3.99 1.21-7.22 1.2-3.24 3.4-5.48 2.19-2.24 5.29-3.46 3.11-1.23 6.9-1.23m0 28.61q4.23 0 6.25-2.83 2.03-2.84 2.03-8.32t-2.03-8.35q-2.02-2.87-6.25-2.87-4.29 0-6.35 2.89t-2.06 8.33q0 5.45 2.06 8.3t6.35 2.85m43.96-28.08h8.15v33.86h-4.98q-1.62 0-2.05-1.49l-.56-2.7q-2.08 2.11-4.59 3.41-2.51 1.31-5.91 1.31-2.77 0-4.9-.94-2.12-.94-3.58-2.66-1.45-1.72-2.19-4.07-.74-2.36-.74-5.2v-21.52h8.15v21.52q0 3.1 1.43 4.8 1.44 1.7 4.31 1.7 2.11 0 3.96-.94t3.5-2.59zm23.39 2.05.5 3.83q1.58-3.04 3.76-4.77t5.15-1.73q2.34 0 3.76 1.02l-.53 6.1q-.16.6-.48.84-.31.25-.84.25-.49 0-1.47-.16-.97-.17-1.89-.17-1.36 0-2.41.4-1.06.39-1.9 1.14-.84.74-1.48 1.79-.65 1.06-1.21 2.41v20.86h-8.15v-33.86h4.79q1.25 0 1.74.45.5.44.66 1.6m24.49-.56.56 2.67q1.02-1.02 2.16-1.9 1.14-.87 2.41-1.48t2.72-.96q1.46-.35 3.17-.35 2.77 0 4.92.94 2.14.94 3.58 2.64t2.18 4.06.74 5.2v21.55h-8.15v-21.55q0-3.1-1.42-4.8t-4.32-1.7q-2.11 0-3.96.96-1.85.95-3.5 2.6v24.49h-8.15v-33.86h4.98q1.59 0 2.08 1.49m48.05 23.62v-5.7q-3.53.16-5.94.61-2.41.44-3.86 1.13-1.45.7-2.08 1.62-.63.93-.63 2.01 0 2.15 1.27 3.07 1.27.93 3.32.93 2.51 0 4.34-.91t3.58-2.76m-17.23-17.78-1.45-2.61q5.84-5.34 14.06-5.34 2.97 0 5.31.97t3.96 2.7q1.62 1.74 2.46 4.15.84 2.4.84 5.28v21.38h-3.69q-1.16 0-1.79-.35-.62-.34-.99-1.4l-.72-2.44q-1.29 1.15-2.51 2.03-1.22.87-2.54 1.47-1.32.59-2.82.9-1.5.32-3.32.32-2.14 0-3.96-.58-1.81-.58-3.13-1.73-1.32-1.16-2.05-2.87-.73-1.72-.73-4 0-1.28.43-2.55t1.4-2.43q.98-1.15 2.53-2.18 1.55-1.02 3.81-1.78t5.26-1.24q3.01-.47 6.87-.57v-1.98q0-3.4-1.45-5.04-1.46-1.63-4.19-1.63-1.98 0-3.29.46-1.3.46-2.29 1.04t-1.8 1.04-1.8.46q-.86 0-1.45-.44-.59-.45-.96-1.04m40.99 26.53h-8.15v-33.86h4.98q1.58 0 2.08 1.49l.53 2.5q.89-.99 1.86-1.81.98-.83 2.08-1.42 1.11-.59 2.38-.94t2.79-.35q3.2 0 5.26 1.74 2.06 1.73 3.08 4.6.8-1.68 1.98-2.89 1.19-1.2 2.61-1.96t3.02-1.12q1.6-.37 3.22-.37 2.8 0 4.98.86t3.66 2.51q1.49 1.65 2.26 4.03.78 2.37.78 5.44v21.55h-8.15v-21.55q0-3.23-1.42-4.87-1.42-1.63-4.16-1.63-1.25 0-2.32.43-1.08.43-1.89 1.24-.8.8-1.27 2.03-.46 1.22-.46 2.8v21.55h-8.18v-21.55q0-3.4-1.37-4.95t-4.01-1.55q-1.78 0-3.32.87-1.53.88-2.85 2.4zm53.56-20.82h15.38q0-1.59-.45-2.99t-1.34-2.46q-.89-1.05-2.26-1.66-1.37-.62-3.18-.62-3.53 0-5.56 2.02-2.03 2.01-2.59 5.71m20.79 4.91h-20.96q.2 2.61.93 4.51.72 1.9 1.91 3.13 1.19 1.24 2.82 1.85 1.64.61 3.62.61t3.41-.46q1.44-.46 2.51-1.02t1.88-1.03q.81-.46 1.57-.46 1.02 0 1.52.76l2.34 2.97q-1.35 1.58-3.04 2.66-1.68 1.07-3.51 1.71-1.83.65-3.73.91t-3.68.26q-3.53 0-6.57-1.17-3.03-1.17-5.28-3.46-2.24-2.3-3.53-5.68t-1.29-7.84q0-3.46 1.13-6.51 1.12-3.06 3.21-5.32 2.1-2.26 5.12-3.58t6.81-1.32q3.2 0 5.91 1.03 2.71 1.02 4.65 2.98 1.95 1.97 3.06 4.82 1.1 2.86 1.1 6.52 0 1.85-.39 2.49-.4.64-1.52.64m15.08-16.46.56 2.67q1.02-1.02 2.16-1.9 1.14-.87 2.41-1.48t2.72-.96 3.17-.35q2.77 0 4.92.94 2.14.94 3.58 2.64 1.43 1.7 2.18 4.06.74 2.36.74 5.2v21.55h-8.15v-21.55q0-3.1-1.42-4.8t-4.32-1.7q-2.12 0-3.96.96-1.85.95-3.5 2.6v24.49h-8.15v-33.86h4.98q1.58 0 2.08 1.49m41.45 32.9q-4.43 0-6.79-2.49-2.35-2.5-2.35-6.88v-18.91h-3.47q-.66 0-1.12-.43t-.46-1.29v-3.23l5.44-.89 1.72-9.24q.16-.66.62-1.03.47-.36 1.19-.36h4.23v10.66h9.04v5.81h-9.04v18.34q0 1.59.77 2.48.78.89 2.13.89.76 0 1.27-.18t.89-.38.68-.38.59-.18q.37 0 .6.18t.49.54l2.44 3.96q-1.78 1.49-4.09 2.25t-4.78.76"/></svg>