<svg xmlns="http://www.w3.org/2000/svg" width="600" height="400" viewBox="0 0 600 400"><rect width="100%" height="100%" fill="#2F855A"/><path fill="#FFFFFF" d="M133.015 214.445h10.74q2.97 0 4.98-.72 2.01-.71 3.22-1.89 1.2-1.19 1.74-2.77.53-1.58.53-3.35 0-1.86-.59-3.34t-1.86-2.53q-1.26-1.05-3.26-1.6-1.99-.55-4.8-.55h-10.7zm9.04-40.61h-9.04v16.51h8.45q5.45 0 8.24-1.98 2.78-1.97 2.78-6.28 0-4.46-2.53-6.36-2.52-1.89-7.9-1.89m-19.67-8.22h19.67q5.61 0 9.6 1.07t6.54 3.04q2.55 1.98 3.73 4.78 1.19 2.81 1.19 6.32 0 2.01-.59 3.85-.6 1.84-1.84 3.44-1.25 1.6-3.16 2.9-1.92 1.31-4.56 2.21 11.77 2.65 11.77 12.72 0 3.64-1.38 6.72-1.39 3.08-4.03 5.31-2.65 2.23-6.52 3.5-3.87 1.26-8.85 1.26h-21.57zm50.8 16.59h9.8v40.53h-9.8zm11.14-11.81q0 1.27-.51 2.37-.52 1.11-1.37 1.94t-1.99 1.32q-1.15.49-2.45.49-1.26 0-2.39-.49t-1.96-1.32q-.82-.83-1.32-1.94-.49-1.1-.49-2.37 0-1.3.49-2.45.5-1.14 1.32-1.97.83-.83 1.96-1.32 1.13-.5 2.39-.5 1.3 0 2.45.5 1.14.49 1.99 1.32t1.37 1.97q.51 1.15.51 2.45m26.54 11.18q4.51 0 8.2 1.46t6.32 4.15 4.05 6.56 1.42 8.65q0 4.82-1.42 8.69t-4.05 6.59q-2.63 2.73-6.32 4.19t-8.2 1.46q-4.54 0-8.25-1.46t-6.34-4.19q-2.63-2.72-4.07-6.59t-1.44-8.69q0-4.78 1.44-8.65t4.07-6.56 6.34-4.15 8.25-1.46m0 34.25q5.06 0 7.49-3.4t2.43-9.95q0-6.56-2.43-10-2.43-3.43-7.49-3.43-5.13 0-7.6 3.45-2.47 3.46-2.47 9.98 0 6.51 2.47 9.93t7.6 3.42m62.06-44.83-2.65 5.01q-.47.83-1.01 1.21-.53.37-1.32.37-.83 0-1.8-.61-.96-.61-2.31-1.36-1.34-.75-3.14-1.37-1.79-.61-4.24-.61-2.22 0-3.87.53-1.66.54-2.79 1.49-1.12.94-1.68 2.27-.55 1.32-.55 2.9 0 2.01 1.13 3.36 1.12 1.34 2.98 2.29 1.85.95 4.22 1.7t4.86 1.6 4.86 1.97q2.37 1.13 4.23 2.85 1.85 1.71 2.98 4.2t1.13 6.05q0 3.87-1.33 7.24-1.32 3.38-3.87 5.89t-6.22 3.95-8.41 1.44q-2.73 0-5.38-.53-2.64-.53-5.07-1.52t-4.56-2.37q-2.14-1.38-3.8-3.08l3.12-5.1q.4-.55 1.03-.93.63-.37 1.34-.37.99 0 2.14.81 1.14.81 2.72 1.79 1.58.99 3.7 1.8 2.11.81 5.07.81 4.54 0 7.03-2.15t2.49-6.18q0-2.25-1.12-3.68-1.13-1.42-2.99-2.39-1.85-.96-4.22-1.63-2.37-.68-4.82-1.47t-4.82-1.89q-2.37-1.11-4.23-2.89-1.85-1.77-2.98-4.44t-1.13-6.58q0-3.12 1.25-6.08 1.24-2.96 3.61-5.25t5.85-3.68q3.48-1.38 7.98-1.38 5.05 0 9.32 1.58t7.27 4.43m18.48 23.06v18.17q1.66 2.02 3.62 2.85 1.95.83 4.24.83 2.22 0 3.99-.83 1.78-.83 3.03-2.53 1.24-1.7 1.91-4.29.67-2.58.67-6.1 0-3.55-.57-6.02t-1.64-4.01-2.59-2.25q-1.52-.72-3.45-.72-3.04 0-5.18 1.29-2.13 1.28-4.03 3.61m-1.3-10.07.79 3.75q2.49-2.8 5.65-4.54t7.43-1.74q3.31 0 6.06 1.38 2.74 1.39 4.74 4.01 1.99 2.63 3.08 6.48t1.09 8.83q0 4.54-1.23 8.41-1.22 3.88-3.49 6.72-2.28 2.84-5.49 4.44-3.22 1.6-7.21 1.6-3.4 0-5.81-1.04-2.41-1.05-4.31-2.91v16.59h-9.75v-53.76h5.96q1.9 0 2.49 1.78m46.18-19.95v22.52q2.37-2.21 5.21-3.6 2.84-1.38 6.68-1.38 3.31 0 5.88 1.13 2.57 1.12 4.29 3.16 1.72 2.03 2.6 4.86.89 2.82.89 6.22v25.79h-9.75v-25.79q0-3.72-1.7-5.75-1.7-2.04-5.18-2.04-2.52 0-4.74 1.15-2.21 1.15-4.18 3.12v29.31h-9.76v-58.7zm42.5 33.78h18.41q0-1.9-.54-3.58-.53-1.68-1.6-2.94-1.06-1.27-2.7-2t-3.82-.73q-4.22 0-6.65 2.41t-3.1 6.84m24.88 5.88h-25.08q.24 3.12 1.11 5.39t2.29 3.76q1.42 1.48 3.38 2.21 1.95.73 4.32.73t4.09-.55q1.72-.56 3-1.23t2.25-1.22q.97-.56 1.88-.56 1.22 0 1.82.91l2.8 3.56q-1.62 1.89-3.63 3.18-2.02 1.28-4.21 2.05t-4.46 1.09q-2.28.31-4.41.31-4.23 0-7.86-1.4t-6.32-4.15q-2.69-2.74-4.23-6.79t-1.54-9.38q0-4.15 1.35-7.8 1.34-3.66 3.85-6.36 2.51-2.71 6.12-4.29t8.16-1.58q3.83 0 7.07 1.23 3.24 1.22 5.57 3.57t3.65 5.77q1.32 3.41 1.32 7.8 0 2.21-.47 2.98t-1.82.77m18.21-19.04.6 4.58q1.89-3.63 4.5-5.7 2.61-2.08 6.16-2.08 2.8 0 4.5 1.23l-.63 7.3q-.2.72-.57 1.01-.38.3-1.01.3-.59 0-1.76-.2-1.16-.2-2.27-.2-1.62 0-2.88.48-1.27.47-2.27 1.36-1.01.89-1.78 2.15-.77 1.27-1.44 2.89v24.96h-9.76v-40.53h5.73q1.5 0 2.09.54.6.53.79 1.91m28.56 13.16h18.41q0-1.9-.53-3.58-.54-1.68-1.6-2.94-1.07-1.27-2.71-2t-3.81-.73q-4.23 0-6.66 2.41t-3.1 6.84m24.89 5.88h-25.09q.24 3.12 1.11 5.39t2.29 3.76q1.42 1.48 3.38 2.21 1.95.73 4.32.73t4.09-.55q1.72-.56 3-1.23 1.29-.67 2.26-1.22.96-.56 1.87-.56 1.23 0 1.82.91l2.8 3.56q-1.62 1.89-3.63 3.18-2.02 1.28-4.21 2.05t-4.46 1.09q-2.27.31-4.41.31-4.22 0-7.86-1.4-3.63-1.4-6.32-4.15-2.68-2.74-4.22-6.79t-1.54-9.38q0-4.15 1.34-7.8 1.34-3.66 3.85-6.36 2.51-2.71 6.12-4.29 3.62-1.58 8.16-1.58 3.83 0 7.07 1.23 3.24 1.22 5.57 3.57t3.65 5.77q1.33 3.41 1.33 7.8 0 2.21-.48 2.98-.47.77-1.81.77"/></svg>