<svg xmlns="http://www.w3.org/2000/svg" width="150" height="150" viewBox="0 0 150 150"><rect width="100%" height="100%" fill="#2F855A"/><path fill="#FFFFFF" d="M42.795 93.47h9.8q2.7 0 4.53-.65 1.84-.65 2.94-1.73 1.09-1.08 1.58-2.52t.49-3.06q0-1.69-.54-3.04t-1.7-2.3q-1.15-.96-2.97-1.46-1.81-.5-4.37-.5h-9.76zm8.25-37.01h-8.25v15.05h7.71q4.97 0 7.5-1.8 2.54-1.8 2.54-5.72 0-4.07-2.3-5.8-2.31-1.73-7.2-1.73m-17.93-7.49h17.93q5.11 0 8.75.98 3.63.97 5.95 2.77 2.33 1.8 3.41 4.35 1.08 2.56 1.08 5.76 0 1.84-.54 3.51-.54 1.68-1.68 3.14-1.13 1.45-2.88 2.64-1.74 1.19-4.16 2.02 10.73 2.41 10.73 11.59 0 3.31-1.26 6.12t-3.67 4.84q-2.41 2.04-5.94 3.19t-8.06 1.15h-19.66zm83.77 0v7.96h-15.69v44.1h-9.69v-44.1h-15.69v-7.96z"/></svg>