<svg xmlns="http://www.w3.org/2000/svg" width="150" height="150" viewBox="0 0 150 150"><rect width="100%" height="100%" fill="#1A202C"/><path fill="#FFFFFF" d="M68.255 88.185q.76 0 1.35.58l3.65 3.97q-3.03 3.76-7.47 5.76-4.43 2-10.64 2-5.56 0-9.99-1.9-4.43-1.89-7.57-5.27-3.14-3.39-4.81-8.08-1.68-4.69-1.68-10.24 0-5.63 1.8-10.3 1.79-4.68 5.05-8.06t7.78-5.26 10.01-1.88q5.45 0 9.67 1.79 4.23 1.8 7.2 4.7l-3.11 4.31q-.27.41-.71.72-.43.31-1.19.31-.51 0-1.07-.29-.55-.29-1.2-.72-.66-.43-1.52-.95t-2-.95-2.64-.73q-1.5-.29-3.47-.29-3.34 0-6.12 1.19t-4.78 3.45-3.11 5.52q-1.1 3.26-1.1 7.44 0 4.21 1.19 7.48 1.19 3.28 3.23 5.52 2.03 2.25 4.79 3.44t5.94 1.19q1.89 0 3.43-.21 1.53-.21 2.83-.66 1.29-.45 2.45-1.15 1.15-.71 2.29-1.74.35-.32.73-.5.38-.19.79-.19m45.64 0q.76 0 1.35.58l3.66 3.97q-3.04 3.76-7.47 5.76-4.44 2-10.65 2-5.55 0-9.98-1.9-4.44-1.89-7.58-5.27-3.14-3.39-4.81-8.08t-1.67-10.24q0-5.63 1.79-10.3 1.79-4.68 5.05-8.06 3.27-3.38 7.78-5.26 4.52-1.88 10.01-1.88 5.45 0 9.68 1.79 4.22 1.8 7.19 4.7l-3.1 4.31q-.28.41-.71.72t-1.19.31q-.52 0-1.07-.29t-1.21-.72q-.65-.43-1.52-.95-.86-.52-2-.95t-2.64-.73q-1.5-.29-3.46-.29-3.35 0-6.13 1.19t-4.78 3.45-3.1 5.52q-1.11 3.26-1.11 7.44 0 4.21 1.19 7.48 1.19 3.28 3.23 5.52 2.04 2.25 4.8 3.44t5.93 1.19q1.9 0 3.43-.21 1.54-.21 2.83-.66 1.3-.45 2.45-1.15 1.16-.71 2.3-1.74.34-.32.72-.5.38-.19.79-.19"/></svg>