<svg xmlns="http://www.w3.org/2000/svg" width="600" height="400" viewBox="0 0 600 400"><rect width="100%" height="100%" fill="#DC2626"/><path fill="#FFFFFF" d="M133.115 216.42h18.5v7.1h-27.1v-46.27h8.6zm29.64-13.09h14.91q0-1.54-.43-2.9-.44-1.36-1.3-2.38-.86-1.03-2.19-1.62t-3.09-.59q-3.42 0-5.39 1.95t-2.51 5.54m20.16 4.77h-20.32q.19 2.52.89 4.36.71 1.84 1.86 3.04t2.73 1.8q1.59.59 3.51.59t3.31-.45 2.43-.99q1.04-.55 1.83-.99.78-.45 1.52-.45.99 0 1.47.73l2.27 2.88q-1.31 1.54-2.94 2.58-1.64 1.04-3.41 1.66-1.78.63-3.62.88-1.84.26-3.57.26-3.42 0-6.36-1.14-2.95-1.13-5.12-3.36-2.18-2.22-3.43-5.5t-1.25-7.6q0-3.36 1.09-6.32t3.12-5.15 4.96-3.47 6.61-1.28q3.1 0 5.73.99 2.62.99 4.51 2.89 1.89 1.91 2.96 4.68 1.07 2.76 1.07 6.32 0 1.79-.38 2.41-.39.63-1.47.63m25.12 6.94v-5.54q-3.43.16-5.76.6-2.34.43-3.75 1.1t-2.01 1.57q-.61.89-.61 1.95 0 2.08 1.23 2.98 1.23.89 3.22.89 2.43 0 4.2-.88 1.78-.88 3.48-2.67m-16.71-17.25-1.41-2.53q5.67-5.18 13.64-5.18 2.88 0 5.15.94 2.27.95 3.84 2.63t2.38 4.01q.82 2.34.82 5.12v20.74h-3.59q-1.12 0-1.72-.34-.61-.33-.96-1.36l-.71-2.36q-1.25 1.12-2.43 1.96-1.18.85-2.46 1.43-1.28.57-2.74.88-1.46.3-3.22.3-2.08 0-3.84-.56t-3.04-1.68-1.98-2.78q-.7-1.67-.7-3.87 0-1.25.41-2.48.42-1.24 1.36-2.36.95-1.12 2.45-2.11t3.7-1.73q2.19-.73 5.1-1.2 2.91-.46 6.66-.56v-1.92q0-3.29-1.41-4.88-1.41-1.58-4.07-1.58-1.92 0-3.18.45t-2.22 1.01-1.75 1q-.78.45-1.74.45-.83 0-1.41-.43t-.93-1.01m52.45 16v-14.72q-1.34-1.63-2.93-2.3-1.58-.67-3.41-.67-1.79 0-3.23.67t-2.46 2.03q-1.03 1.36-1.57 3.46-.54 2.09-.54 4.94 0 2.88.46 4.88t1.33 3.26q.86 1.27 2.11 1.83t2.78.56q2.47 0 4.2-1.03 1.72-1.02 3.26-2.91m0-37.82h7.9v47.55h-4.83q-1.57 0-1.98-1.44l-.67-3.17q-1.99 2.27-4.56 3.68-2.58 1.41-6 1.41-2.69 0-4.93-1.12t-3.86-3.25q-1.61-2.13-2.49-5.26-.88-3.14-.88-7.17 0-3.65.99-6.78.99-3.14 2.85-5.44 1.85-2.31 4.44-3.6 2.6-1.3 5.83-1.3 2.75 0 4.7.86 1.95.87 3.49 2.34zm21.95 27.36h14.91q0-1.54-.43-2.9t-1.29-2.38q-.87-1.03-2.2-1.62-1.32-.59-3.08-.59-3.43 0-5.4 1.95-1.96 1.95-2.51 5.54m20.16 4.77h-20.32q.19 2.52.9 4.36.7 1.84 1.85 3.04 1.16 1.2 2.74 1.8 1.58.59 3.5.59t3.32-.45q1.39-.45 2.43-.99 1.04-.55 1.82-.99.79-.45 1.52-.45.99 0 1.47.73l2.28 2.88q-1.32 1.54-2.95 2.58t-3.41 1.66q-1.77.63-3.61.88-1.84.26-3.57.26-3.42 0-6.37-1.14-2.94-1.13-5.12-3.36-2.17-2.22-3.42-5.5t-1.25-7.6q0-3.36 1.09-6.32t3.12-5.15 4.96-3.47 6.61-1.28q3.1 0 5.72.99 2.63.99 4.52 2.89 1.88 1.91 2.96 4.68 1.07 2.76 1.07 6.32 0 1.79-.39 2.41-.38.63-1.47.63m14.75-15.43.48 3.71q1.54-2.94 3.65-4.62t4.99-1.68q2.28 0 3.65.99l-.51 5.92q-.16.58-.46.82-.31.24-.82.24-.48 0-1.42-.16-.95-.16-1.84-.16-1.32 0-2.34.38-1.02.39-1.84 1.11t-1.44 1.74-1.17 2.34v20.22h-7.9v-32.83h4.64q1.21 0 1.69.43t.64 1.55m24.8 7.62v14.72q1.35 1.63 2.93 2.3 1.59.67 3.35.67 1.82 0 3.28-.65 1.45-.66 2.48-2.05 1.02-1.39 1.56-3.55.55-2.16.55-5.17 0-5.41-1.79-7.82-1.8-2.42-5.16-2.42-2.27 0-3.96 1.04-1.7 1.04-3.24 2.93m0-24.32v18.75q1.99-2.08 4.4-3.31 2.42-1.23 5.52-1.23 2.85 0 5.14 1.12t3.9 3.21q1.62 2.1 2.48 5.07.87 2.98.87 6.69 0 4-.99 7.27-1 3.26-2.84 5.58t-4.43 3.6-5.76 1.28q-1.53 0-2.78-.3-1.25-.31-2.31-.85-1.05-.55-1.93-1.33t-1.68-1.74l-.35 2.2q-.2.84-.66 1.19t-1.26.35h-5.22v-47.55zm42.95 14.21q3.65 0 6.64 1.18t5.12 3.36 3.28 5.31q1.15 3.14 1.15 7.01 0 3.9-1.15 7.04t-3.28 5.34q-2.13 2.21-5.12 3.4-2.99 1.18-6.64 1.18-3.68 0-6.69-1.18-3.01-1.19-5.14-3.4-2.12-2.2-3.29-5.34t-1.17-7.04q0-3.87 1.17-7.01 1.17-3.13 3.29-5.31 2.13-2.18 5.14-3.36t6.69-1.18m0 27.74q4.09 0 6.06-2.75t1.97-8.07q0-5.31-1.97-8.09-1.97-2.79-6.06-2.79-4.16 0-6.16 2.8t-2 8.08 2 8.05 6.16 2.77m39.58-2.88v-5.54q-3.42.16-5.76.6-2.33.43-3.74 1.1t-2.02 1.57q-.61.89-.61 1.95 0 2.08 1.24 2.98 1.23.89 3.21.89 2.43 0 4.21-.88t3.47-2.67m-16.7-17.25-1.41-2.53q5.66-5.18 13.63-5.18 2.88 0 5.15.94 2.28.95 3.84 2.63 1.57 1.68 2.39 4.01.81 2.34.81 5.12v20.74h-3.58q-1.12 0-1.73-.34-.61-.33-.96-1.36l-.7-2.36q-1.25 1.12-2.43 1.96-1.19.85-2.47 1.43-1.28.57-2.73.88-1.46.3-3.22.3-2.08 0-3.84-.56t-3.04-1.68-1.98-2.78q-.71-1.67-.71-3.87 0-1.25.42-2.48.41-1.24 1.36-2.36.94-1.12 2.45-2.11 1.5-.99 3.69-1.73 2.19-.73 5.11-1.2 2.91-.46 6.65-.56v-1.92q0-3.29-1.41-4.88-1.4-1.58-4.06-1.58-1.92 0-3.18.45-1.27.45-2.23 1.01t-1.74 1q-.79.45-1.75.45-.83 0-1.4-.43-.58-.43-.93-1.01m38.81-5.12.48 3.71q1.54-2.94 3.65-4.62t4.99-1.68q2.28 0 3.65.99l-.51 5.92q-.16.58-.46.82-.31.24-.82.24-.48 0-1.42-.16-.95-.16-1.84-.16-1.32 0-2.34.38-1.02.39-1.84 1.11t-1.44 1.74-1.17 2.34v20.22h-7.9v-32.83h4.64q1.21 0 1.69.43t.64 1.55m37.51 21.12v-14.72q-1.35-1.63-2.93-2.3t-3.41-.67q-1.79 0-3.23.67t-2.46 2.03q-1.03 1.36-1.57 3.46-.55 2.09-.55 4.94 0 2.88.47 4.88.46 2 1.33 3.26.86 1.27 2.11 1.83t2.78.56q2.47 0 4.19-1.03 1.73-1.02 3.27-2.91m0-37.82h7.9v47.55h-4.83q-1.57 0-1.98-1.44l-.68-3.17q-1.98 2.27-4.56 3.68-2.57 1.41-6 1.41-2.68 0-4.92-1.12t-3.86-3.25-2.5-5.26q-.88-3.14-.88-7.17 0-3.65 1-6.78.99-3.14 2.84-5.44 1.86-2.31 4.45-3.6 2.59-1.3 5.83-1.3 2.75 0 4.7.86 1.95.87 3.49 2.34z"/></svg>