<svg xmlns="http://www.w3.org/2000/svg" width="600" height="400" viewBox="0 0 600 400"><rect width="100%" height="100%" fill="#7C3AED"/><path fill="#FFFFFF" d="M160.785 207.64q.81 0 1.43.62l3.87 4.2q-3.21 3.98-7.91 6.1-4.69 2.11-11.26 2.11-5.87 0-10.56-2-4.69-2.01-8.01-5.59-3.33-3.57-5.1-8.54-1.77-4.96-1.77-10.84 0-5.95 1.9-10.89 1.9-4.95 5.35-8.53 3.45-3.57 8.23-5.56t10.59-1.99q5.76 0 10.23 1.9 4.47 1.89 7.61 4.96l-3.28 4.56q-.29.44-.75.77t-1.26.33q-.55 0-1.13-.31t-1.28-.77q-.69-.46-1.6-1-.92-.55-2.12-1.01-1.21-.45-2.79-.76-1.59-.31-3.67-.31-3.54 0-6.48 1.25-2.94 1.26-5.06 3.65-2.11 2.4-3.28 5.84-1.17 3.45-1.17 7.87 0 4.45 1.26 7.92t3.41 5.84q2.16 2.37 5.08 3.63t6.28 1.26q2 0 3.63-.22 1.62-.22 2.99-.69 1.37-.48 2.59-1.22 1.22-.75 2.43-1.85.36-.32.77-.53.4-.2.83-.2m30.41 2.78v-6.32q-3.91.19-6.57.68-2.67.49-4.27 1.26-1.61.76-2.3 1.79-.69 1.02-.69 2.22 0 2.38 1.4 3.4 1.41 1.02 3.67 1.02 2.77 0 4.8-1 2.02-1.01 3.96-3.05m-19.05-19.68-1.61-2.88q6.46-5.91 15.55-5.91 3.28 0 5.88 1.07 2.59 1.08 4.38 3 1.78 1.91 2.71 4.58.94 2.66.94 5.84v23.65h-4.09q-1.28 0-1.97-.38-.7-.39-1.1-1.55l-.8-2.71q-1.42 1.28-2.78 2.25-1.35.97-2.81 1.62-1.46.66-3.12 1.01-1.66.34-3.66.34-2.38 0-4.38-.63-2.01-.64-3.47-1.92t-2.27-3.18q-.8-1.89-.8-4.41 0-1.43.48-2.83.47-1.41 1.55-2.68 1.07-1.28 2.79-2.41t4.22-1.97 5.82-1.37 7.59-.64v-2.19q0-3.76-1.61-5.57-1.6-1.8-4.63-1.8-2.19 0-3.63.51-1.45.51-2.54 1.15-1.1.63-1.99 1.15-.89.51-1.99.51-.95 0-1.61-.5-.65-.49-1.05-1.15m44.27-5.84.55 4.24q1.75-3.36 4.16-5.28 2.41-1.91 5.69-1.91 2.59 0 4.16 1.13l-.58 6.75q-.18.66-.53.93-.35.28-.93.28-.55 0-1.62-.19-1.08-.18-2.1-.18-1.5 0-2.67.44t-2.1 1.26-1.64 1.99-1.33 2.66v23.07h-9.02v-37.45h5.3q1.38 0 1.93.49.55.5.73 1.77m64.42 8.73h17.52v21.35q-4.01 2.96-8.56 4.33-4.54 1.36-9.72 1.36-6.46 0-11.7-2-5.24-2.01-8.94-5.59-3.71-3.57-5.72-8.54-2-4.96-2-10.84 0-5.95 1.93-10.91 1.94-4.97 5.49-8.54 3.56-3.58 8.64-5.55 5.07-1.97 11.38-1.97 3.22 0 6.01.51t5.18 1.4q2.39.9 4.36 2.18 1.97 1.27 3.62 2.81l-2.81 4.45q-.66 1.06-1.72 1.29-1.06.24-2.3-.52-1.2-.7-2.41-1.39-1.2-.7-2.68-1.21t-3.32-.84q-1.85-.32-4.25-.32-3.91 0-7.07 1.31-3.15 1.31-5.38 3.76-2.23 2.44-3.43 5.88-1.21 3.43-1.21 7.66 0 4.53 1.3 8.09 1.3 3.55 3.65 6.02 2.35 2.46 5.68 3.76 3.32 1.29 7.4 1.29 2.92 0 5.22-.62t4.49-1.68V201h-6.64q-.95 0-1.48-.53t-.53-1.29zm45.37 16.79v-6.32q-3.9.19-6.57.68-2.66.49-4.27 1.26-1.6.76-2.3 1.79-.69 1.02-.69 2.22 0 2.38 1.4 3.4 1.41 1.02 3.67 1.02 2.78 0 4.8-1 2.03-1.01 3.96-3.05m-19.05-19.68-1.61-2.88q6.46-5.91 15.55-5.91 3.29 0 5.88 1.07 2.59 1.08 4.38 3 1.79 1.91 2.72 4.58.93 2.66.93 5.84v23.65h-4.09q-1.28 0-1.97-.38-.69-.39-1.09-1.55l-.81-2.71q-1.42 1.28-2.77 2.25t-2.81 1.62q-1.46.66-3.12 1.01-1.66.34-3.67.34-2.37 0-4.38-.63-2.01-.64-3.47-1.92t-2.26-3.18q-.8-1.89-.8-4.41 0-1.43.47-2.83.47-1.41 1.55-2.68 1.08-1.28 2.79-2.41 1.72-1.13 4.22-1.97t5.82-1.37 7.59-.64v-2.19q0-3.76-1.6-5.57-1.61-1.8-4.64-1.8-2.19 0-3.63.51t-2.54 1.15l-1.99 1.15q-.89.51-1.99.51-.94 0-1.6-.5-.66-.49-1.06-1.15m44.27-5.84.55 4.24q1.75-3.36 4.16-5.28 2.41-1.91 5.7-1.91 2.59 0 4.16 1.13l-.59 6.75q-.18.66-.53.93-.34.28-.93.28-.54 0-1.62-.19-1.08-.18-2.1-.18-1.5 0-2.66.44-1.17.44-2.1 1.26t-1.65 1.99q-.71 1.17-1.33 2.66v23.07h-9.01v-37.45h5.29q1.39 0 1.93.49.55.5.73 1.77m39.06 25.52v-6.32q-3.91.19-6.57.68-2.67.49-4.27 1.26-1.61.76-2.3 1.79-.69 1.02-.69 2.22 0 2.38 1.4 3.4 1.41 1.02 3.67 1.02 2.77 0 4.8-1 2.02-1.01 3.96-3.05m-19.05-19.68-1.61-2.88q6.46-5.91 15.55-5.91 3.28 0 5.88 1.07 2.59 1.08 4.38 3 1.78 1.91 2.71 4.58.94 2.66.94 5.84v23.65h-4.09q-1.28 0-1.97-.38-.7-.39-1.1-1.55l-.8-2.71q-1.42 1.28-2.78 2.25-1.35.97-2.81 1.62-1.46.66-3.12 1.01-1.66.34-3.66.34-2.38 0-4.38-.63-2.01-.64-3.47-1.92t-2.27-3.18q-.8-1.89-.8-4.41 0-1.43.48-2.83.47-1.41 1.55-2.68 1.07-1.28 2.79-2.41t4.22-1.97 5.82-1.37 7.59-.64v-2.19q0-3.76-1.61-5.57-1.6-1.8-4.63-1.8-2.19 0-3.63.51-1.45.51-2.54 1.15-1.1.63-1.99 1.15-.89.51-1.99.51-.95 0-1.61-.5-.65-.49-1.05-1.15m50 9.71q1.68 0 2.92-.45 1.24-.46 2.06-1.26.82-.81 1.24-1.94t.42-2.48q0-2.77-1.66-4.4-1.66-1.62-4.98-1.62t-4.98 1.62q-1.66 1.63-1.66 4.4 0 1.32.42 2.45t1.24 1.95 2.08 1.28q1.26.45 2.9.45m10.18 21.32q0-1.1-.65-1.79-.66-.69-1.79-1.08-1.13-.38-2.65-.56-1.51-.18-3.21-.28-1.7-.09-3.5-.16-1.81-.07-3.53-.29-1.49.84-2.42 1.97t-.93 2.63q0 .98.49 1.84t1.57 1.48 2.79.97q1.72.34 4.2.34 2.52 0 4.34-.38 1.83-.38 3.01-1.06 1.19-.67 1.74-1.61.54-.93.54-2.02m-1.78-37.85h10.76v3.36q0 1.6-1.93 1.97l-3.36.62q.77 1.93.77 4.23 0 2.78-1.12 5.02-1.11 2.25-3.08 3.82-1.97 1.56-4.65 2.42-2.69.86-5.79.86-1.09 0-2.12-.11-1.02-.11-2-.29-1.76 1.06-1.76 2.37 0 1.13 1.04 1.66 1.05.53 2.76.75 1.72.22 3.91.27 2.19.06 4.49.24t4.49.64 3.9 1.44q1.72.99 2.76 2.68 1.04 1.7 1.04 4.37 0 2.48-1.23 4.81-1.22 2.34-3.54 4.17-2.31 1.82-5.69 2.93-3.38 1.12-7.68 1.12-4.24 0-7.38-.82-3.14-.83-5.22-2.19-2.08-1.37-3.1-3.16t-1.02-3.73q0-2.62 1.59-4.39 1.58-1.77 4.36-2.83-1.5-.77-2.37-2.05-.88-1.27-.88-3.35 0-.84.31-1.74.31-.89.91-1.77.61-.87 1.52-1.66.91-.78 2.15-1.4-2.85-1.54-4.47-4.09-1.62-2.56-1.62-5.99 0-2.77 1.11-5.02 1.11-2.24 3.1-3.83t4.71-2.43 5.93-.84q2.41 0 4.53.5 2.11.49 3.87 1.44m23.58 13.14h17q0-1.75-.49-3.3-.49-1.56-1.48-2.72-.98-1.17-2.5-1.85-1.51-.67-3.52-.67-3.9 0-6.15 2.22-2.24 2.23-2.86 6.32m22.99 5.44h-23.18q.22 2.88 1.02 4.98.81 2.1 2.12 3.47 1.32 1.37 3.12 2.04 1.81.68 4 .68t3.78-.51q1.58-.52 2.77-1.14t2.08-1.13q.9-.51 1.74-.51 1.13 0 1.67.84l2.6 3.29q-1.5 1.75-3.36 2.93-1.86 1.19-3.89 1.9t-4.12 1.01q-2.1.29-4.07.29-3.91 0-7.27-1.3-3.36-1.29-5.84-3.83t-3.9-6.28q-1.43-3.74-1.43-8.67 0-3.83 1.24-7.21 1.25-3.37 3.56-5.87 2.32-2.5 5.66-3.96t7.54-1.46q3.54 0 6.53 1.13t5.15 3.3q2.15 2.17 3.37 5.33 1.23 3.16 1.23 7.21 0 2.04-.44 2.76-.44.71-1.68.71"/></svg>