<svg xmlns="http://www.w3.org/2000/svg" width="40" height="40" viewBox="0 0 40 40"><rect width="100%" height="100%" fill="#A0AEC0"/><path fill="#FFFFFF" d="M11.18 24.545h2.45q.67 0 1.13-.16t.74-.43q.27-.27.39-.63t.12-.77q0-.42-.13-.76-.14-.34-.42-.58-.29-.23-.75-.36-.45-.13-1.09-.13h-2.44zm2.06-9.25h-2.06v3.76h1.93q1.24 0 1.87-.45.64-.45.64-1.43 0-1.02-.58-1.45-.57-.43-1.8-.43m-4.48-1.87h4.48q1.28 0 2.19.24t1.49.69.85 1.09.27 1.44q0 .46-.14.88-.13.42-.41.78-.29.37-.72.66-.44.3-1.04.51 2.68.6 2.68 2.89 0 .83-.32 1.53-.31.71-.92 1.22-.6.5-1.48.79t-2.02.29H8.76zm17.09 11.06q.7 0 1.26-.24.55-.23.93-.65.38-.43.58-1.03t.2-1.35v-7.79h2.42v7.79q0 1.16-.37 2.15-.37.98-1.07 1.7-.7.71-1.7 1.11t-2.25.4q-1.26 0-2.26-.4t-1.69-1.11q-.7-.72-1.08-1.7-.37-.99-.37-2.15v-7.79h2.42v7.78q0 .75.2 1.35.21.6.59 1.03t.94.66q.55.24 1.25.24"/></svg>