<svg xmlns="http://www.w3.org/2000/svg" width="600" height="400" viewBox="0 0 600 400"><rect width="100%" height="100%" fill="#2D3748"/><path fill="#FFFFFF" d="m181.37 163.2-4.28 8.13q-.77 1.34-1.64 1.95-.86.61-2.14.61-1.34 0-2.91-.99-1.57-1-3.75-2.21-2.17-1.22-5.08-2.21-2.92-.99-6.88-.99-3.59 0-6.28.86-2.68.87-4.51 2.4-1.82 1.54-2.72 3.68-.89 2.15-.89 4.71 0 3.26 1.82 5.44 1.82 2.17 4.83 3.71 3.01 1.53 6.85 2.75t7.87 2.59q4.03 1.38 7.87 3.2 3.84 1.83 6.85 4.61t4.83 6.82q1.83 4.03 1.83 9.79 0 6.27-2.15 11.74-2.14 5.47-6.27 9.54-4.13 4.06-10.08 6.4-5.95 2.33-13.63 2.33-4.42 0-8.7-.86-4.29-.86-8.23-2.46-3.93-1.6-7.39-3.84t-6.14-5l5.05-8.25q.64-.9 1.67-1.51 1.02-.6 2.17-.6 1.6 0 3.46 1.31 1.85 1.31 4.41 2.91t5.99 2.91q3.42 1.31 8.22 1.31 7.36 0 11.39-3.48 4.04-3.49 4.04-10.02 0-3.65-1.83-5.95-1.82-2.31-4.83-3.87-3.01-1.57-6.85-2.66t-7.81-2.37q-3.96-1.28-7.8-3.07t-6.85-4.67-4.83-7.2q-1.83-4.32-1.83-10.66 0-5.05 2.02-9.85 2.01-4.8 5.85-8.52 3.84-3.71 9.48-5.95 5.63-2.24 12.92-2.24 8.2 0 15.11 2.56t11.77 7.17m36.04 84.86q-8.58 0-13.16-4.83-4.57-4.83-4.57-13.34v-36.67h-6.72q-1.28 0-2.18-.84-.89-.83-.89-2.49v-6.27l10.56-1.73 3.32-17.92q.32-1.28 1.22-1.99.9-.7 2.3-.7h8.2v20.67h17.53v11.27h-17.53v35.58q0 3.07 1.5 4.8t4.13 1.73q1.47 0 2.46-.35.99-.36 1.73-.74t1.31-.74q.58-.35 1.15-.35.71 0 1.16.35.44.36.96 1.06l4.73 7.68q-3.45 2.88-7.93 4.35t-9.28 1.47m38.2-41.4h29.83q0-3.08-.87-5.8-.86-2.72-2.59-4.76-1.73-2.05-4.38-3.24-2.66-1.18-6.18-1.18-6.85 0-10.78 3.9-3.94 3.91-5.03 11.08m40.32 9.53h-40.64q.39 5.06 1.8 8.74 1.4 3.68 3.71 6.08 2.3 2.4 5.47 3.58 3.17 1.19 7.01 1.19t6.62-.9q2.79-.9 4.87-1.98 2.08-1.09 3.64-1.99 1.57-.89 3.04-.89 1.99 0 2.95 1.47l4.54 5.76q-2.62 3.07-5.89 5.15-3.26 2.08-6.81 3.33t-7.23 1.76-7.14.51q-6.85 0-12.74-2.27-5.88-2.27-10.24-6.72-4.35-4.45-6.84-11.01-2.5-6.56-2.5-15.2 0-6.72 2.18-12.64 2.17-5.92 6.24-10.3 4.06-4.39 9.92-6.95 5.85-2.56 13.21-2.56 6.21 0 11.46 1.99 5.25 1.98 9.02 5.79 3.78 3.81 5.92 9.34 2.15 5.54 2.15 12.64 0 3.59-.77 4.83-.77 1.25-2.95 1.25m15.75-64.25h15.81v95.1h-15.81zm31.81 0h15.8v95.1h-15.8zm66.3 78.14v-11.07q-6.85.32-11.52 1.18-4.67.87-7.49 2.21-2.81 1.34-4.03 3.14-1.22 1.79-1.22 3.9 0 4.16 2.47 5.95 2.46 1.79 6.43 1.79 4.86 0 8.42-1.76 3.55-1.76 6.94-5.34m-33.41-34.5-2.81-5.05q11.32-10.37 27.26-10.37 5.76 0 10.3 1.89 4.55 1.89 7.68 5.25 3.14 3.36 4.77 8.03t1.63 10.24v41.47h-7.16q-2.24 0-3.46-.67t-1.92-2.72l-1.41-4.74q-2.49 2.24-4.86 3.94-2.37 1.69-4.93 2.85-2.56 1.15-5.47 1.76-2.91.6-6.43.6-4.16 0-7.68-1.12t-6.08-3.36-3.97-5.56q-1.41-3.33-1.41-7.75 0-2.49.83-4.96.83-2.46 2.72-4.7t4.9-4.23q3.01-1.98 7.39-3.45t10.21-2.4q5.82-.93 13.31-1.12v-3.84q0-6.59-2.82-9.76-2.81-3.17-8.12-3.17-3.84 0-6.37.9-2.53.89-4.45 2.01t-3.49 2.02q-1.57.89-3.49.89-1.66 0-2.81-.86t-1.86-2.02m77.63-10.24.96 7.43q3.08-5.89 7.3-9.25t9.98-3.36q4.55 0 7.3 1.98l-1.02 11.84q-.32 1.16-.93 1.64t-1.63.48q-.96 0-2.85-.32t-3.68-.32q-2.63 0-4.67.76-2.05.77-3.68 2.21-1.64 1.44-2.88 3.49-1.25 2.05-2.34 4.67v40.45h-15.81v-65.66h9.28q2.43 0 3.39.86t1.28 3.1"/></svg>