<svg xmlns="http://www.w3.org/2000/svg" width="40" height="40" viewBox="0 0 40 40"><rect width="100%" height="100%" fill="#DC2626"/><path fill="#FFFFFF" d="M19.18 19.995q0 1.36-.45 2.49t-1.26 1.94q-.82.82-1.97 1.27-1.14.45-2.55.45H8.27v-12.29h4.68q1.41 0 2.55.45 1.15.46 1.97 1.27.81.81 1.26 1.94t.45 2.48m-2.34 0q0-1.01-.27-1.81t-.77-1.36q-.51-.56-1.23-.85-.71-.3-1.62-.3h-2.38v8.65h2.38q.91 0 1.62-.3.72-.29 1.23-.85.5-.56.77-1.36t.27-1.82m6.94 1.51h3.91l-1.49-4.09q-.11-.27-.23-.65-.12-.37-.24-.8-.11.43-.23.81t-.23.66zm3.12-7.65 4.83 12.29h-1.77q-.29 0-.48-.15t-.28-.37l-.92-2.51h-5.09l-.92 2.51q-.07.2-.26.36-.2.16-.49.16h-1.78l4.83-12.29z"/></svg>