<svg xmlns="http://www.w3.org/2000/svg" width="600" height="400" viewBox="0 0 600 400"><rect width="100%" height="100%" fill="#6B46C1"/><path fill="#FFFFFF" d="M172.565 173.41h-34.35v22.9h29v11.5h-29v31.51h-14.44v-77.36h48.79zm10.11 11.02h13.27v54.89h-13.27zm15.09-16q0 1.71-.7 3.21-.69 1.5-1.84 2.62-1.15 1.13-2.71 1.8-1.55.67-3.31.67-1.72 0-3.24-.67t-2.65-1.8q-1.12-1.12-1.79-2.62t-.67-3.21q0-1.76.67-3.31.67-1.56 1.79-2.68 1.13-1.12 2.65-1.79t3.24-.67q1.76 0 3.31.67 1.56.67 2.71 1.79t1.84 2.68q.7 1.55.7 3.31m29.96 71.75q-7.17 0-11-4.04-3.82-4.04-3.82-11.16v-30.65h-5.62q-1.07 0-1.82-.7-.75-.69-.75-2.09v-5.24l8.83-1.44 2.78-14.98q.27-1.07 1.02-1.66t1.92-.59h6.85v17.28h14.66v9.42h-14.66v29.74q0 2.57 1.26 4.02 1.26 1.44 3.45 1.44 1.23 0 2.06-.29.83-.3 1.44-.62.62-.32 1.1-.62.48-.29.96-.29.59 0 .97.29.37.3.8.89l3.96 6.42q-2.89 2.41-6.64 3.64-3.74 1.23-7.75 1.23m72.38-66.77h-34.34v22.9h28.99v11.5h-28.99v31.51h-14.45v-77.36h48.79zm9.85-13.59h13.21v79.5h-13.21zm50.71 23.75q6.1 0 11.11 1.98 5 1.98 8.56 5.62 3.55 3.64 5.48 8.88t1.93 11.72q0 6.52-1.93 11.77-1.93 5.24-5.48 8.93-3.56 3.69-8.56 5.67-5.01 1.98-11.11 1.98-6.15 0-11.18-1.98t-8.58-5.67q-3.56-3.69-5.51-8.93-1.96-5.25-1.96-11.77 0-6.48 1.96-11.72 1.95-5.24 5.51-8.88 3.55-3.64 8.58-5.62t11.18-1.98m0 46.39q6.85 0 10.14-4.6t3.29-13.49q0-8.88-3.29-13.53-3.29-4.66-10.14-4.66-6.95 0-10.29 4.69-3.35 4.68-3.35 13.5 0 8.83 3.35 13.46 3.34 4.63 10.29 4.63m105.51-45.53h10.05l-17.44 54.89h-10.59q-1.82 0-2.51-2.35l-9.85-31.73q-.48-1.6-.88-3.18t-.67-3.19q-.32 1.61-.72 3.24t-.88 3.24l-10.01 31.62q-.64 2.35-2.83 2.35h-10.17l-17.39-54.89h10.54q1.45 0 2.46.69 1.02.7 1.34 1.77l7.87 29.32q.58 2.41 1.04 4.71.45 2.3.77 4.6.59-2.3 1.26-4.6t1.42-4.71l9.09-29.43q.33-1.07 1.26-1.76.94-.7 2.28-.7h5.83q1.39 0 2.38.7.99.69 1.31 1.76l8.83 29.43q.69 2.41 1.31 4.73.61 2.33 1.2 4.63.7-4.55 1.98-9.36l8.08-29.32q.37-1.07 1.34-1.77.96-.69 2.3-.69"/></svg>