<svg xmlns="http://www.w3.org/2000/svg" width="1200" height="400" viewBox="0 0 1200 400"><rect width="100%" height="100%" fill="#4A5568"/><path fill="#FFFFFF" d="M266.495 201.785h27.83l-10.65-29.1q-.79-1.94-1.63-4.6-.85-2.66-1.7-5.75-.78 3.09-1.63 5.78t-1.63 4.69zm22.2-54.45 34.37 87.48h-12.59q-2.11 0-3.45-1.06-1.33-1.06-1.99-2.63l-6.54-17.85h-36.24l-6.53 17.85q-.48 1.39-1.88 2.54-1.39 1.15-3.44 1.15h-12.71l34.43-87.48zm80.04 69.09v-27.83q-2.48-3.09-5.5-4.36-3.03-1.27-6.47-1.27-3.39 0-6.12 1.27-2.72 1.27-4.65 3.84-1.94 2.58-2.97 6.54t-1.03 9.34q0 5.45.88 9.23t2.51 6.17 3.99 3.45 5.27 1.06q4.66 0 7.92-1.94 3.27-1.93 6.17-5.5m5.81-43.68h9.14v82.34h-14.95v-28.14q-3.69 3.94-8.34 6.36-4.66 2.42-10.83 2.42-5.09 0-9.32-2.12-4.24-2.12-7.29-6.14-3.06-4.02-4.72-9.95t-1.66-13.56q0-6.89 1.87-12.82 1.88-5.93 5.39-10.29 3.5-4.35 8.41-6.8 4.9-2.45 11.01-2.45 5.8 0 9.74 1.99 3.93 2 7.01 5.39l.79-3.51q.79-2.72 3.75-2.72m62.44 0h14.94v62.07h-9.13q-2.97 0-3.75-2.72l-1.03-4.96q-3.81 3.87-8.41 6.26t-10.83 2.39q-5.08 0-8.99-1.73-3.9-1.72-6.56-4.87-2.66-3.14-4.02-7.47-1.37-4.32-1.37-9.53v-39.44h14.95v39.44q0 5.69 2.63 8.81 2.63 3.11 7.9 3.11 3.87 0 7.26-1.72 3.38-1.73 6.41-4.75zm62.49 46.04v-10.47q-6.47.3-10.89 1.12-4.41.82-7.07 2.09-2.67 1.27-3.82 2.96-1.14 1.7-1.14 3.69 0 3.93 2.32 5.63 2.33 1.69 6.08 1.69 4.6 0 7.96-1.66t6.56-5.05m-31.58-32.61-2.66-4.78q10.71-9.8 25.77-9.8 5.45 0 9.75 1.78 4.29 1.79 7.26 4.96 2.96 3.18 4.5 7.6 1.55 4.41 1.55 9.68v39.2h-6.78q-2.12 0-3.27-.64-1.15-.63-1.81-2.57l-1.33-4.47q-2.36 2.11-4.6 3.72-2.24 1.6-4.66 2.69t-5.17 1.66q-2.76.58-6.08.58-3.94 0-7.26-1.06-3.33-1.06-5.75-3.18-2.42-2.11-3.75-5.26t-1.33-7.32q0-2.36.78-4.69.79-2.33 2.57-4.45 1.79-2.11 4.63-3.99 2.85-1.88 6.99-3.27 4.15-1.39 9.65-2.27 5.51-.87 12.58-1.05v-3.63q0-6.24-2.66-9.23t-7.68-2.99q-3.63 0-6.02.84-2.39.85-4.21 1.91-1.81 1.06-3.29 1.9-1.48.85-3.3.85-1.57 0-2.66-.82-1.09-.81-1.76-1.9m108.24 5.14h12.16q4.48 0 7.8-1.12 3.33-1.12 5.54-3.21 2.21-2.08 3.3-5.08 1.09-2.99 1.09-6.68 0-3.51-1.09-6.35-1.09-2.85-3.27-4.84-2.18-2-5.51-3.06-3.32-1.06-7.86-1.06h-12.16zm-16.28-43.98h28.44q8.77 0 15.18 2.05 6.42 2.06 10.59 5.75 4.18 3.69 6.2 8.83 2.03 5.15 2.03 11.26 0 6.35-2.12 11.64-2.12 5.3-6.35 9.11-4.24 3.81-10.62 5.93t-14.91 2.12h-12.16v30.79h-16.28zm72.72-2.42h14.95v89.9h-14.95zm62.68 73.87v-10.47q-6.47.3-10.89 1.12-4.41.82-7.08 2.09-2.66 1.27-3.81 2.96-1.15 1.7-1.15 3.69 0 3.93 2.33 5.63 2.33 1.69 6.08 1.69 4.6 0 7.96-1.66t6.56-5.05m-31.58-32.61-2.66-4.78q10.71-9.8 25.77-9.8 5.45 0 9.74 1.78 4.3 1.79 7.26 4.96 2.97 3.18 4.51 7.6 1.54 4.41 1.54 9.68v39.2h-6.77q-2.12 0-3.27-.64-1.15-.63-1.81-2.57l-1.34-4.47q-2.36 2.11-4.59 3.72-2.24 1.6-4.66 2.69t-5.18 1.66q-2.75.58-6.08.58-3.93 0-7.26-1.06-3.32-1.06-5.74-3.18-2.42-2.11-3.75-5.26t-1.33-7.32q0-2.36.78-4.69.79-2.33 2.57-4.45 1.79-2.11 4.63-3.99t6.99-3.27q4.14-1.39 9.65-2.27 5.5-.87 12.58-1.05v-3.63q0-6.24-2.66-9.23t-7.68-2.99q-3.63 0-6.02.84-2.39.85-4.21 1.91-1.81 1.06-3.29 1.9-1.49.85-3.3.85-1.57 0-2.66-.82-1.09-.81-1.76-1.9m73.15-10.71 1.02 4.9q1.88-1.88 3.97-3.48 2.08-1.6 4.41-2.72t5-1.76q2.66-.63 5.8-.63 5.09 0 9.02 1.72 3.93 1.73 6.56 4.84 2.63 3.12 3.99 7.44 1.37 4.33 1.37 9.53v39.51h-14.95v-39.51q0-5.68-2.6-8.8-2.6-3.11-7.92-3.11-3.88 0-7.26 1.75-3.39 1.75-6.42 4.78v44.89h-14.94v-62.07h9.13q2.91 0 3.82 2.72m68.24 0 1.03 4.9q1.87-1.88 3.96-3.48t4.42-2.72 4.99-1.76q2.66-.63 5.81-.63 5.08 0 9.01 1.72 3.93 1.73 6.57 4.84 2.63 3.12 3.99 7.44 1.36 4.33 1.36 9.53v39.51h-14.94v-39.51q0-5.68-2.6-8.8-2.61-3.11-7.93-3.11-3.87 0-7.26 1.75t-6.41 4.78v44.89h-14.95v-62.07h9.14q2.9 0 3.81 2.72m67.09 21.17h28.2q0-2.9-.82-5.47t-2.45-4.51q-1.63-1.93-4.14-3.05t-5.84-1.12q-6.48 0-10.2 3.69t-4.75 10.46m38.12 9.02h-38.42q.37 4.78 1.7 8.26t3.51 5.74q2.17 2.27 5.17 3.39 2.99 1.12 6.62 1.12t6.26-.84q2.64-.85 4.6-1.88 1.97-1.03 3.45-1.88 1.48-.84 2.87-.84 1.88 0 2.79 1.39l4.29 5.44q-2.48 2.91-5.56 4.87-3.09 1.97-6.45 3.15-3.35 1.18-6.83 1.66-3.48.49-6.75.49-6.47 0-12.04-2.15-5.56-2.15-9.68-6.35-4.11-4.21-6.47-10.41t-2.36-14.37q0-6.35 2.06-11.95 2.05-5.59 5.89-9.74 3.85-4.14 9.38-6.56 5.54-2.42 12.5-2.42 5.86 0 10.83 1.87 4.96 1.88 8.53 5.48t5.59 8.83q2.03 5.24 2.03 11.95 0 3.39-.73 4.57-.72 1.18-2.78 1.18m27.89-29.16.91 7.02q2.9-5.57 6.89-8.75 4-3.17 9.44-3.17 4.3 0 6.9 1.87l-.97 11.2q-.3 1.08-.88 1.54-.57.45-1.54.45-.91 0-2.69-.3-1.79-.3-3.48-.3-2.48 0-4.42.72-1.93.73-3.47 2.09-1.55 1.36-2.73 3.3-1.18 1.93-2.21 4.41v38.24h-14.94v-62.07h8.77q2.3 0 3.21.81.91.82 1.21 2.94"/></svg>