<svg xmlns="http://www.w3.org/2000/svg" width="600" height="400" viewBox="0 0 600 400"><rect width="100%" height="100%" fill="#C53030"/><path fill="#FFFFFF" d="M141.96 188.96h10.08q4.56 0 7.95-1.14t5.58-3.15 3.27-4.77 1.08-6.06q0-6.6-4.35-10.14t-13.29-3.54h-10.32zm29.88 13.44 21.72 32.04h-14.58q-4.14 0-6-3.24l-18.24-27.78q-1.02-1.56-2.25-2.22t-3.63-.66h-6.9v33.9h-16.14v-86.76h26.46q8.82 0 15.15 1.83t10.38 5.13 5.97 7.89 1.92 10.11q0 4.38-1.29 8.28t-3.72 7.08-6 5.58-8.13 3.78q1.56.9 2.88 2.13t2.4 2.91m40.5-5.82h27.96q0-2.88-.81-5.43t-2.43-4.47-4.11-3.03-5.79-1.11q-6.42 0-10.11 3.66t-4.71 10.38m37.8 8.94h-38.1q.36 4.74 1.68 8.19t3.48 5.7 5.13 3.36 6.57 1.11 6.21-.84 4.56-1.86 3.42-1.86 2.85-.84q1.86 0 2.76 1.38l4.26 5.4q-2.46 2.88-5.52 4.83t-6.39 3.12-6.78 1.65-6.69.48q-6.42 0-11.94-2.13t-9.6-6.3-6.42-10.32-2.34-14.25q0-6.3 2.04-11.85t5.85-9.66 9.3-6.51 12.39-2.4q5.82 0 10.74 1.86t8.46 5.43 5.55 8.76 2.01 11.85q0 3.36-.72 4.53t-2.76 1.17m62.58-25.02-3.9 5.4q-.66.84-1.29 1.32t-1.83.48q-1.14 0-2.22-.69t-2.58-1.56-3.57-1.56-5.13-.69q-3.9 0-6.84 1.41t-4.89 4.05-2.91 6.39-.96 8.49q0 4.92 1.05 8.76t3.03 6.45 4.8 3.96 6.36 1.35 5.73-.87 3.69-1.92 2.61-1.92 2.49-.87q1.8 0 2.7 1.38l4.26 5.4q-2.46 2.88-5.34 4.83t-5.97 3.12-6.36 1.65-6.51.48q-5.7 0-10.74-2.13t-8.82-6.21-5.97-9.99-2.19-13.47q0-6.78 1.95-12.57t5.73-10.02 9.36-6.63 12.84-2.4q6.9 0 12.09 2.22t9.33 6.36m10.32-7.62h14.88v61.56h-14.88zm16.92-17.94q0 1.92-.78 3.6t-2.07 2.94-3.03 2.01-3.72.75q-1.92 0-3.63-.75t-2.97-2.01-2.01-2.94-.75-3.6q0-1.98.75-3.72t2.01-3 2.97-2.01 3.63-.75q1.98 0 3.72.75t3.03 2.01 2.07 3 .78 3.72m27.9 35.94v27.6q2.52 3.06 5.49 4.32t6.45 1.26q3.36 0 6.06-1.26t4.59-3.84 2.91-6.51 1.02-9.27q0-5.4-.87-9.15t-2.49-6.09-3.93-3.42-5.25-1.08q-4.62 0-7.86 1.95t-6.12 5.49m-1.98-15.3 1.2 5.7q3.78-4.26 8.58-6.9t11.28-2.64q5.04 0 9.21 2.1t7.2 6.09 4.68 9.84 1.65 13.41q0 6.9-1.86 12.78t-5.31 10.2-8.34 6.75-10.95 2.43q-5.16 0-8.82-1.59t-6.54-4.41v25.2h-14.82v-81.66h9.06q2.88 0 3.78 2.7m67.02 21h27.96q0-2.88-.81-5.43t-2.43-4.47-4.11-3.03-5.79-1.11q-6.42 0-10.11 3.66t-4.71 10.38m37.8 8.94h-38.1q.36 4.74 1.68 8.19t3.48 5.7 5.13 3.36 6.57 1.11 6.21-.84 4.56-1.86 3.42-1.86 2.85-.84q1.86 0 2.76 1.38l4.26 5.4q-2.46 2.88-5.52 4.83t-6.39 3.12-6.78 1.65-6.69.48q-6.42 0-11.94-2.13t-9.6-6.3-6.42-10.32-2.34-14.25q0-6.3 2.04-11.85t5.85-9.66 9.3-6.51 12.39-2.4q5.82 0 10.74 1.86t8.46 5.43 5.55 8.76 2.01 11.85q0 3.36-.72 4.53t-2.76 1.17"/></svg>