<svg xmlns="http://www.w3.org/2000/svg" width="600" height="400" viewBox="0 0 600 400"><rect width="100%" height="100%" fill="#7C3AED"/><path fill="#FFFFFF" d="M162.42 209.38q.88 0 1.56.68l4.24 4.6q-3.52 4.36-8.66 6.68t-12.34 2.32q-6.44 0-11.58-2.2t-8.78-6.12-5.58-9.36-1.94-11.88q0-6.52 2.08-11.94t5.86-9.34 9.02-6.1 11.6-2.18q6.32 0 11.22 2.08t8.34 5.44l-3.6 5q-.32.48-.82.84t-1.38.36q-.6 0-1.24-.34t-1.4-.84-1.76-1.1-2.32-1.1-3.06-.84-4.02-.34q-3.88 0-7.1 1.38t-5.54 4-3.6 6.4-1.28 8.62q0 4.88 1.38 8.68t3.74 6.4 5.56 3.98 6.88 1.38q2.2 0 3.98-.24t3.28-.76 2.84-1.34 2.66-2.02q.4-.36.84-.58t.92-.22m11.96-27.4h9.92v41.04h-9.92zm11.28-11.96q0 1.28-.52 2.4t-1.38 1.96-2.02 1.34-2.48.5q-1.28 0-2.42-.5t-1.98-1.34-1.34-1.96-.5-2.4q0-1.32.5-2.48t1.34-2 1.98-1.34 2.42-.5q1.32 0 2.48.5t2.02 1.34 1.38 2 .52 2.48m22.4 53.64q-5.36 0-8.22-3.02t-2.86-8.34v-22.92h-4.2q-.8 0-1.36-.52t-.56-1.56v-3.92l6.6-1.08 2.08-11.2q.2-.8.76-1.24t1.44-.44h5.12v12.92h10.96v7.04h-10.96v22.24q0 1.92.94 3t2.58 1.08q.92 0 1.54-.22t1.08-.46.82-.46.72-.22q.44 0 .72.22t.6.66l2.96 4.8q-2.16 1.8-4.96 2.72t-5.8.92m45.44-41.68h7.92l-22.36 52.32q-.44 1.04-1.14 1.58t-2.14.54h-7.36l7.68-16.48-16.6-37.96h8.68q1.16 0 1.82.56t.98 1.28l8.72 21.28q.44 1.08.74 2.16t.58 2.2q.36-1.12.72-2.22t.8-2.18l8.24-21.24q.32-.8 1.06-1.32t1.66-.52m74.24-16.8v8.84H310.3v49h-10.76v-49H282.1v-8.84zm14.76 19.28.6 4.64q1.92-3.68 4.56-5.78t6.24-2.1q2.84 0 4.56 1.24l-.64 7.4q-.2.72-.58 1.02t-1.02.3q-.6 0-1.78-.2t-2.3-.2q-1.64 0-2.92.48t-2.3 1.38-1.8 2.18-1.46 2.92v25.28h-9.88v-41.04h5.8q1.52 0 2.12.54t.8 1.94m42.8 27.96v-6.92q-4.28.2-7.2.74t-4.68 1.38-2.52 1.96-.76 2.44q0 2.6 1.54 3.72t4.02 1.12q3.04 0 5.26-1.1t4.34-3.34m-20.88-21.56-1.76-3.16q7.08-6.48 17.04-6.48 3.6 0 6.44 1.18t4.8 3.28 2.98 5.02 1.02 6.4v25.92h-4.48q-1.4 0-2.16-.42t-1.2-1.7l-.88-2.96q-1.56 1.4-3.04 2.46t-3.08 1.78-3.42 1.1-4.02.38q-2.6 0-4.8-.7t-3.8-2.1-2.48-3.48-.88-4.84q0-1.56.52-3.1t1.7-2.94 3.06-2.64 4.62-2.16 6.38-1.5 8.32-.7v-2.4q0-4.12-1.76-6.1t-5.08-1.98q-2.4 0-3.98.56t-2.78 1.26-2.18 1.26-2.18.56q-1.04 0-1.76-.54t-1.16-1.26m71.8-3.8-2.6 3.6q-.44.56-.86.88t-1.22.32q-.76 0-1.48-.46t-1.72-1.04-2.38-1.04-3.42-.46q-2.6 0-4.56.94t-3.26 2.7-1.94 4.26-.64 5.66q0 3.28.7 5.84t2.02 4.3 3.2 2.64 4.24.9 3.82-.58 2.46-1.28 1.74-1.28 1.66-.58q1.2 0 1.8.92l2.84 3.6q-1.64 1.92-3.56 3.22t-3.98 2.08-4.24 1.1-4.34.32q-3.8 0-7.16-1.42t-5.88-4.14-3.98-6.66-1.46-8.98q0-4.52 1.3-8.38t3.82-6.68 6.24-4.42 8.56-1.6q4.6 0 8.06 1.48t6.22 4.24m6.56-23.48h9.88v34.04h1.84q1 0 1.58-.26t1.18-1.06l10.2-12.6q.64-.84 1.42-1.28t2.02-.44h9.04l-12.76 15.24q-1.36 1.8-2.96 2.76.84.6 1.5 1.4t1.26 1.72l13.68 19.92h-8.92q-1.16 0-2-.38t-1.4-1.38l-10.48-15.56q-.56-.92-1.16-1.2t-1.8-.28h-2.24v18.8h-9.88z"/></svg>